<?xml version="1.0" encoding="utf-8"?>
<!-- Generator: Adobe Illustrator 20.0.0, SVG Export Plug-In . SVG Version: 6.00 Build 0)  -->
<svg version="1.1" id="Layer_1" xmlns="http://www.w3.org/2000/svg" xmlns:xlink="http://www.w3.org/1999/xlink" x="0px" y="0px"
	 viewBox="0 0 600 6.1" style="enable-background:new 0 0 600 6.1;" xml:space="preserve">
<style type="text/css">
	.st0{clip-path:url(#SVGID_2_);}
	.st1{opacity:0.7;}
	.st2{fill:#49B78D;}
	.st3{fill:#4BB4D2;}
	.st4{fill:#5295CC;}
	.st5{fill:#5971CA;}
	.st6{fill:#7755CD;}
	.st7{fill:#775587;}
</style>
<g>
	<defs>
		<path id="SVGID_1_" d="M599.4-0.2V6c0,0.2-1.8,0.3-4,0.3H3.4c-2.2,0-4-0.1-4-0.3v-6.2H599.4z"/>
	</defs>
	<clipPath id="SVGID_2_">
		<use xlink:href="#SVGID_1_"  style="overflow:visible;"/>
	</clipPath>
	<g class="st0">
		<g class="st1">
			<path class="st2" d="M92.5,187.7c-91.7,0-166.2-74.6-166.2-166.2c0-91.7,74.6-166.2,166.2-166.2S258.7-70.2,258.7,21.5
				C258.7,113.1,184.2,187.7,92.5,187.7z"/>
			<path class="st2" d="M92.5-143.8c91.3,0,165.2,74,165.2,165.2s-74,165.2-165.2,165.2s-165.2-74-165.2-165.2S1.3-143.8,92.5-143.8
				 M92.5-145.8c-44.7,0-86.7,17.4-118.3,49c-31.6,31.6-49,73.6-49,118.3s17.4,86.7,49,118.3c31.6,31.6,73.6,49,118.3,49
				s86.7-17.4,118.3-49c31.6-31.6,49-73.6,49-118.3s-17.4-86.7-49-118.3C179.2-128.4,137.2-145.8,92.5-145.8L92.5-145.8z"/>
		</g>
		<g class="st1">
			<path class="st3" d="M194.4,151.2c-76.1,0-138-61.9-138-138c0-76.1,61.9-138,138-138c76.1,0,138,61.9,138,138
				C332.4,89.2,270.5,151.2,194.4,151.2z"/>
			<path class="st3" d="M194.4-123.9c75.7,0,137,61.3,137,137s-61.3,137-137,137s-137-61.3-137-137S118.7-123.9,194.4-123.9
				 M194.4-125.9c-37.1,0-72,14.5-98.3,40.7S55.4-24,55.4,13.1s14.5,72,40.7,98.3s61.2,40.7,98.3,40.7s72-14.5,98.3-40.7
				c26.3-26.3,40.7-61.2,40.7-98.3s-14.5-72-40.7-98.3C266.4-111.4,231.5-125.9,194.4-125.9L194.4-125.9z"/>
		</g>
		<g class="st1">
			<path class="st4" d="M266.8,96.5c-60.2,0-109.2-49-109.2-109.2c0-60.2,49-109.2,109.2-109.2S376-72.9,376-12.7
				C376,47.5,327,96.5,266.8,96.5z"/>
			<path class="st4" d="M266.8-120.9c59.7,0,108.2,48.4,108.2,108.2S326.6,95.5,266.8,95.5S158.6,47.1,158.6-12.7
				S207.1-120.9,266.8-120.9 M266.8-122.9c-29.4,0-57.1,11.5-77.9,32.3c-20.8,20.8-32.3,48.5-32.3,77.9s11.5,57.1,32.3,77.9
				c20.8,20.8,48.5,32.3,77.9,32.3s57.1-11.5,77.9-32.3C365.6,44.4,377,16.7,377-12.7s-11.5-57.1-32.3-77.9
				C323.9-111.4,296.3-122.9,266.8-122.9L266.8-122.9z"/>
		</g>
		<g class="st1">
			<path class="st5" d="M331.2,126c-63.8,0-115.7-51.9-115.7-115.7c0-63.8,51.9-115.7,115.7-115.7S447-53.5,447,10.3
				C447,74.1,395,126,331.2,126z"/>
			<path class="st5" d="M331.2-104.4C394.6-104.4,446-53,446,10.3S394.6,125,331.2,125S216.5,73.7,216.5,10.3
				S267.9-104.4,331.2-104.4 M331.2-106.4c-31.2,0-60.5,12.1-82.5,34.2c-22,22-34.2,51.4-34.2,82.5s12.1,60.5,34.2,82.5
				c22,22,51.4,34.2,82.5,34.2c31.2,0,60.5-12.1,82.5-34.2c22-22,34.2-51.4,34.2-82.5s-12.1-60.5-34.2-82.5
				C391.7-94.3,362.4-106.4,331.2-106.4L331.2-106.4z"/>
		</g>
		<g class="st1">
			<path class="st6" d="M449.3,121.2c-78.9,0-143.2-62.8-143.2-140.1c0-77.2,64.2-140.1,143.2-140.1S592.5-96.1,592.5-18.9
				C592.5,58.4,528.3,121.2,449.3,121.2z"/>
			<path class="st6" d="M449.3-158c78.5,0,142.2,62.3,142.2,139.1s-63.7,139.1-142.2,139.1S307.1,57.9,307.1-18.9
				S370.8-158,449.3-158 M449.3-160c-38.5,0-74.7,14.7-101.9,41.3c-27.2,26.7-42.2,62.1-42.2,99.8s15,73.1,42.2,99.8
				c27.2,26.6,63.4,41.3,101.9,41.3s74.7-14.7,101.9-41.3c27.2-26.7,42.2-62.1,42.2-99.8s-15-73.1-42.2-99.8
				C524-145.3,487.8-160,449.3-160L449.3-160z"/>
		</g>
		<g class="st1">
			<path class="st7" d="M513.1,172.2C423.1,172.2,350,99,350,9c0-90,73.2-163.2,163.2-163.2c90,0,163.2,73.2,163.2,163.2
				C676.3,99,603.1,172.2,513.1,172.2z"/>
			<path class="st7" d="M513.1-153.1c89.6,0,162.2,72.6,162.2,162.2s-72.6,162.2-162.2,162.2S351,98.6,351,9
				S423.6-153.1,513.1-153.1 M513.1-155.1c-43.8,0-85.1,17.1-116.1,48.1C366-76,349-34.8,349,9S366,94.1,397,125.1
				c31,31,72.2,48.1,116.1,48.1s85.1-17.1,116.1-48.1c31-31,48.1-72.2,48.1-116.1S660.2-76,629.2-107.1
				C598.2-138.1,557-155.1,513.1-155.1L513.1-155.1z"/>
		</g>
	</g>
</g>
</svg>
