<?xml version="1.0" encoding="utf-8"?>
<!-- Generator: Adobe Illustrator 20.0.0, SVG Export Plug-In . SVG Version: 6.00 Build 0)  -->
<svg version="1.1" id="Layer_1" xmlns="http://www.w3.org/2000/svg" xmlns:xlink="http://www.w3.org/1999/xlink" x="0px" y="0px"
	 viewBox="0 0 600 121.9" style="enable-background:new 0 0 600 121.9;" xml:space="preserve">
<style type="text/css">
	.st0{clip-path:url(#SVGID_2_);}
	.st1{opacity:0.7;}
	.st2{fill:#5971CA;}
	.st3{fill:#49B78D;}
	.st4{fill:#4BB4D2;}
	.st5{fill:#5295CC;}
	.st6{fill:#7755CD;}
	.st7{fill:#775587;}
</style>
<g>
	<defs>
		<path id="SVGID_1_" d="M-0.1,121.6V5.8c0-3.2,1.8-5.8,4-5.8h592c2.2,0,4,2.6,4,5.8v115.8H-0.1z"/>
	</defs>
	<clipPath id="SVGID_2_">
		<use xlink:href="#SVGID_1_"  style="overflow:visible;"/>
	</clipPath>
	<g class="st0">
		<g class="st1">
			<rect x="197.3" y="-194.4" class="st2" width="261.7" height="262.1"/>
			<path class="st2" d="M458-193.4V66.7H198.3v-260.1H458 M460-195.4h-2H198.3h-2v2V66.7v2h2H458h2v-2v-260.1V-195.4L460-195.4z"/>
		</g>
		<g class="st1">
			<rect x="-5.1" y="-193.4" class="st3" width="256.9" height="276.2"/>
		</g>
		<g class="st1">
			<rect x="16.4" y="-194.4" class="st4" width="312.2" height="299"/>
			<path class="st4" d="M327.6-193.4v297H17.4v-297H327.6 M329.6-195.4h-2H17.4h-2v2v297v2h2h310.2h2v-2v-297V-195.4L329.6-195.4z"
				/>
		</g>
		<g class="st1">
			<rect x="299.3" y="-194.4" class="st6" width="301.4" height="317.9"/>
			<path class="st6" d="M599.7-193.4v315.9H300.3v-315.9H599.7 M601.7-195.4h-2H300.3h-2v2v315.9v2h2h299.4h2v-2v-315.9V-195.4
				L601.7-195.4z"/>
		</g>
	</g>
</g>
</svg>
