<?xml version="1.0" encoding="utf-8"?>
<!-- Generator: Adobe Illustrator 16.2.1, SVG Export Plug-In . SVG Version: 6.00 Build 0)  -->
<!DOCTYPE svg PUBLIC "-//W3C//DTD SVG 1.1//EN" "http://www.w3.org/Graphics/SVG/1.1/DTD/svg11.dtd">
<svg version="1.1" id="Layer_1" xmlns="http://www.w3.org/2000/svg" xmlns:xlink="http://www.w3.org/1999/xlink" x="0px" y="0px"
	 width="110px" height="140px" viewBox="0 0 110 140" enable-background="new 0 0 110 140" xml:space="preserve">
<circle fill="#49B78D" cx="29.212" cy="57.015" r="8.128"/>
<g>
	<path fill="#AFAFAF" d="M102.158,80.05c-1.31-1.31-3.428-1.31-4.736,0l-12.25,12.245l-3.56-3.559l14.2-14.201
		c2.613-2.617,2.613-6.857,0-9.475l-3.943-3.943c-1.258-1.257-2.962-1.963-4.739-1.963c-1.778,0-3.482,0.705-4.736,1.963
		L64.396,79.111l-2.523,2.524l-2.424,2.423c-1.039,1.039-1.672,2.391-1.871,3.83c-3.321-1.341-6.372-3.326-8.951-5.905
		c-5.001-4.997-7.707-11.623-7.862-18.457c0.422-0.79,0.754-1.633,1-2.515l7.463,7.463c1.257,1.258,2.959,1.963,4.736,1.963
		c0.461,0,0.916-0.046,1.362-0.138l1.173,1.169c1.309,1.309,3.021,1.966,4.736,1.966c1.715,0,3.43-0.657,4.739-1.966l6.036-6.036
		c2.619-2.617,2.619-6.86,0-9.476l-1.172-1.173c0.095-0.443,0.141-0.899,0.141-1.361c0-1.776-0.707-3.479-1.962-4.738L32.742,12.415
		c-1.256-1.256-2.959-1.962-4.737-1.962c-0.01,0-0.018,0-0.025,0l-1.468,0.006L22.974,6.92c-1.307-1.307-3.022-1.961-4.736-1.961
		c-1.715,0-3.429,0.654-4.737,1.961l-6.039,6.04c-2.616,2.616-2.616,6.857,0,9.473l3.536,3.539l-0.004,1.465
		c-0.007,1.786,0.698,3.501,1.961,4.765l13.549,13.549c-5.225,1.459-9.071,6.25-9.071,11.934c0,5.006,2.989,9.321,7.274,11.276
		c1.278,9.155,5.453,17.818,12.291,24.656c0.921,0.922,1.889,1.781,2.877,2.61c-0.058,0.262-0.117,0.523-0.142,0.801l-1.685,18.6
		c-3.622,0.089-6.531,3.052-6.531,6.696v3.975c0,3.7,3,6.701,6.7,6.701h29.485c3.7,0,6.697-3.001,6.697-6.701v-3.975
		c0-3.645-2.912-6.607-6.534-6.696l-0.844-9.323c0.234,0.004,0.461,0.035,0.691,0.035c1.434,0,2.872-0.094,4.303-0.238l3.473,3.474
		c1.31,1.305,3.025,1.962,4.736,1.962c1.716,0,3.431-0.657,4.74-1.966l4.001-4.005c1.259-1.254,1.965-2.958,1.965-4.735
		c0-1.325-0.395-2.61-1.116-3.701l12.344-12.344C103.466,83.476,103.466,81.354,102.158,80.05z M17.693,27.464l0.018-4.258
		l-5.512-5.509l6.039-6.039l2.999,2.999l-2.166,2.165c-0.786,0.785-0.786,2.059,0,2.844c0.392,0.393,0.906,0.588,1.421,0.588
		c0.515,0,1.028-0.195,1.421-0.588l2.5-2.501l3.591-0.013l35.859,35.857v0.001l-4.388,4.386c-0.786,0.785-0.786,2.057,0,2.842
		c0.395,0.393,0.906,0.588,1.422,0.588s1.027-0.195,1.423-0.588l2.247-2.248l2.703,2.703l-6.036,6.038l-5.132-5.133l-2.14,2.14
		L17.693,27.464z M24.134,57.685c0-3.144,2.556-5.7,5.7-5.7c3.141,0,5.698,2.556,5.698,5.7c0,3.141-2.557,5.699-5.698,5.699
		C26.69,63.383,24.134,60.826,24.134,57.685z M31.664,69.933c1.031-0.153,2.024-0.42,2.956-0.813
		c1.229,6.546,4.367,12.704,9.269,17.604c4.949,4.947,11.28,8.187,18.112,9.363l3.438,3.441c-8.952-0.546-17.303-4.251-23.706-10.65
		C36.43,83.574,33.032,76.963,31.664,69.933z M61.391,118.417h-9.238c-1.109,0-2.008,0.898-2.008,2.008
		c0,1.11,0.898,2.013,2.008,2.013h15.55v3.86H38.217v-3.86h6.846c1.11,0,2.01-0.902,2.01-2.013c0-1.109-0.9-2.008-2.01-2.008h-0.538
		l1.614-17.845c4.36,2.508,9.111,4.228,14.099,5.091L61.391,118.417z M80.225,104.835L64.189,88.798l2.422-2.426l2.523-2.524
		L87.13,65.853l3.942,3.944L72.136,88.736L84.23,100.83L80.225,104.835z"/>
</g>
</svg>
