<?xml version="1.0" encoding="utf-8"?>
<!-- Generator: Adobe Illustrator 18.1.1, SVG Export Plug-In . SVG Version: 6.00 Build 0)  -->
<svg version="1.1" id="Layer_1" xmlns="http://www.w3.org/2000/svg" xmlns:xlink="http://www.w3.org/1999/xlink" x="0px" y="0px"
	 viewBox="0 0 800 600" enable-background="new 0 0 800 600" xml:space="preserve">
<g>
	<g>
		<g>
			<g>
				<path fill="#404041" d="M402.2,493h305.5c1.3-2.9,2-6,2-9.2V110.1c0-12.7-10.7-23-23.8-23H111.4c-13.2,0-23.8,10.4-23.8,23
					v373.7c0,3.3,0.7,6.5,2.1,9.2h308.8H402.2z"/>
				<rect x="119" y="116.5" fill="#58595B" width="562.1" height="338.1"/>
				<path fill="#929497" d="M404.6,104.8c0-2.4-2.1-4.4-4.6-4.4c-2.5,0-4.6,2-4.6,4.4s2.1,4.5,4.6,4.5
					C402.7,109.3,404.6,107.2,404.6,104.8z"/>
				<path fill="#D0D2D3" d="M707.6,493H402.2h-3.8H89.6H18.7v4.4h73.7h273.9c18.7,0,27.8,0,32.2,0c3.1,0,3.8,0,3.8,0
					c4.4,0,13.5,0,32.1,0H705h77V493H707.6z"/>
				<path fill="#BBBDBF" d="M461.2,493c0,0-0.5,4.4-15,4.4h-98.1c-14.5,0-15-4.4-15-4.4"/>
				<path fill="#E6E7E8" d="M781.9,497.5c0,0-31.3,11.8-124.3,11.8s-257,0-257,0h1.6c0,0-166,0-259,0S18.8,497.5,18.8,497.5"/>
			</g>
			<rect x="119.2" y="115.9" fill="#49B78D" width="562.1" height="46.4"/>
			<rect x="119.2" y="161" fill="#FFFFFF" width="562.1" height="293.9"/>
			<circle fill="#FFFFFF" cx="153.5" cy="138.7" r="14"/>
			<g>
				<path fill="#FFFFFF" d="M581.9,139.1c0,3.8-4.2,6.9-9.4,6.9h-16.4c-5.1,0-9.4-3.1-9.4-6.9s4.2-6.9,9.4-6.9h16.4
					C577.8,132.2,581.9,135.3,581.9,139.1z"/>
				<path fill="#FFFFFF" d="M539.2,139.1c0,3.8-4.2,6.9-9.4,6.9h-16.4c-5.1,0-9.4-3.1-9.4-6.9s4.2-6.9,9.4-6.9h16.4
					C535.1,132.2,539.2,135.3,539.2,139.1z"/>
				<path fill="#FFFFFF" d="M624.5,139.1c0,3.8-4.2,6.9-9.4,6.9h-16.4c-5.1,0-9.4-3.1-9.4-6.9s4.2-6.9,9.4-6.9h16.5
					C620.4,132.2,624.5,135.3,624.5,139.1z"/>
				<path fill="#FFFFFF" d="M667.2,139.1c0,3.8-4.2,6.9-9.4,6.9h-16.4c-5.1,0-9.4-3.1-9.4-6.9s4.2-6.9,9.4-6.9h16.4
					C663.1,132.2,667.2,135.3,667.2,139.1z"/>
			</g>
			<g>
				<g>
					<defs>
						<rect id="SVGID_1_" x="119.2" y="163.3" width="562.1" height="291.5"/>
					</defs>
					<clipPath id="SVGID_2_">
						<use xlink:href="#SVGID_1_"  overflow="visible"/>
					</clipPath>
					<g clip-path="url(#SVGID_2_)">
						<g>
							<rect x="139.6" y="174.9" fill="#3FACCF" width="61.6" height="39.8"/>
						</g>
						<g>
							<g>
								<path fill="#DCDCDC" d="M287,181.1h-73c-1.7,0-3.1,0-3.1-1.7s1.4-1.7,3.1-1.7h73c1.7,0,3.1,0,3.1,1.7S288.7,181.1,287,181.1
									z"/>
							</g>
							<g>
								<path fill="#DCDCDC" d="M276.1,197.3H214c-1.7,0-3.1-1.7-3.1-3.5c0-1.7,1.4-3.5,3.1-3.5h62.1c1.7,0,3.1,1.7,3.1,3.5
									C279.2,195.5,277.9,197.3,276.1,197.3z"/>
							</g>
							<g>
								<path fill="#DCDCDC" d="M255.9,211.1H214c-1.7,0-3.1-0.6-3.1-2.3s1.4-2.3,3.1-2.3h41.9c1.7,0,3.1,0.6,3.1,2.3
									S257.7,211.1,255.9,211.1z"/>
							</g>
						</g>
						<g>
							<rect x="139.6" y="237.3" fill="#6E5F8C" width="61.6" height="39.8"/>
						</g>
						<g>
							<g>
								<path fill="#DCDCDC" d="M287,245.7h-73c-1.7,0-3.1-1.7-3.1-3.5c0-1.7,1.4-3.5,3.1-3.5h73c1.7,0,3.1,1.7,3.1,3.5
									C290.1,244,288.7,245.7,287,245.7z"/>
							</g>
							<g>
								<path fill="#DCDCDC" d="M276.1,258.4H214c-1.7,0-3.1-0.6-3.1-2.3s1.4-2.3,3.1-2.3h62.1c1.7,0,3.1,0.6,3.1,2.3
									S277.9,258.4,276.1,258.4z"/>
							</g>
							<g>
								<path fill="#DCDCDC" d="M255.9,272.3H214c-1.7,0-3.1-1.2-3.1-2.9c0-1.7,1.4-2.9,3.1-2.9h41.9c1.7,0,3.1,1.2,3.1,2.9
									C259,271.1,257.7,272.3,255.9,272.3z"/>
							</g>
						</g>
						<g>
							<rect x="139.6" y="299.8" fill="#E0AA2E" width="61.6" height="39.8"/>
						</g>
						<g>
							<g>
								<path fill="#DCDCDC" d="M287,308.1h-73c-1.7,0-3.1-1.7-3.1-3.5s1.4-3.5,3.1-3.5h73c1.7,0,3.1,1.7,3.1,3.5
									S288.7,308.1,287,308.1z"/>
							</g>
							<g>
								<path fill="#DCDCDC" d="M276.1,321.9H214c-1.7,0-3.1-0.6-3.1-2.3s1.4-2.3,3.1-2.3h62.1c1.7,0,3.1,0.6,3.1,2.3
									S277.9,321.9,276.1,321.9z"/>
							</g>
							<g>
								<path fill="#DCDCDC" d="M255.9,338.1H214c-1.7,0-3.1-1.7-3.1-3.5c0-1.7,1.4-3.5,3.1-3.5h41.9c1.7,0,3.1,1.7,3.1,3.5
									C259,336.4,257.7,338.1,255.9,338.1z"/>
							</g>
						</g>
						<g>
							<rect x="139.6" y="362.2" fill="#E0545C" width="61.6" height="39.8"/>
						</g>
						<g>
							<g>
								<path fill="#DCDCDC" d="M287,371.6h-73c-1.7,0-3.1-1.7-3.1-3.5s1.4-3.5,3.1-3.5h73c1.7,0,3.1,1.7,3.1,3.5
									S288.7,371.6,287,371.6z"/>
							</g>
							<g>
								<path fill="#DCDCDC" d="M276.1,386.6H214c-1.7,0-3.1-2.3-3.1-4c0-1.7,1.4-4,3.1-4h62.1c1.7,0,3.1,2.3,3.1,4
									C279.2,384.3,277.9,386.6,276.1,386.6z"/>
							</g>
							<g>
								<path fill="#DCDCDC" d="M255.9,398.1H214c-1.7,0-3.1-1.7-3.1-3.5s1.4-3.5,3.1-3.5h41.9c1.7,0,3.1,1.7,3.1,3.5
									S257.7,398.1,255.9,398.1z"/>
							</g>
						</g>
						<g>
							<rect x="139.6" y="424.7" fill="#2E6F97" width="61.6" height="39.8"/>
						</g>
						<g>
							<g>
								<path fill="#DCDCDC" d="M287,432.8h-73c-1.7,0-3.1-0.6-3.1-2.3s1.4-2.3,3.1-2.3h73c1.7,0,3.1,0.6,3.1,2.3
									S288.7,432.8,287,432.8z"/>
							</g>
							<g>
								<path fill="#DCDCDC" d="M276.1,446.6H214c-1.7,0-3.1-1.7-3.1-3.5s1.4-3.5,3.1-3.5h62.1c1.7,0,3.1,1.7,3.1,3.5
									S277.9,446.6,276.1,446.6z"/>
							</g>
							<g>
								<path fill="#DCDCDC" d="M255.9,461.6H214c-1.7,0-3.1-2.3-3.1-4s1.4-4,3.1-4h41.9c1.7,0,3.1,2.3,3.1,4
									S257.7,461.6,255.9,461.6z"/>
							</g>
						</g>
						<g>
							<rect x="329.7" y="174.9" fill="#8F3E51" width="61.6" height="39.8"/>
						</g>
						<g>
							<g>
								<path fill="#DCDCDC" d="M477.8,181.1h-73c-1.7,0-3.1,0-3.1-1.7s1.4-1.7,3.1-1.7h73c1.7,0,3.1,0,3.1,1.7
									S479.5,181.1,477.8,181.1z"/>
							</g>
							<g>
								<path fill="#DCDCDC" d="M467,197.3h-62.1c-1.7,0-3.1-1.7-3.1-3.5c0-1.7,1.4-3.5,3.1-3.5H467c1.7,0,3.1,1.7,3.1,3.5
									C470.1,195.5,468.7,197.3,467,197.3z"/>
							</g>
							<g>
								<path fill="#DCDCDC" d="M446.8,211.1h-41.9c-1.7,0-3.1-0.6-3.1-2.3s1.4-2.3,3.1-2.3h41.9c1.7,0,3.1,0.6,3.1,2.3
									S448.5,211.1,446.8,211.1z"/>
							</g>
						</g>
						<g>
							<rect x="329.7" y="237.3" fill="#2E6F97" width="61.6" height="39.8"/>
						</g>
						<g>
							<g>
								<path fill="#DCDCDC" d="M477.8,245.7h-73c-1.7,0-3.1-1.7-3.1-3.5c0-1.7,1.4-3.5,3.1-3.5h73c1.7,0,3.1,1.7,3.1,3.5
									C480.9,244,479.5,245.7,477.8,245.7z"/>
							</g>
							<g>
								<path fill="#DCDCDC" d="M467,258.4h-62.1c-1.7,0-3.1-0.6-3.1-2.3s1.4-2.3,3.1-2.3H467c1.7,0,3.1,0.6,3.1,2.3
									S468.7,258.4,467,258.4z"/>
							</g>
							<g>
								<path fill="#DCDCDC" d="M446.8,272.3h-41.9c-1.7,0-3.1-1.2-3.1-2.9c0-1.7,1.4-2.9,3.1-2.9h41.9c1.7,0,3.1,1.2,3.1,2.9
									C449.9,271.1,448.5,272.3,446.8,272.3z"/>
							</g>
						</g>
						<g>
							<rect x="329.7" y="299.8" fill="#57BBB4" width="61.6" height="39.8"/>
						</g>
						<g>
							<g>
								<path fill="#DCDCDC" d="M477.8,308.1h-73c-1.7,0-3.1-1.7-3.1-3.5s1.4-3.5,3.1-3.5h73c1.7,0,3.1,1.7,3.1,3.5
									S479.5,308.1,477.8,308.1z"/>
							</g>
							<g>
								<path fill="#DCDCDC" d="M467,321.9h-62.1c-1.7,0-3.1-0.6-3.1-2.3s1.4-2.3,3.1-2.3H467c1.7,0,3.1,0.6,3.1,2.3
									S468.7,321.9,467,321.9z"/>
							</g>
							<g>
								<path fill="#DCDCDC" d="M446.8,338.1h-41.9c-1.7,0-3.1-1.7-3.1-3.5c0-1.7,1.4-3.5,3.1-3.5h41.9c1.7,0,3.1,1.7,3.1,3.5
									C449.9,336.4,448.5,338.1,446.8,338.1z"/>
							</g>
						</g>
						<g>
							<rect x="329.7" y="362.2" fill="#3FACCF" width="61.6" height="39.8"/>
						</g>
						<g>
							<g>
								<path fill="#DCDCDC" d="M477.8,371.6h-73c-1.7,0-3.1-1.7-3.1-3.5s1.4-3.5,3.1-3.5h73c1.7,0,3.1,1.7,3.1,3.5
									S479.5,371.6,477.8,371.6z"/>
							</g>
							<g>
								<path fill="#DCDCDC" d="M467,386.6h-62.1c-1.7,0-3.1-2.3-3.1-4c0-1.7,1.4-4,3.1-4H467c1.7,0,3.1,2.3,3.1,4
									C470.1,384.3,468.7,386.6,467,386.6z"/>
							</g>
							<g>
								<path fill="#DCDCDC" d="M446.8,398.1h-41.9c-1.7,0-3.1-1.7-3.1-3.5s1.4-3.5,3.1-3.5h41.9c1.7,0,3.1,1.7,3.1,3.5
									S448.5,398.1,446.8,398.1z"/>
							</g>
						</g>
						<g>
							<rect x="329.7" y="424.7" fill="#F88461" width="61.6" height="39.8"/>
						</g>
						<g>
							<g>
								<path fill="#DCDCDC" d="M477.8,432.8h-73c-1.7,0-3.1-0.6-3.1-2.3s1.4-2.3,3.1-2.3h73c1.7,0,3.1,0.6,3.1,2.3
									S479.5,432.8,477.8,432.8z"/>
							</g>
							<g>
								<path fill="#DCDCDC" d="M467,446.6h-62.1c-1.7,0-3.1-1.7-3.1-3.5s1.4-3.5,3.1-3.5H467c1.7,0,3.1,1.7,3.1,3.5
									S468.7,446.6,467,446.6z"/>
							</g>
							<g>
								<path fill="#DCDCDC" d="M446.8,461.6h-41.9c-1.7,0-3.1-2.3-3.1-4s1.4-4,3.1-4h41.9c1.7,0,3.1,2.3,3.1,4
									S448.5,461.6,446.8,461.6z"/>
							</g>
						</g>
						<g>
							<rect x="519.8" y="174.9" fill="#F88461" width="61.6" height="39.8"/>
						</g>
						<g>
							<g>
								<path fill="#DCDCDC" d="M667.1,181.1h-73c-1.7,0-3.1,0-3.1-1.7s1.4-1.7,3.1-1.7h73c1.7,0,3.1,0,3.1,1.7
									S668.9,181.1,667.1,181.1z"/>
							</g>
							<g>
								<path fill="#DCDCDC" d="M656.3,197.3h-62.1c-1.7,0-3.1-1.7-3.1-3.5c0-1.7,1.4-3.5,3.1-3.5h62.1c1.7,0,3.1,1.7,3.1,3.5
									C659.4,195.5,658,197.3,656.3,197.3z"/>
							</g>
							<g>
								<path fill="#DCDCDC" d="M636.1,211.1h-41.9c-1.7,0-3.1-0.6-3.1-2.3s1.4-2.3,3.1-2.3h41.9c1.7,0,3.1,0.6,3.1,2.3
									S637.8,211.1,636.1,211.1z"/>
							</g>
						</g>
						<g>
							<rect x="519.8" y="237.3" fill="#E0545C" width="61.6" height="39.8"/>
						</g>
						<g>
							<g>
								<path fill="#DCDCDC" d="M667.1,245.7h-73c-1.7,0-3.1-1.7-3.1-3.5c0-1.7,1.4-3.5,3.1-3.5h73c1.7,0,3.1,1.7,3.1,3.5
									C670.2,244,668.9,245.7,667.1,245.7z"/>
							</g>
							<g>
								<path fill="#DCDCDC" d="M656.3,258.4h-62.1c-1.7,0-3.1-0.6-3.1-2.3s1.4-2.3,3.1-2.3h62.1c1.7,0,3.1,0.6,3.1,2.3
									S658,258.4,656.3,258.4z"/>
							</g>
							<g>
								<path fill="#DCDCDC" d="M636.1,272.3h-41.9c-1.7,0-3.1-1.2-3.1-2.9c0-1.7,1.4-2.9,3.1-2.9h41.9c1.7,0,3.1,1.2,3.1,2.9
									C639.2,271.1,637.8,272.3,636.1,272.3z"/>
							</g>
						</g>
						<g>
							<rect x="519.8" y="299.8" fill="#6F5E90" width="61.6" height="39.8"/>
						</g>
						<g>
							<g>
								<path fill="#DCDCDC" d="M667.1,308.1h-73c-1.7,0-3.1-1.7-3.1-3.5s1.4-3.5,3.1-3.5h73c1.7,0,3.1,1.7,3.1,3.5
									S668.9,308.1,667.1,308.1z"/>
							</g>
							<g>
								<path fill="#DCDCDC" d="M656.3,321.9h-62.1c-1.7,0-3.1-0.6-3.1-2.3s1.4-2.3,3.1-2.3h62.1c1.7,0,3.1,0.6,3.1,2.3
									S658,321.9,656.3,321.9z"/>
							</g>
							<g>
								<path fill="#DCDCDC" d="M636.1,338.1h-41.9c-1.7,0-3.1-1.7-3.1-3.5c0-1.7,1.4-3.5,3.1-3.5h41.9c1.7,0,3.1,1.7,3.1,3.5
									C639.2,336.4,637.8,338.1,636.1,338.1z"/>
							</g>
						</g>
						<g>
							<rect x="519.8" y="362.2" fill="#8F3E51" width="61.6" height="39.8"/>
						</g>
						<g>
							<g>
								<path fill="#DCDCDC" d="M667.1,371.6h-73c-1.7,0-3.1-1.7-3.1-3.5s1.4-3.5,3.1-3.5h73c1.7,0,3.1,1.7,3.1,3.5
									S668.9,371.6,667.1,371.6z"/>
							</g>
							<g>
								<path fill="#DCDCDC" d="M656.3,386.6h-62.1c-1.7,0-3.1-2.3-3.1-4c0-1.7,1.4-4,3.1-4h62.1c1.7,0,3.1,2.3,3.1,4
									C659.4,384.3,658,386.6,656.3,386.6z"/>
							</g>
							<g>
								<path fill="#DCDCDC" d="M636.1,398.1h-41.9c-1.7,0-3.1-1.7-3.1-3.5s1.4-3.5,3.1-3.5h41.9c1.7,0,3.1,1.7,3.1,3.5
									S637.8,398.1,636.1,398.1z"/>
							</g>
						</g>
						<g>
							<rect x="519.8" y="424.7" fill="#E0AA2E" width="61.6" height="39.8"/>
						</g>
						<g>
							<g>
								<path fill="#DCDCDC" d="M667.1,432.8h-73c-1.7,0-3.1-0.6-3.1-2.3s1.4-2.3,3.1-2.3h73c1.7,0,3.1,0.6,3.1,2.3
									S668.9,432.8,667.1,432.8z"/>
							</g>
							<g>
								<path fill="#DCDCDC" d="M656.3,446.6h-62.1c-1.7,0-3.1-1.7-3.1-3.5s1.4-3.5,3.1-3.5h62.1c1.7,0,3.1,1.7,3.1,3.5
									S658,446.6,656.3,446.6z"/>
							</g>
							<g>
								<path fill="#DCDCDC" d="M636.1,461.6h-41.9c-1.7,0-3.1-2.3-3.1-4s1.4-4,3.1-4h41.9c1.7,0,3.1,2.3,3.1,4
									S637.8,461.6,636.1,461.6z"/>
							</g>
						</g>
					</g>
				</g>
			</g>
		</g>
		<g>
			<g>
				<g>
					<defs>
						<circle id="SVGID_3_" cx="641.6" cy="280.7" r="132.6"/>
					</defs>
					<clipPath id="SVGID_4_">
						<use xlink:href="#SVGID_3_"  overflow="visible"/>
					</clipPath>
					<g clip-path="url(#SVGID_4_)">
						<g>
							<g>
								<path fill="#404041" d="M323.3,716h548.3c2.3-5.1,3.6-10.7,3.6-16.6V28.4c0-22.7-19.2-41.3-42.7-41.3H-198.9
									c-23.5,0-42.7,18.6-42.7,41.3v671.1c0,5.9,1.3,11.5,3.7,16.6h554.3H323.3z"/>
							</g>
							<g>
								<rect x="-185.2" y="39.8" fill="#58595B" width="1009.3" height="607.1"/>
							</g>
							<g>
								<path fill="#929497" d="M327.7,18.9c0-4.4-3.7-8-8.2-8s-8.2,3.6-8.2,8s3.7,8,8.2,8C324.2,26.9,327.7,23.3,327.7,18.9z"/>
							</g>
							<g>
								<path fill="#D0D2D3" d="M871.7,716H323.3h-6.9h-554.3h-127.3v8h132.1h491.9c33.5,0,49.9,0,57.7,0c5.7,0,6.9,0,6.9,0
									c7.8,0,24.2,0,57.7,0h485.8H1005v-8H871.7z"/>
							</g>
							<g>
								<path fill="#BBBDBF" d="M429.3,716c0,0-0.8,8-26.9,8H226.3c-26.1,0-26.9-8-26.9-8"/>
							</g>
							<g>
								<path fill="#E6E7E8" d="M1005,724c0,0-56.2,21.1-223.3,21.1s-461.5,0-461.5,0h2.9c0,0-298.2,0-465.2,0S-365.4,724-365.4,724
									"/>
							</g>
						</g>
						<g>
							<rect x="-184.7" y="38.9" fill="#49B78D" width="1009.3" height="83.2"/>
						</g>
						<g>
							<rect x="-184.7" y="119.8" fill="#FFFFFF" width="1009.3" height="527.7"/>
						</g>
						<g>
							<circle fill="#FFFFFF" cx="-123.2" cy="79.9" r="25.1"/>
						</g>
						<g>
							<g>
								<path fill="#FFFFFF" d="M646,80.4c0,6.9-7.5,12.6-16.7,12.6h-29.4c-9.2,0-16.7-5.7-16.7-12.6S590.7,68,599.9,68h29.4
									C638.5,68,646,73.6,646,80.4z"/>
							</g>
							<g>
								<path fill="#FFFFFF" d="M569.5,80.4c0,6.9-7.5,12.6-16.7,12.6h-29.4c-9.2,0-16.7-5.7-16.7-12.6S514.2,68,523.4,68h29.4
									C562,68,569.5,73.6,569.5,80.4z"/>
							</g>
							<g>
								<path fill="#FFFFFF" d="M722.7,80.4c0,6.9-7.5,12.6-16.7,12.6h-29.4c-9.2,0-16.7-5.7-16.7-12.6S667.4,68,676.5,68h29.4
									C715.2,68,722.7,73.6,722.7,80.4z"/>
							</g>
							<g>
								<path fill="#FFFFFF" d="M799.2,80.4c0,6.9-7.5,12.6-16.7,12.6H753c-9.2,0-16.7-5.7-16.7-12.6S743.9,68,753.1,68h29.4
									C791.7,68,799.2,73.6,799.2,80.4z"/>
							</g>
						</g>
						<g>
							<g>
								<defs>
									<rect id="SVGID_5_" x="-184.7" y="124.1" width="1009.3" height="523.5"/>
								</defs>
								<clipPath id="SVGID_6_">
									<use xlink:href="#SVGID_5_"  overflow="visible"/>
								</clipPath>
								<g clip-path="url(#SVGID_6_)">
									<g>
										<g>
											<rect x="-148.2" y="144.7" fill="#3FACCF" width="110.7" height="71.5"/>
										</g>
									</g>
									<g>
										<g>
											<g>
												<path fill="#DCDCDC" d="M116.5,161.5h-131c-3.1,0-5.5-4.4-5.5-7.5c0-3.1,2.5-7.5,5.5-7.5h130.9c3.1,0,5.5,4.4,5.5,7.5
													C121.9,157.1,119.5,161.5,116.5,161.5z"/>
											</g>
										</g>
										<g>
											<g>
												<path fill="#DCDCDC" d="M97,186.9H-14.5c-3.1,0-5.5-3.2-5.5-6.3c0-3.1,2.5-6.3,5.5-6.3H97c3.1,0,5.5,3.2,5.5,6.3
													C102.5,183.6,100,186.9,97,186.9z"/>
											</g>
										</g>
										<g>
											<g>
												<path fill="#DCDCDC" d="M60.7,207.6h-75.3c-3.1,0-5.5-1.5-5.5-4.6s2.5-4.6,5.5-4.6h75.3c3.1,0,5.5,1.5,5.5,4.6
													S63.8,207.6,60.7,207.6z"/>
											</g>
										</g>
									</g>
									<g>
										<g>
											<rect x="-148.2" y="256.9" fill="#6E5F8C" width="110.7" height="71.5"/>
										</g>
									</g>
									<g>
										<g>
											<g>
												<path fill="#DCDCDC" d="M116.5,272.3h-131c-3.1,0-5.5-3.8-5.5-6.9c0-3.1,2.5-6.9,5.5-6.9h130.9c3.1,0,5.5,3.8,5.5,6.9
													C121.9,268.5,119.5,272.3,116.5,272.3z"/>
											</g>
										</g>
										<g>
											<g>
												<path fill="#DCDCDC" d="M97,297.7H-14.5c-3.1,0-5.5-3.2-5.5-6.3c0-3.1,2.5-6.3,5.5-6.3H97c3.1,0,5.5,3.2,5.5,6.3
													C102.5,294.5,100,297.7,97,297.7z"/>
											</g>
										</g>
										<g>
											<g>
												<path fill="#DCDCDC" d="M60.7,320.8h-75.3c-3.1,0-5.5-1.5-5.5-4.6s2.5-4.6,5.5-4.6h75.3c3.1,0,5.5,1.5,5.5,4.6
													S63.8,320.8,60.7,320.8z"/>
											</g>
										</g>
									</g>
									<g>
										<g>
											<rect x="-148.2" y="369" fill="#E0AA2E" width="110.7" height="71.5"/>
										</g>
									</g>
									<g>
										<g>
											<g>
												<path fill="#DCDCDC" d="M116.5,386.6h-131c-3.1,0-5.5-2.7-5.5-5.8c0-3.1,2.5-5.8,5.5-5.8h130.9c3.1,0,5.5,2.7,5.5,5.8
													C121.9,383.9,119.5,386.6,116.5,386.6z"/>
											</g>
										</g>
										<g>
											<g>
												<path fill="#DCDCDC" d="M97,410.8H-14.5c-3.1,0-5.5-3.2-5.5-6.3c0-3.1,2.5-6.3,5.5-6.3H97c3.1,0,5.5,3.2,5.5,6.3
													C102.5,407.6,100,410.8,97,410.8z"/>
											</g>
										</g>
										<g>
											<g>
												<path fill="#DCDCDC" d="M60.7,436.2h-75.3c-3.1,0-5.5-0.9-5.5-4c0-3.1,2.5-4,5.5-4h75.3c3.1,0,5.5,0.9,5.5,4
													C66.3,435.3,63.8,436.2,60.7,436.2z"/>
											</g>
										</g>
									</g>
									<g>
										<g>
											<rect x="-148.2" y="481.2" fill="#E0545C" width="110.7" height="71.5"/>
										</g>
									</g>
									<g>
										<g>
											<g>
												<path fill="#DCDCDC" d="M116.5,497.4h-131c-3.1,0-5.5-1.5-5.5-4.6c0-3.1,2.5-4.6,5.5-4.6h130.9c3.1,0,5.5,1.5,5.5,4.6
													C121.9,495.9,119.5,497.4,116.5,497.4z"/>
											</g>
										</g>
										<g>
											<g>
												<path fill="#DCDCDC" d="M97,522.8H-14.5c-3.1,0-5.5-2.7-5.5-5.8c0-3.1,2.5-5.8,5.5-5.8H97c3.1,0,5.5,2.7,5.5,5.8
													C102.5,520.1,100,522.8,97,522.8z"/>
											</g>
										</g>
										<g>
											<g>
												<path fill="#DCDCDC" d="M60.7,547h-75.3c-3.1,0-5.5-2.1-5.5-5.2s2.5-5.2,5.5-5.2h75.3c3.1,0,5.5,2.1,5.5,5.2
													S63.8,547,60.7,547z"/>
											</g>
										</g>
									</g>
									<g>
										<g>
											<rect x="-148.2" y="593.3" fill="#2E6F97" width="110.7" height="71.5"/>
										</g>
									</g>
									<g>
										<g>
											<g>
												<path fill="#DCDCDC" d="M116.5,609.4h-131c-3.1,0-5.5-2.7-5.5-5.8c0-3.1,2.5-5.8,5.5-5.8h130.9c3.1,0,5.5,2.7,5.5,5.8
													C121.9,606.7,119.5,609.4,116.5,609.4z"/>
											</g>
										</g>
										<g>
											<g>
												<path fill="#DCDCDC" d="M97,631.3H-14.5c-3.1,0-5.5-1.5-5.5-4.6c0-3.1,2.5-4.6,5.5-4.6H97c3.1,0,5.5,1.5,5.5,4.6
													C102.5,629.8,100,631.3,97,631.3z"/>
											</g>
										</g>
										<g>
											<g>
												<path fill="#DCDCDC" d="M60.7,659h-75.3c-3.1,0-5.5-2.7-5.5-5.8s2.5-5.8,5.5-5.8h75.3c3.1,0,5.5,2.7,5.5,5.8
													S63.8,659,60.7,659z"/>
											</g>
										</g>
									</g>
									<g>
										<g>
											<rect x="193.1" y="144.7" fill="#8F3E51" width="110.7" height="71.5"/>
										</g>
									</g>
									<g>
										<g>
											<g>
												<path fill="#DCDCDC" d="M459.2,161.5h-131c-3.1,0-5.5-4.4-5.5-7.5c0-3.1,2.5-7.5,5.5-7.5h130.9c3.1,0,5.5,4.4,5.5,7.5
													C464.6,157.1,462.2,161.5,459.2,161.5z"/>
											</g>
										</g>
										<g>
											<g>
												<path fill="#DCDCDC" d="M439.7,186.9H328.2c-3.1,0-5.5-3.2-5.5-6.3c0-3.1,2.5-6.3,5.5-6.3h111.5c3.1,0,5.5,3.2,5.5,6.3
													C445.3,183.6,442.7,186.9,439.7,186.9z"/>
											</g>
										</g>
										<g>
											<g>
												<path fill="#DCDCDC" d="M403.5,207.6h-75.3c-3.1,0-5.5-1.5-5.5-4.6s2.5-4.6,5.5-4.6h75.3c3.1,0,5.5,1.5,5.5,4.6
													S406.5,207.6,403.5,207.6z"/>
											</g>
										</g>
									</g>
									<g>
										<g>
											<rect x="193.1" y="256.9" fill="#2E6F97" width="110.7" height="71.5"/>
										</g>
									</g>
									<g>
										<g>
											<g>
												<path fill="#DCDCDC" d="M459.2,272.3h-131c-3.1,0-5.5-3.8-5.5-6.9c0-3.1,2.5-6.9,5.5-6.9h130.9c3.1,0,5.5,3.8,5.5,6.9
													C464.6,268.5,462.2,272.3,459.2,272.3z"/>
											</g>
										</g>
										<g>
											<g>
												<path fill="#DCDCDC" d="M439.7,297.7H328.2c-3.1,0-5.5-3.2-5.5-6.3c0-3.1,2.5-6.3,5.5-6.3h111.5c3.1,0,5.5,3.2,5.5,6.3
													C445.3,294.5,442.7,297.7,439.7,297.7z"/>
											</g>
										</g>
										<g>
											<g>
												<path fill="#DCDCDC" d="M403.5,320.8h-75.3c-3.1,0-5.5-1.5-5.5-4.6s2.5-4.6,5.5-4.6h75.3c3.1,0,5.5,1.5,5.5,4.6
													S406.5,320.8,403.5,320.8z"/>
											</g>
										</g>
									</g>
									<g>
										<g>
											<rect x="193.1" y="369" fill="#57BBB4" width="110.7" height="71.5"/>
										</g>
									</g>
									<g>
										<g>
											<g>
												<path fill="#DCDCDC" d="M459.2,386.6h-131c-3.1,0-5.5-2.7-5.5-5.8c0-3.1,2.5-5.8,5.5-5.8h130.9c3.1,0,5.5,2.7,5.5,5.8
													C464.6,383.9,462.2,386.6,459.2,386.6z"/>
											</g>
										</g>
										<g>
											<g>
												<path fill="#DCDCDC" d="M439.7,410.8H328.2c-3.1,0-5.5-3.2-5.5-6.3c0-3.1,2.5-6.3,5.5-6.3h111.5c3.1,0,5.5,3.2,5.5,6.3
													C445.3,407.6,442.7,410.8,439.7,410.8z"/>
											</g>
										</g>
										<g>
											<g>
												<path fill="#DCDCDC" d="M403.5,436.2h-75.3c-3.1,0-5.5-0.9-5.5-4c0-3.1,2.5-4,5.5-4h75.3c3.1,0,5.5,0.9,5.5,4
													C409,435.3,406.5,436.2,403.5,436.2z"/>
											</g>
										</g>
									</g>
									<g>
										<g>
											<rect x="193.1" y="481.2" fill="#3FACCF" width="110.7" height="71.5"/>
										</g>
									</g>
									<g>
										<g>
											<g>
												<path fill="#DCDCDC" d="M459.2,497.4h-131c-3.1,0-5.5-1.5-5.5-4.6c0-3.1,2.5-4.6,5.5-4.6h130.9c3.1,0,5.5,1.5,5.5,4.6
													C464.6,495.9,462.2,497.4,459.2,497.4z"/>
											</g>
										</g>
										<g>
											<g>
												<path fill="#DCDCDC" d="M439.7,522.8H328.2c-3.1,0-5.5-2.7-5.5-5.8c0-3.1,2.5-5.8,5.5-5.8h111.5c3.1,0,5.5,2.7,5.5,5.8
													C445.3,520.1,442.7,522.8,439.7,522.8z"/>
											</g>
										</g>
										<g>
											<g>
												<path fill="#DCDCDC" d="M403.5,547h-75.3c-3.1,0-5.5-2.1-5.5-5.2s2.5-5.2,5.5-5.2h75.3c3.1,0,5.5,2.1,5.5,5.2
													S406.5,547,403.5,547z"/>
											</g>
										</g>
									</g>
									<g>
										<g>
											<rect x="193.1" y="593.3" fill="#F88461" width="110.7" height="71.5"/>
										</g>
									</g>
									<g>
										<g>
											<g>
												<path fill="#DCDCDC" d="M459.2,609.4h-131c-3.1,0-5.5-2.7-5.5-5.8c0-3.1,2.5-5.8,5.5-5.8h130.9c3.1,0,5.5,2.7,5.5,5.8
													C464.6,606.7,462.2,609.4,459.2,609.4z"/>
											</g>
										</g>
										<g>
											<g>
												<path fill="#DCDCDC" d="M439.7,631.3H328.2c-3.1,0-5.5-1.5-5.5-4.6c0-3.1,2.5-4.6,5.5-4.6h111.5c3.1,0,5.5,1.5,5.5,4.6
													C445.3,629.8,442.7,631.3,439.7,631.3z"/>
											</g>
										</g>
										<g>
											<g>
												<path fill="#DCDCDC" d="M403.5,659h-75.3c-3.1,0-5.5-2.7-5.5-5.8s2.5-5.8,5.5-5.8h75.3c3.1,0,5.5,2.7,5.5,5.8
													S406.5,659,403.5,659z"/>
											</g>
										</g>
									</g>
									<g>
										<g>
											<rect x="534.5" y="144.7" fill="#F88461" width="110.7" height="71.5"/>
										</g>
									</g>
									<g>
										<g>
											<g>
												<path fill="#DCDCDC" d="M799.1,161.5H668.2c-3.1,0-5.5-4.4-5.5-7.5c0-3.1,2.5-7.5,5.5-7.5h130.9c3.1,0,5.5,4.4,5.5,7.5
													C804.6,157.1,802.2,161.5,799.1,161.5z"/>
											</g>
										</g>
										<g>
											<g>
												<path fill="#DCDCDC" d="M779.6,186.9H668.1c-3.1,0-5.5-3.2-5.5-6.3c0-3.1,2.5-6.3,5.5-6.3h111.5c3.1,0,5.5,3.2,5.5,6.3
													C785.1,183.6,782.7,186.9,779.6,186.9z"/>
											</g>
										</g>
										<g>
											<g>
												<path fill="#DCDCDC" d="M743.4,207.6h-75.3c-3.1,0-5.5-1.5-5.5-4.6s2.5-4.6,5.5-4.6h75.3c3.1,0,5.5,1.5,5.5,4.6
													S746.4,207.6,743.4,207.6z"/>
											</g>
										</g>
									</g>
									<g>
										<g>
											<rect x="534.5" y="256.9" fill="#E0545C" width="110.7" height="71.5"/>
										</g>
									</g>
									<g>
										<g>
											<g>
												<path fill="#DCDCDC" d="M799.1,272.3H668.2c-3.1,0-5.5-3.8-5.5-6.9c0-3.1,2.5-6.9,5.5-6.9h130.9c3.1,0,5.5,3.8,5.5,6.9
													C804.6,268.5,802.2,272.3,799.1,272.3z"/>
											</g>
										</g>
										<g>
											<g>
												<path fill="#DCDCDC" d="M779.6,297.7H668.1c-3.1,0-5.5-3.2-5.5-6.3c0-3.1,2.5-6.3,5.5-6.3h111.5c3.1,0,5.5,3.2,5.5,6.3
													C785.1,294.5,782.7,297.7,779.6,297.7z"/>
											</g>
										</g>
										<g>
											<g>
												<path fill="#DCDCDC" d="M743.4,320.8h-75.3c-3.1,0-5.5-1.5-5.5-4.6s2.5-4.6,5.5-4.6h75.3c3.1,0,5.5,1.5,5.5,4.6
													S746.4,320.8,743.4,320.8z"/>
											</g>
										</g>
									</g>
									<g>
										<g>
											<rect x="534.5" y="369" fill="#6F5E90" width="110.7" height="71.5"/>
										</g>
									</g>
									<g>
										<g>
											<g>
												<path fill="#DCDCDC" d="M799.1,386.6H668.2c-3.1,0-5.5-2.7-5.5-5.8c0-3.1,2.5-5.8,5.5-5.8h130.9c3.1,0,5.5,2.7,5.5,5.8
													C804.6,383.9,802.2,386.6,799.1,386.6z"/>
											</g>
										</g>
										<g>
											<g>
												<path fill="#DCDCDC" d="M779.6,410.8H668.1c-3.1,0-5.5-3.2-5.5-6.3c0-3.1,2.5-6.3,5.5-6.3h111.5c3.1,0,5.5,3.2,5.5,6.3
													C785.1,407.6,782.7,410.8,779.6,410.8z"/>
											</g>
										</g>
										<g>
											<g>
												<path fill="#DCDCDC" d="M743.4,436.2h-75.3c-3.1,0-5.5-0.9-5.5-4c0-3.1,2.5-4,5.5-4h75.3c3.1,0,5.5,0.9,5.5,4
													C749,435.3,746.4,436.2,743.4,436.2z"/>
											</g>
										</g>
									</g>
									<g>
										<g>
											<rect x="534.5" y="481.2" fill="#8F3E51" width="110.7" height="71.5"/>
										</g>
									</g>
									<g>
										<g>
											<g>
												<path fill="#DCDCDC" d="M799.1,497.4H668.2c-3.1,0-5.5-1.5-5.5-4.6c0-3.1,2.5-4.6,5.5-4.6h130.9c3.1,0,5.5,1.5,5.5,4.6
													C804.6,495.9,802.2,497.4,799.1,497.4z"/>
											</g>
										</g>
										<g>
											<g>
												<path fill="#DCDCDC" d="M779.6,522.8H668.1c-3.1,0-5.5-2.7-5.5-5.8c0-3.1,2.5-5.8,5.5-5.8h111.5c3.1,0,5.5,2.7,5.5,5.8
													C785.1,520.1,782.7,522.8,779.6,522.8z"/>
											</g>
										</g>
										<g>
											<g>
												<path fill="#DCDCDC" d="M743.4,547h-75.3c-3.1,0-5.5-2.1-5.5-5.2s2.5-5.2,5.5-5.2h75.3c3.1,0,5.5,2.1,5.5,5.2
													S746.4,547,743.4,547z"/>
											</g>
										</g>
									</g>
									<g>
										<g>
											<rect x="534.5" y="593.3" fill="#E0AA2E" width="110.7" height="71.5"/>
										</g>
									</g>
									<g>
										<g>
											<g>
												<path fill="#DCDCDC" d="M799.1,609.4H668.2c-3.1,0-5.5-2.7-5.5-5.8c0-3.1,2.5-5.8,5.5-5.8h130.9c3.1,0,5.5,2.7,5.5,5.8
													C804.6,606.7,802.2,609.4,799.1,609.4z"/>
											</g>
										</g>
										<g>
											<g>
												<path fill="#DCDCDC" d="M779.6,631.3H668.1c-3.1,0-5.5-1.5-5.5-4.6c0-3.1,2.5-4.6,5.5-4.6h111.5c3.1,0,5.5,1.5,5.5,4.6
													C785.1,629.8,782.7,631.3,779.6,631.3z"/>
											</g>
										</g>
										<g>
											<g>
												<path fill="#DCDCDC" d="M743.4,659h-75.3c-3.1,0-5.5-2.7-5.5-5.8s2.5-5.8,5.5-5.8h75.3c3.1,0,5.5,2.7,5.5,5.8
													S746.4,659,743.4,659z"/>
											</g>
										</g>
									</g>
								</g>
							</g>
							
								<rect x="522.8" y="237.8" fill="none" stroke="#E0545C" stroke-width="2" stroke-miterlimit="10" width="318" height="110.9"/>
						</g>
					</g>
					<g clip-path="url(#SVGID_4_)">
						<path fill="#EAEAEA" d="M641.6,416.5c-74.9,0-135.8-61-135.8-135.8S566.7,145,641.6,145s135.8,61,135.8,135.8
							S716.4,416.5,641.6,416.5z M641.6,151.2c-71.5,0-129.5,58.2-129.5,129.5s58.2,129.5,129.5,129.5s129.5-58.1,129.5-129.5
							S713,151.2,641.6,151.2z"/>
					</g>
				</g>
			</g>
			<g>
				<g>
					<g>
						<defs>
							<circle id="SVGID_7_" cx="188.6" cy="394.8" r="88.4"/>
						</defs>
						<clipPath id="SVGID_8_">
							<use xlink:href="#SVGID_7_"  overflow="visible"/>
						</clipPath>
						<g clip-path="url(#SVGID_8_)">
							<g>
								<g>
									<path fill="#404041" d="M453.6,534.6h365.3c1.5-3.3,2.4-7.2,2.4-11.1v-447c0-15.1-12.8-27.5-28.5-27.5H105.9
										c-15.7,0-28.5,12.4-28.5,27.5v447c0,3.9,0.9,7.6,2.4,11.1h369.3L453.6,534.6L453.6,534.6z"/>
								</g>
								<g>
									<rect x="115.1" y="84.3" fill="#58595B" width="672.2" height="404.4"/>
								</g>
								<g>
									<path fill="#929497" d="M456.6,70.3c0-2.9-2.4-5.3-5.5-5.3c-3,0-5.4,2.4-5.4,5.3s2.4,5.3,5.4,5.3
										C454.2,75.7,456.6,73.2,456.6,70.3z"/>
								</g>
								<g>
									<path fill="#D0D2D3" d="M818.9,534.6H453.6H449H79.8H-4.9v5.3h88h327.6c22.3,0,33.2,0,38.4,0c3.7,0,4.6,0,4.6,0
										c5.2,0,16.2,0,38.4,0h323.5h92v-5.3H818.9z"/>
								</g>
								<g>
									<path fill="#BBBDBF" d="M524.3,534.6c0,0-0.6,5.3-17.9,5.3H389c-17.3,0-17.9-5.3-17.9-5.3"/>
								</g>
								<g>
									<path fill="#E6E7E8" d="M907.7,540c0,0-37.4,14.1-148.7,14.1s-307.4,0-307.4,0h2c0,0-198.6,0-309.8,0S-5,540-5,540"/>
								</g>
							</g>
							<g>
								<rect x="115.3" y="83.6" fill="#49B78D" width="672.2" height="55.4"/>
							</g>
							<g>
								<rect x="115.3" y="137.5" fill="#FFFFFF" width="672.2" height="351.4"/>
							</g>
							<g>
								<circle fill="#FFFFFF" cx="156.3" cy="111" r="16.7"/>
							</g>
							<g>
								<g>
									<path fill="#FFFFFF" d="M668.6,111.3c0,4.6-5,8.3-11.1,8.3h-19.6c-6.1,0-11.1-3.8-11.1-8.3s5-8.3,11.1-8.3h19.6
										C663.6,103,668.6,106.8,668.6,111.3z"/>
								</g>
								<g>
									<path fill="#FFFFFF" d="M617.6,111.3c0,4.6-5,8.3-11.1,8.3h-19.6c-6.1,0-11.1-3.8-11.1-8.3s5-8.3,11.1-8.3h19.6
										C612.6,103,617.6,106.8,617.6,111.3z"/>
								</g>
								<g>
									<path fill="#FFFFFF" d="M719.6,111.3c0,4.6-5,8.3-11.1,8.3h-19.6c-6.1,0-11.1-3.8-11.1-8.3s5-8.3,11.1-8.3h19.6
										C714.5,103,719.6,106.8,719.6,111.3z"/>
								</g>
								<g>
									<path fill="#FFFFFF" d="M770.6,111.3c0,4.6-5,8.3-11.1,8.3h-19.6c-6.1,0-11.1-3.8-11.1-8.3s5-8.3,11.1-8.3h19.6
										C765.6,103,770.6,106.8,770.6,111.3z"/>
								</g>
							</g>
							<g>
								<g>
									<defs>
										<rect id="SVGID_9_" x="115.3" y="140.4" width="672.2" height="348.6"/>
									</defs>
									<clipPath id="SVGID_10_">
										<use xlink:href="#SVGID_9_"  overflow="visible"/>
									</clipPath>
									<g clip-path="url(#SVGID_10_)">
										<g>
											<g>
												<rect x="139.5" y="154.2" fill="#3FACCF" width="73.8" height="47.6"/>
											</g>
										</g>
										<g>
											<g>
												<g>
													<path fill="#DCDCDC" d="M315.8,165.2h-87.3c-2.1,0-3.7-2.5-3.7-4.6c0-2.1,1.6-4.6,3.7-4.6h87.3c2.1,0,3.7,2.5,3.7,4.6
														C319.5,162.7,317.9,165.2,315.8,165.2z"/>
												</g>
											</g>
											<g>
												<g>
													<path fill="#DCDCDC" d="M302.9,182.6h-74.2c-2.1,0-3.7-2.5-3.7-4.6s1.6-4.6,3.7-4.6h74.2c2.1,0,3.7,2.5,3.7,4.6
														S305,182.6,302.9,182.6z"/>
												</g>
											</g>
											<g>
												<g>
													<path fill="#DCDCDC" d="M278.8,196.4h-50.1c-2.1,0-3.7-0.8-3.7-2.9s1.6-2.9,3.7-2.9h50.1c2.1,0,3.7,0.8,3.7,2.9
														S280.8,196.4,278.8,196.4z"/>
												</g>
											</g>
										</g>
										<g>
											<g>
												<rect x="139.5" y="228.8" fill="#6E5F8C" width="73.8" height="47.6"/>
											</g>
										</g>
										<g>
											<g>
												<g>
													<path fill="#DCDCDC" d="M315.8,239.1h-87.3c-2.1,0-3.7-2.5-3.7-4.6s1.6-4.6,3.7-4.6h87.3c2.1,0,3.7,2.5,3.7,4.6
														S317.9,239.1,315.8,239.1z"/>
												</g>
											</g>
											<g>
												<g>
													<path fill="#DCDCDC" d="M302.9,255.3h-74.2c-2.1,0-3.7-1.4-3.7-3.5s1.6-3.5,3.7-3.5h74.2c2.1,0,3.7,1.4,3.7,3.5
														S305,255.3,302.9,255.3z"/>
												</g>
											</g>
											<g>
												<g>
													<path fill="#DCDCDC" d="M278.8,271.4h-50.1c-2.1,0-3.7-0.8-3.7-2.9c0-2.1,1.6-2.9,3.7-2.9h50.1c2.1,0,3.7,0.8,3.7,2.9
														C282.4,270.6,280.8,271.4,278.8,271.4z"/>
												</g>
											</g>
										</g>
										<g>
											<g>
												<rect x="139.5" y="303.5" fill="#E0AA2E" width="73.8" height="47.6"/>
											</g>
										</g>
										<g>
											<g>
												<g>
													<path fill="#DCDCDC" d="M315.8,315.3h-87.3c-2.1,0-3.7-2-3.7-4c0-2.1,1.6-4,3.7-4h87.3c2.1,0,3.7,2,3.7,4
														C319.5,313.3,317.9,315.3,315.8,315.3z"/>
												</g>
											</g>
											<g>
												<g>
													<path fill="#DCDCDC" d="M302.9,331.5h-74.2c-2.1,0-3.7-2-3.7-4c0-2.1,1.6-4,3.7-4h74.2c2.1,0,3.7,2,3.7,4
														C306.6,329.5,305,331.5,302.9,331.5z"/>
												</g>
											</g>
											<g>
												<g>
													<path fill="#DCDCDC" d="M278.8,348.8h-50.1c-2.1,0-3.7-0.8-3.7-2.9c0-2.1,1.6-2.9,3.7-2.9h50.1c2.1,0,3.7,0.8,3.7,2.9
														C282.4,348,280.8,348.8,278.8,348.8z"/>
												</g>
											</g>
										</g>
										<g>
											<g>
												<rect x="139.5" y="378.2" fill="#E0545C" width="73.8" height="47.6"/>
											</g>
										</g>
										<g>
											<g>
												<g>
													<path fill="#DCDCDC" d="M315.8,389.2h-87.3c-2.1,0-3.7-0.8-3.7-2.9s1.6-2.9,3.7-2.9h87.3c2.1,0,3.7,0.8,3.7,2.9
														S317.9,389.2,315.8,389.2z"/>
												</g>
											</g>
											<g>
												<g>
													<path fill="#DCDCDC" d="M302.9,406.5h-74.2c-2.1,0-3.7-2-3.7-4s1.6-4,3.7-4h74.2c2.1,0,3.7,2,3.7,4
														S305,406.5,302.9,406.5z"/>
												</g>
											</g>
											<g>
												<g>
													<path fill="#DCDCDC" d="M278.8,422.7h-50.1c-2.1,0-3.7-1.4-3.7-3.5c0-2.1,1.6-3.5,3.7-3.5h50.1c2.1,0,3.7,1.4,3.7,3.5
														C282.4,421.3,280.8,422.7,278.8,422.7z"/>
												</g>
											</g>
										</g>
										<g>
											<g>
												<rect x="139.5" y="452.9" fill="#2E6F97" width="73.8" height="47.6"/>
											</g>
										</g>
										<g>
											<g>
												<g>
													<path fill="#DCDCDC" d="M315.8,463.1h-87.3c-2.1,0-3.7-1.4-3.7-3.5s1.6-3.5,3.7-3.5h87.3c2.1,0,3.7,1.4,3.7,3.5
														S317.9,463.1,315.8,463.1z"/>
												</g>
											</g>
											<g>
												<g>
													<path fill="#DCDCDC" d="M302.9,478.1h-74.2c-2.1,0-3.7-0.8-3.7-2.9s1.6-2.9,3.7-2.9h74.2c2.1,0,3.7,0.8,3.7,2.9
														S305,478.1,302.9,478.1z"/>
												</g>
											</g>
											<g>
												<g>
													<path fill="#DCDCDC" d="M278.8,496.5h-50.1c-2.1,0-3.7-2-3.7-4c0-2.1,1.6-4,3.7-4h50.1c2.1,0,3.7,2,3.7,4
														C282.4,494.6,280.8,496.5,278.8,496.5z"/>
												</g>
											</g>
										</g>
										<g>
											<g>
												<rect x="366.9" y="154.2" fill="#8F3E51" width="73.8" height="47.6"/>
											</g>
										</g>
										<g>
											<g>
												<g>
													<path fill="#DCDCDC" d="M544.1,165.2h-87.3c-2.1,0-3.7-2.5-3.7-4.6c0-2.1,1.6-4.6,3.7-4.6h87.3c2.1,0,3.7,2.5,3.7,4.6
														C547.8,162.7,546.2,165.2,544.1,165.2z"/>
												</g>
											</g>
											<g>
												<g>
													<path fill="#DCDCDC" d="M531.1,182.6h-74.2c-2.1,0-3.7-2.5-3.7-4.6s1.6-4.6,3.7-4.6h74.2c2.1,0,3.7,2.5,3.7,4.6
														S533.2,182.6,531.1,182.6z"/>
												</g>
											</g>
											<g>
												<g>
													<path fill="#DCDCDC" d="M507,196.4h-50.1c-2.1,0-3.7-0.8-3.7-2.9s1.6-2.9,3.7-2.9H507c2.1,0,3.7,0.8,3.7,2.9
														S509.1,196.4,507,196.4z"/>
												</g>
											</g>
										</g>
										<g>
											<g>
												<rect x="366.9" y="228.8" fill="#2E6F97" width="73.8" height="47.6"/>
											</g>
										</g>
										<g>
											<g>
												<g>
													<path fill="#DCDCDC" d="M544.1,239.1h-87.3c-2.1,0-3.7-2.5-3.7-4.6s1.6-4.6,3.7-4.6h87.3c2.1,0,3.7,2.5,3.7,4.6
														S546.2,239.1,544.1,239.1z"/>
												</g>
											</g>
											<g>
												<g>
													<path fill="#DCDCDC" d="M531.1,255.3h-74.2c-2.1,0-3.7-1.4-3.7-3.5s1.6-3.5,3.7-3.5h74.2c2.1,0,3.7,1.4,3.7,3.5
														S533.2,255.3,531.1,255.3z"/>
												</g>
											</g>
											<g>
												<g>
													<path fill="#DCDCDC" d="M507,271.4h-50.1c-2.1,0-3.7-0.8-3.7-2.9c0-2.1,1.6-2.9,3.7-2.9H507c2.1,0,3.7,0.8,3.7,2.9
														C510.7,270.6,509.1,271.4,507,271.4z"/>
												</g>
											</g>
										</g>
										<g>
											<g>
												<rect x="366.9" y="303.5" fill="#57BBB4" width="73.8" height="47.6"/>
											</g>
										</g>
										<g>
											<g>
												<g>
													<path fill="#DCDCDC" d="M544.1,315.3h-87.3c-2.1,0-3.7-2-3.7-4c0-2.1,1.6-4,3.7-4h87.3c2.1,0,3.7,2,3.7,4
														C547.8,313.3,546.2,315.3,544.1,315.3z"/>
												</g>
											</g>
											<g>
												<g>
													<path fill="#DCDCDC" d="M531.1,331.5h-74.2c-2.1,0-3.7-2-3.7-4c0-2.1,1.6-4,3.7-4h74.2c2.1,0,3.7,2,3.7,4
														C534.8,329.5,533.2,331.5,531.1,331.5z"/>
												</g>
											</g>
											<g>
												<g>
													<path fill="#DCDCDC" d="M507,348.8h-50.1c-2.1,0-3.7-0.8-3.7-2.9c0-2.1,1.6-2.9,3.7-2.9H507c2.1,0,3.7,0.8,3.7,2.9
														C510.7,348,509.1,348.8,507,348.8z"/>
												</g>
											</g>
										</g>
										<g>
											<g>
												<rect x="366.9" y="378.2" fill="#3FACCF" width="73.8" height="47.6"/>
											</g>
										</g>
										<g>
											<g>
												<g>
													<path fill="#DCDCDC" d="M544.1,389.2h-87.3c-2.1,0-3.7-0.8-3.7-2.9s1.6-2.9,3.7-2.9h87.3c2.1,0,3.7,0.8,3.7,2.9
														S546.2,389.2,544.1,389.2z"/>
												</g>
											</g>
											<g>
												<g>
													<path fill="#DCDCDC" d="M531.1,406.5h-74.2c-2.1,0-3.7-2-3.7-4s1.6-4,3.7-4h74.2c2.1,0,3.7,2,3.7,4
														S533.2,406.5,531.1,406.5z"/>
												</g>
											</g>
											<g>
												<g>
													<path fill="#DCDCDC" d="M507,422.7h-50.1c-2.1,0-3.7-1.4-3.7-3.5c0-2.1,1.6-3.5,3.7-3.5H507c2.1,0,3.7,1.4,3.7,3.5
														C510.7,421.3,509.1,422.7,507,422.7z"/>
												</g>
											</g>
										</g>
										<g>
											<g>
												<rect x="366.9" y="452.9" fill="#F88461" width="73.8" height="47.6"/>
											</g>
										</g>
										<g>
											<g>
												<g>
													<path fill="#DCDCDC" d="M544.1,463.1h-87.3c-2.1,0-3.7-1.4-3.7-3.5s1.6-3.5,3.7-3.5h87.3c2.1,0,3.7,1.4,3.7,3.5
														S546.2,463.1,544.1,463.1z"/>
												</g>
											</g>
											<g>
												<g>
													<path fill="#DCDCDC" d="M531.1,478.1h-74.2c-2.1,0-3.7-0.8-3.7-2.9s1.6-2.9,3.7-2.9h74.2c2.1,0,3.7,0.8,3.7,2.9
														S533.2,478.1,531.1,478.1z"/>
												</g>
											</g>
											<g>
												<g>
													<path fill="#DCDCDC" d="M507,496.5h-50.1c-2.1,0-3.7-2-3.7-4c0-2.1,1.6-4,3.7-4H507c2.1,0,3.7,2,3.7,4
														C510.7,494.6,509.1,496.5,507,496.5z"/>
												</g>
											</g>
										</g>
										<g>
											<g>
												<rect x="594.2" y="154.2" fill="#F88461" width="73.8" height="47.6"/>
											</g>
										</g>
										<g>
											<g>
												<g>
													<path fill="#DCDCDC" d="M770.5,165.2h-87.3c-2.1,0-3.7-2.5-3.7-4.6c0-2.1,1.6-4.6,3.7-4.6h87.3c2.1,0,3.7,2.5,3.7,4.6
														C774.2,162.7,772.6,165.2,770.5,165.2z"/>
												</g>
											</g>
											<g>
												<g>
													<path fill="#DCDCDC" d="M757.6,182.6h-74.2c-2.1,0-3.7-2.5-3.7-4.6s1.6-4.6,3.7-4.6h74.2c2.1,0,3.7,2.5,3.7,4.6
														S759.6,182.6,757.6,182.6z"/>
												</g>
											</g>
											<g>
												<g>
													<path fill="#DCDCDC" d="M733.5,196.4h-50.1c-2.1,0-3.7-0.8-3.7-2.9s1.6-2.9,3.7-2.9h50.1c2.1,0,3.7,0.8,3.7,2.9
														S735.4,196.4,733.5,196.4z"/>
												</g>
											</g>
										</g>
										<g>
											<g>
												<rect x="594.2" y="228.8" fill="#E0545C" width="73.8" height="47.6"/>
											</g>
										</g>
										<g>
											<g>
												<g>
													<path fill="#DCDCDC" d="M770.5,239.1h-87.3c-2.1,0-3.7-2.5-3.7-4.6s1.6-4.6,3.7-4.6h87.3c2.1,0,3.7,2.5,3.7,4.6
														S772.6,239.1,770.5,239.1z"/>
												</g>
											</g>
											<g>
												<g>
													<path fill="#DCDCDC" d="M757.6,255.3h-74.2c-2.1,0-3.7-1.4-3.7-3.5s1.6-3.5,3.7-3.5h74.2c2.1,0,3.7,1.4,3.7,3.5
														S759.6,255.3,757.6,255.3z"/>
												</g>
											</g>
											<g>
												<g>
													<path fill="#DCDCDC" d="M733.5,271.4h-50.1c-2.1,0-3.7-0.8-3.7-2.9c0-2.1,1.6-2.9,3.7-2.9h50.1c2.1,0,3.7,0.8,3.7,2.9
														C737.2,270.6,735.4,271.4,733.5,271.4z"/>
												</g>
											</g>
										</g>
										<g>
											<g>
												<rect x="594.2" y="303.5" fill="#6F5E90" width="73.8" height="47.6"/>
											</g>
										</g>
										<g>
											<g>
												<g>
													<path fill="#DCDCDC" d="M770.5,315.3h-87.3c-2.1,0-3.7-2-3.7-4c0-2.1,1.6-4,3.7-4h87.3c2.1,0,3.7,2,3.7,4
														C774.2,313.3,772.6,315.3,770.5,315.3z"/>
												</g>
											</g>
											<g>
												<g>
													<path fill="#DCDCDC" d="M757.6,331.5h-74.2c-2.1,0-3.7-2-3.7-4c0-2.1,1.6-4,3.7-4h74.2c2.1,0,3.7,2,3.7,4
														C761.3,329.5,759.6,331.5,757.6,331.5z"/>
												</g>
											</g>
											<g>
												<g>
													<path fill="#DCDCDC" d="M733.5,348.8h-50.1c-2.1,0-3.7-0.8-3.7-2.9c0-2.1,1.6-2.9,3.7-2.9h50.1c2.1,0,3.7,0.8,3.7,2.9
														C737.2,348,735.4,348.8,733.5,348.8z"/>
												</g>
											</g>
										</g>
										<g>
											<g>
												<rect x="594.2" y="378.2" fill="#8F3E51" width="73.8" height="47.6"/>
											</g>
										</g>
										<g>
											<g>
												<g>
													<path fill="#DCDCDC" d="M770.5,389.2h-87.3c-2.1,0-3.7-0.8-3.7-2.9s1.6-2.9,3.7-2.9h87.3c2.1,0,3.7,0.8,3.7,2.9
														S772.6,389.2,770.5,389.2z"/>
												</g>
											</g>
											<g>
												<g>
													<path fill="#DCDCDC" d="M757.6,406.5h-74.2c-2.1,0-3.7-2-3.7-4s1.6-4,3.7-4h74.2c2.1,0,3.7,2,3.7,4
														S759.6,406.5,757.6,406.5z"/>
												</g>
											</g>
											<g>
												<g>
													<path fill="#DCDCDC" d="M733.5,422.7h-50.1c-2.1,0-3.7-1.4-3.7-3.5c0-2.1,1.6-3.5,3.7-3.5h50.1c2.1,0,3.7,1.4,3.7,3.5
														C737.2,421.3,735.4,422.7,733.5,422.7z"/>
												</g>
											</g>
										</g>
										<g>
											<g>
												<rect x="594.2" y="452.9" fill="#E0AA2E" width="73.8" height="47.6"/>
											</g>
										</g>
										<g>
											<g>
												<g>
													<path fill="#DCDCDC" d="M770.5,463.1h-87.3c-2.1,0-3.7-1.4-3.7-3.5s1.6-3.5,3.7-3.5h87.3c2.1,0,3.7,1.4,3.7,3.5
														S772.6,463.1,770.5,463.1z"/>
												</g>
											</g>
											<g>
												<g>
													<path fill="#DCDCDC" d="M757.6,478.1h-74.2c-2.1,0-3.7-0.8-3.7-2.9s1.6-2.9,3.7-2.9h74.2c2.1,0,3.7,0.8,3.7,2.9
														S759.6,478.1,757.6,478.1z"/>
												</g>
											</g>
											<g>
												<g>
													<path fill="#DCDCDC" d="M733.5,496.5h-50.1c-2.1,0-3.7-2-3.7-4c0-2.1,1.6-4,3.7-4h50.1c2.1,0,3.7,2,3.7,4
														C737.2,494.6,735.4,496.5,733.5,496.5z"/>
												</g>
											</g>
										</g>
									</g>
								</g>
								
									<rect x="127.4" y="365.6" fill="none" stroke="#E0545C" stroke-width="2" stroke-miterlimit="10" width="211.8" height="73.9"/>
							</g>
						</g>
						<g clip-path="url(#SVGID_8_)">
							<path fill="#EAEAEA" d="M188.6,485.4c-49.9,0-90.4-40.5-90.4-90.4s40.5-90.4,90.4-90.4S279,345.1,279,395
								S238.5,485.4,188.6,485.4z M188.6,308.6c-47.6,0-86.3,38.7-86.3,86.3s38.7,86.3,86.3,86.3s86.3-38.7,86.3-86.3
								S236.2,308.6,188.6,308.6z"/>
						</g>
					</g>
					<polygon fill="#FFFFFF" points="175.7,389.2 179.4,396.9 187.9,398.1 181.8,404.1 183.2,412.5 175.7,408.6 168,412.5 
						169.4,404.1 163.3,398.1 171.9,396.9 					"/>
					<polygon fill="#FFFFFF" points="542,281.7 546.7,291.3 557.3,292.9 549.6,300.3 551.4,310.9 542,306 532.4,310.9 534.2,300.3 
						526.5,292.9 537.1,291.3 					"/>
				</g>
			</g>
		</g>
	</g>
</g>
</svg>
