<?xml version="1.0" encoding="utf-8"?>
<!-- Generator: Adobe Illustrator 18.1.1, SVG Export Plug-In . SVG Version: 6.00 Build 0)  -->
<svg version="1.1" id="Layer_1" xmlns="http://www.w3.org/2000/svg" xmlns:xlink="http://www.w3.org/1999/xlink" x="0px" y="0px"
	 viewBox="0 0 500 182.5" enable-background="new 0 0 500 182.5" xml:space="preserve">
<g>
	<g>
		<g>
			<path fill="#FFFFFF" d="M76,155.4c0,1.1-0.9,2.1-2.1,2.1H23.1c-1.1,0-2.1-0.9-2.1-2.1V93.6c0-1.1,0.9-2.1,2.1-2.1h50.9
				c1.1,0,2.1,0.9,2.1,2.1V155.4z"/>
			<path fill="none" stroke="#939393" stroke-miterlimit="10" d="M76.5,154.9c0,1.1-0.9,2.1-2.1,2.1H23.6c-1.1,0-2.1-0.9-2.1-2.1
				V93.1c0-1.1,0.9-2.1,2.1-2.1h50.9c1.1,0,2.1,0.9,2.1,2.1V154.9z"/>
		</g>
		<circle fill="#FFFFFF" stroke="#939393" stroke-miterlimit="10" cx="29.8" cy="98.3" r="3.3"/>
		<path fill="#939393" d="M70.7,98c0,0.9-0.9,1.5-2.1,1.5h-28c-1.1,0-2.1-0.6-2.1-1.5s0.9-1.5,2.1-1.5h28
			C69.7,96.5,70.7,97.1,70.7,98z"/>
		<path fill="#939393" d="M58.6,111c0,0.9-0.9,1.5-2.1,1.5h-28c-1.1,0-2.1-0.6-2.1-1.5s0.9-1.5,2.1-1.5h28
			C57.7,109.5,58.6,110.1,58.6,111z"/>
		<path fill="#939393" d="M73.5,111c0,0.9-0.9,1.5-2.1,1.5h-7.7c-1.1,0-2.1-0.6-2.1-1.5s0.9-1.5,2.1-1.5h7.7
			C72.6,109.5,73.5,110.1,73.5,111z"/>
		<path fill="#939393" d="M38.3,144c0,0.9-0.9,1.5-2.1,1.5h-7.7c-1.1,0-2.1-0.6-2.1-1.5s0.9-1.5,2.1-1.5h7.7
			C37.4,142.5,38.3,143.1,38.3,144z"/>
		<path fill="#939393" d="M53.9,144c0,0.9-0.9,1.5-2.1,1.5h-7.7c-1.1,0-2.1-0.6-2.1-1.5s0.9-1.5,2.1-1.5h7.7
			C52.9,142.5,53.9,143.1,53.9,144z"/>
		<path fill="#939393" d="M72.5,119c0,0.9-0.9,1.5-2.1,1.5H28.6c-1.1,0-2.1-0.6-2.1-1.5s0.9-1.5,2.1-1.5h41.9
			C71.6,117.5,72.5,118.1,72.5,119z"/>
		<path fill="#939393" d="M72.5,127c0,0.9-0.9,1.5-2.1,1.5H28.6c-1.1,0-2.1-0.6-2.1-1.5s0.9-1.5,2.1-1.5h41.9
			C71.6,125.5,72.5,126.1,72.5,127z"/>
		<path fill="#939393" d="M72.5,135.5c0,0.9-0.9,2-2.1,2H28.6c-1.1,0-2.1-1.1-2.1-2s0.9-2,2.1-2h41.9
			C71.6,133.5,72.5,134.6,72.5,135.5z"/>
	</g>
	<g>
		<g>
			<path fill="#FFFFFF" d="M475,155.4c0,1.1-0.9,2.1-2.1,2.1h-50.9c-1.1,0-2.1-0.9-2.1-2.1V93.6c0-1.1,0.9-2.1,2.1-2.1h50.9
				c1.1,0,2.1,0.9,2.1,2.1V155.4z"/>
			<path fill="none" stroke="#939393" stroke-miterlimit="10" d="M475.5,154.9c0,1.1-0.9,2.1-2.1,2.1h-50.9c-1.1,0-2.1-0.9-2.1-2.1
				V93.1c0-1.1,0.9-2.1,2.1-2.1h50.9c1.1,0,2.1,0.9,2.1,2.1V154.9z"/>
		</g>
		<circle fill="#FFFFFF" stroke="#939393" stroke-miterlimit="10" cx="428.6" cy="98.3" r="3.3"/>
		<path fill="#939393" d="M469.5,98c0,0.9-0.9,1.5-2.1,1.5h-28c-1.1,0-2.1-0.6-2.1-1.5s0.9-1.5,2.1-1.5h28
			C468.5,96.5,469.5,97.1,469.5,98z"/>
		<path fill="#939393" d="M457.4,111c0,0.9-0.9,1.5-2.1,1.5h-28c-1.1,0-2.1-0.6-2.1-1.5s0.9-1.5,2.1-1.5h28
			C456.5,109.5,457.4,110.1,457.4,111z"/>
		<path fill="#939393" d="M472.3,111c0,0.9-0.9,1.5-2.1,1.5h-7.7c-1.1,0-2.1-0.6-2.1-1.5s0.9-1.5,2.1-1.5h7.7
			C471.4,109.5,472.3,110.1,472.3,111z"/>
		<path fill="#939393" d="M437.1,144c0,0.9-0.9,1.5-2.1,1.5h-7.7c-1.1,0-2.1-0.6-2.1-1.5s0.9-1.5,2.1-1.5h7.7
			C436.2,142.5,437.1,143.1,437.1,144z"/>
		<path fill="#939393" d="M452.6,144c0,0.9-0.9,1.5-2.1,1.5h-7.7c-1.1,0-2.1-0.6-2.1-1.5s0.9-1.5,2.1-1.5h7.7
			C451.7,142.5,452.6,143.1,452.6,144z"/>
		<path fill="#939393" d="M471.3,119c0,0.9-0.9,1.5-2.1,1.5h-41.9c-1.1,0-2.1-0.6-2.1-1.5s0.9-1.5,2.1-1.5h41.9
			C470.4,117.5,471.3,118.1,471.3,119z"/>
		<path fill="#939393" d="M471.3,127c0,0.9-0.9,1.5-2.1,1.5h-41.9c-1.1,0-2.1-0.6-2.1-1.5s0.9-1.5,2.1-1.5h41.9
			C470.4,125.5,471.3,126.1,471.3,127z"/>
		<path fill="#939393" d="M471.3,135.5c0,0.9-0.9,2-2.1,2h-41.9c-1.1,0-2.1-1.1-2.1-2s0.9-2,2.1-2h41.9
			C470.4,133.5,471.3,134.6,471.3,135.5z"/>
	</g>
</g>
<g>
	<path fill="#75BCD8" d="M245,47.9c1.2,1.2,2.9,2,4.7,2c1.9,0,3.5-0.8,4.7-2c1.2-1.2,2-2.9,2-4.7c0-1.1-0.3-2.1-0.7-3
		c-0.5-0.9-1.1-1.7-1.9-2.3c0,0,0-1,0-2.2c0-0.2,0-0.2,0-0.2c0-0.2-0.3-0.3-0.7-0.3h-2.7c-0.4,0-1,0-1.3,0h-2.7
		c-0.4,0-0.7,0.3-0.7,0.7c0,0,0,0.3,0,0.7c0,0.8,0,0.8,0,0.8c0,0.3-0.2,0.8-0.5,1c0,0-1,0.9-1.5,1.9c-0.5,0.9-0.7,2-0.7,3.1
		C243,45,243.8,46.7,245,47.9z M244.9,40.7c0.4-0.7,1.1-1.4,1.1-1.4c0.3-0.3,0.6-0.6,0.8-0.7c0.1-0.1,0.3-0.4,0.3-0.5
		c0-0.2,0-0.6,0-1c0-0.4,0.3-0.7,0.7-0.7h4c0.4,0,0.7,0.3,0.7,0.7c0,0,0.1,1.4,0.3,1.6c0.2,0.1,0.5,0.4,0.8,0.7c0,0,0.7,0.7,1,1.4
		c0.4,0.8,0.6,1.6,0.6,2.4c0,1.4-0.6,2.8-1.6,3.8c-1,1-2.4,1.6-3.8,1.6c-1.4,0-2.8-0.6-3.8-1.6c-1-1-1.6-2.4-1.6-3.8
		C244.4,42.3,244.6,41.4,244.9,40.7z"/>
	<path fill="#75BCD8" d="M246.4,33.7h6.7c0.4,0,0.7-0.3,0.7-0.7c0-0.4-0.3-0.7-0.7-0.7h-6.7c-0.4,0-0.7,0.3-0.7,0.7
		C245.7,33.4,246,33.7,246.4,33.7z"/>
	<path fill="#75BCD8" d="M247.7,31.1h4c0.4,0,0.7-0.3,0.7-0.7c0-0.4-0.3-0.7-0.7-0.7h-4c-0.4,0-0.7,0.3-0.7,0.7
		C247,30.7,247.3,31.1,247.7,31.1z"/>
</g>
<path fill="#775486" d="M433,21.5H263.9c-0.4-7-5.7-11.6-12.2-11.6c-6.5,0-11.8,4.6-12.2,11.6H72v150h34v6h43v-6h206v6h44v-6h34
	V21.5z"/>
<g>
	<g>
		<path fill="#FFFFFF" d="M413,154.4c0,1.1-0.9,2.1-2.1,2.1h-50.9c-1.1,0-2.1-0.9-2.1-2.1V92.6c0-1.1,0.9-2.1,2.1-2.1h50.9
			c1.1,0,2.1,0.9,2.1,2.1V154.4z"/>
		<path fill="none" stroke="#939393" stroke-miterlimit="10" d="M413.5,153.9c0,1.1-0.9,2.1-2.1,2.1h-50.9c-1.1,0-2.1-0.9-2.1-2.1
			V92.1c0-1.1,0.9-2.1,2.1-2.1h50.9c1.1,0,2.1,0.9,2.1,2.1V153.9z"/>
	</g>
	<circle fill="#FFFFFF" stroke="#939393" stroke-miterlimit="10" cx="366.5" cy="97.3" r="3.3"/>
	<path fill="#939393" d="M407.3,97c0,0.9-0.9,1.5-2.1,1.5h-28c-1.1,0-2.1-0.6-2.1-1.5s0.9-1.5,2.1-1.5h28
		C406.4,95.5,407.3,96.1,407.3,97z"/>
	<path fill="#939393" d="M395.2,110c0,0.9-0.9,1.5-2.1,1.5h-28c-1.1,0-2.1-0.6-2.1-1.5s0.9-1.5,2.1-1.5h28
		C394.3,108.5,395.2,109.1,395.2,110z"/>
	<path fill="#939393" d="M410.2,110c0,0.9-0.9,1.5-2.1,1.5h-7.7c-1.1,0-2.1-0.6-2.1-1.5s0.9-1.5,2.1-1.5h7.7
		C409.2,108.5,410.2,109.1,410.2,110z"/>
	<path fill="#939393" d="M375,143c0,0.9-0.9,1.5-2.1,1.5h-7.7c-1.1,0-2.1-0.6-2.1-1.5s0.9-1.5,2.1-1.5h7.7
		C374,141.5,375,142.1,375,143z"/>
	<path fill="#939393" d="M390.5,143c0,0.9-0.9,1.5-2.1,1.5h-7.7c-1.1,0-2.1-0.6-2.1-1.5s0.9-1.5,2.1-1.5h7.7
		C389.6,141.5,390.5,142.1,390.5,143z"/>
	<path fill="#939393" d="M409.2,118c0,0.9-0.9,1.5-2.1,1.5h-41.9c-1.1,0-2.1-0.6-2.1-1.5s0.9-1.5,2.1-1.5h41.9
		C408.2,116.5,409.2,117.1,409.2,118z"/>
	<path fill="#939393" d="M409.2,126c0,0.9-0.9,1.5-2.1,1.5h-41.9c-1.1,0-2.1-0.6-2.1-1.5s0.9-1.5,2.1-1.5h41.9
		C408.2,124.5,409.2,125.1,409.2,126z"/>
	<path fill="#939393" d="M409.2,134.5c0,0.9-0.9,2-2.1,2h-41.9c-1.1,0-2.1-1.1-2.1-2s0.9-2,2.1-2h41.9
		C408.2,132.5,409.2,133.6,409.2,134.5z"/>
</g>
<g>
	<g>
		<path fill="#FFFFFF" d="M148,154.4c0,1.1-0.9,2.1-2.1,2.1H95.1c-1.1,0-2.1-0.9-2.1-2.1V92.6c0-1.1,0.9-2.1,2.1-2.1h50.9
			c1.1,0,2.1,0.9,2.1,2.1V154.4z"/>
		<path fill="none" stroke="#939393" stroke-miterlimit="10" d="M148.5,153.9c0,1.1-0.9,2.1-2.1,2.1H95.6c-1.1,0-2.1-0.9-2.1-2.1
			V92.1c0-1.1,0.9-2.1,2.1-2.1h50.9c1.1,0,2.1,0.9,2.1,2.1V153.9z"/>
	</g>
	<circle fill="#FFFFFF" stroke="#939393" stroke-miterlimit="10" cx="102.3" cy="97.3" r="3.3"/>
	<path fill="#939393" d="M143.2,97c0,0.9-0.9,1.5-2.1,1.5h-28c-1.1,0-2.1-0.6-2.1-1.5s0.9-1.5,2.1-1.5h28
		C142.2,95.5,143.2,96.1,143.2,97z"/>
	<path fill="#939393" d="M131.1,110c0,0.9-0.9,1.5-2.1,1.5h-28c-1.1,0-2.1-0.6-2.1-1.5s0.9-1.5,2.1-1.5h28
		C130.2,108.5,131.1,109.1,131.1,110z"/>
	<path fill="#939393" d="M146,110c0,0.9-0.9,1.5-2.1,1.5h-7.7c-1.1,0-2.1-0.6-2.1-1.5s0.9-1.5,2.1-1.5h7.7
		C145.1,108.5,146,109.1,146,110z"/>
	<path fill="#939393" d="M110.8,143c0,0.9-0.9,1.5-2.1,1.5h-7.7c-1.1,0-2.1-0.6-2.1-1.5s0.9-1.5,2.1-1.5h7.7
		C109.9,141.5,110.8,142.1,110.8,143z"/>
	<path fill="#939393" d="M126.4,143c0,0.9-0.9,1.5-2.1,1.5h-7.7c-1.1,0-2.1-0.6-2.1-1.5s0.9-1.5,2.1-1.5h7.7
		C125.4,141.5,126.4,142.1,126.4,143z"/>
	<path fill="#939393" d="M145,118c0,0.9-0.9,1.5-2.1,1.5h-41.9c-1.1,0-2.1-0.6-2.1-1.5s0.9-1.5,2.1-1.5H143
		C144.1,116.5,145,117.1,145,118z"/>
	<path fill="#939393" d="M145,126c0,0.9-0.9,1.5-2.1,1.5h-41.9c-1.1,0-2.1-0.6-2.1-1.5s0.9-1.5,2.1-1.5H143
		C144.1,124.5,145,125.1,145,126z"/>
	<path fill="#939393" d="M145,134.5c0,0.9-0.9,2-2.1,2h-41.9c-1.1,0-2.1-1.1-2.1-2s0.9-2,2.1-2H143C144.1,132.5,145,133.6,145,134.5
		z"/>
</g>
<rect x="177.9" y="72" fill="#5B386D" width="147.5" height="90.3"/>
<g>
	<g>
		<g>
			<path fill="#FFFFFF" d="M213,153.8c0,1.1-0.9,1.7-2.1,1.7h-50.8c-1.1,0-2.2-0.3-2.2-1.4V92.5c0-1.1,1-2,2.2-2h50.8
				c1.1,0,2.6,0.8,2.6,1.9L213,153.8z"/>
			<path fill="none" stroke="#939393" stroke-miterlimit="10" d="M213.5,153.9c0,1.1-0.9,2.1-2.1,2.1h-50.9c-1.1,0-2.1-0.9-2.1-2.1
				V92.1c0-1.1,0.9-2.1,2.1-2.1h50.9c1.1,0,2.1,0.9,2.1,2.1V153.9z"/>
		</g>
		<circle fill="#FFFFFF" stroke="#939393" stroke-miterlimit="10" cx="167.1" cy="97.3" r="3.3"/>
		<path fill="#939393" d="M207.9,97c0,0.9-0.9,1.5-2.1,1.5h-28c-1.1,0-2.1-0.6-2.1-1.5s0.9-1.5,2.1-1.5h28
			C207,95.5,207.9,96.1,207.9,97z"/>
		<path fill="#939393" d="M195.9,110c0,0.9-0.9,1.5-2.1,1.5h-28c-1.1,0-2.1-0.6-2.1-1.5s0.9-1.5,2.1-1.5h28
			C194.9,108.5,195.9,109.1,195.9,110z"/>
		<path fill="#939393" d="M210.8,110c0,0.9-0.9,1.5-2.1,1.5H201c-1.1,0-2.1-0.6-2.1-1.5s0.9-1.5,2.1-1.5h7.7
			C209.9,108.5,210.8,109.1,210.8,110z"/>
		<path fill="#939393" d="M175.6,143c0,0.9-0.9,1.5-2.1,1.5h-7.7c-1.1,0-2.1-0.6-2.1-1.5s0.9-1.5,2.1-1.5h7.7
			C174.6,141.5,175.6,142.1,175.6,143z"/>
		<path fill="#939393" d="M191.1,143c0,0.9-0.9,1.5-2.1,1.5h-7.7c-1.1,0-2.1-0.6-2.1-1.5s0.9-1.5,2.1-1.5h7.7
			C190.2,141.5,191.1,142.1,191.1,143z"/>
		<path fill="#939393" d="M209.8,118c0,0.9-0.9,1.5-2.1,1.5h-41.9c-1.1,0-2.1-0.6-2.1-1.5s0.9-1.5,2.1-1.5h41.9
			C208.8,116.5,209.8,117.1,209.8,118z"/>
		<path fill="#939393" d="M209.8,126c0,0.9-0.9,1.5-2.1,1.5h-41.9c-1.1,0-2.1-0.6-2.1-1.5s0.9-1.5,2.1-1.5h41.9
			C208.8,124.5,209.8,125.1,209.8,126z"/>
		<path fill="#939393" d="M209.8,134.5c0,0.9-0.9,2-2.1,2h-41.9c-1.1,0-2.1-1.1-2.1-2s0.9-2,2.1-2h41.9
			C208.8,132.5,209.8,133.6,209.8,134.5z"/>
	</g>
	<g>
		<path fill="#FFFFFF" d="M211.6,110c0,0.9-0.7,1.5-1.7,1.5h-6.2c-0.9,0-1.7-0.6-1.7-1.5s0.7-1.5,1.7-1.5h6.2
			C210.9,108.5,211.6,109.1,211.6,110z"/>
		<path fill="#FFFFFF" d="M195.8,143c0,0.9-0.7,1.5-1.7,1.5H188c-0.9,0-1.7-0.6-1.7-1.5s0.7-1.5,1.7-1.5h6.2
			C195.1,141.5,195.8,142.1,195.8,143z"/>
		<g>
			<g>
				<path fill="#939393" d="M183,90.5h7.7H211c1.1,0,2.5,1.2,2.5,2.6l-0.4,62c0,1.4-0.9,0.4-2.1,0.4h-20.4H183"/>
			</g>
			<path fill="#FFFFFF" d="M183,95.5h24.7c0.9,0,1.7,0.6,1.7,1.5s-0.7,1.5-1.7,1.5H183"/>
			<path fill="#FFFFFF" d="M183,108.5h15c0.9,0,1.7,0.6,1.7,1.5s-0.7,1.5-1.7,1.5h-15"/>
			<path fill="#FFFFFF" d="M183,116.5h26.2c0.9,0,1.7,0.6,1.7,1.5s-0.7,1.5-1.7,1.5H183"/>
			<path fill="#FFFFFF" d="M183,124.5h26.2c0.9,0,1.7,0.6,1.7,1.5s-0.7,1.5-1.7,1.5H183"/>
			<path fill="#FFFFFF" d="M183,132.5h26.2c0.9,0,1.7,1.1,1.7,2s-0.7,2-1.7,2H183"/>
		</g>
	</g>
	<circle fill="#939393" cx="210.9" cy="92.2" r="2.1"/>
</g>
<g>
	<g>
		<g>
			<path fill="#FFFFFF" d="M345,154.4c0,1.1-0.9,2.1-2.1,2.1h-50.9c-1.1,0-2.1-0.9-2.1-2.1V92.6c0-1.1,0.9-2.1,2.1-2.1h50.9
				c1.1,0,2.1,0.9,2.1,2.1V154.4z"/>
			<path fill="none" stroke="#939393" stroke-miterlimit="10" d="M345.5,153.9c0,1.1-0.9,2.1-2.1,2.1h-50.9c-1.1,0-2.1-0.9-2.1-2.1
				V92.1c0-1.1,0.9-2.1,2.1-2.1h50.9c1.1,0,2.1,0.9,2.1,2.1V153.9z"/>
		</g>
		<circle fill="#FFFFFF" stroke="#939393" stroke-miterlimit="10" cx="299.6" cy="96.8" r="3.3"/>
		<path fill="#939393" d="M340.5,97c0,0.9-0.9,1.5-2.1,1.5h-28c-1.1,0-2.1-0.6-2.1-1.5s0.9-1.5,2.1-1.5h28
			C339.6,95.5,340.5,96.1,340.5,97z"/>
		<path fill="#939393" d="M328.4,110c0,0.9-0.9,1.5-2.1,1.5h-28c-1.1,0-2.1-0.6-2.1-1.5s0.9-1.5,2.1-1.5h28
			C327.5,108.5,328.4,109.1,328.4,110z"/>
		<path fill="#939393" d="M343.4,110c0,0.9-0.9,1.5-2.1,1.5h-7.7c-1.1,0-2.1-0.6-2.1-1.5s0.9-1.5,2.1-1.5h7.7
			C342.4,108.5,343.4,109.1,343.4,110z"/>
		<path fill="#939393" d="M308.1,143c0,0.9-0.9,1.5-2.1,1.5h-7.7c-1.1,0-2.1-0.6-2.1-1.5s0.9-1.5,2.1-1.5h7.7
			C307.2,141.5,308.1,142.1,308.1,143z"/>
		<path fill="#939393" d="M323.7,143c0,0.9-0.9,1.5-2.1,1.5h-7.7c-1.1,0-2.1-0.6-2.1-1.5s0.9-1.5,2.1-1.5h7.7
			C322.8,141.5,323.7,142.1,323.7,143z"/>
		<path fill="#939393" d="M342.3,118c0,0.9-0.9,1.5-2.1,1.5h-41.9c-1.1,0-2.1-0.6-2.1-1.5s0.9-1.5,2.1-1.5h41.9
			C341.4,116.5,342.3,117.1,342.3,118z"/>
		<path fill="#939393" d="M342.3,126c0,0.9-0.9,1.5-2.1,1.5h-41.9c-1.1,0-2.1-0.6-2.1-1.5s0.9-1.5,2.1-1.5h41.9
			C341.4,124.5,342.3,125.1,342.3,126z"/>
		<path fill="#939393" d="M342.3,134.5c0,0.9-0.9,2-2.1,2h-41.9c-1.1,0-2.1-1.1-2.1-2s0.9-2,2.1-2h41.9
			C341.4,132.5,342.3,133.6,342.3,134.5z"/>
	</g>
	<g>
		<g>
			<g>
				<path fill="#939393" d="M318,156.5h-24.7c-1.4,0-3.3-1.4-3.3-2.8V91.5c0-1.4,1.9-2,3.3-2H318"/>
			</g>
		</g>
		<circle fill="#FFFFFF" cx="300" cy="96.8" r="3.3"/>
		<path fill="#FFFFFF" d="M318,98.5h-7.1c-1.1,0-2.1-0.6-2.1-1.5s0.9-1.5,2.1-1.5h7.1"/>
		<path fill="#FFFFFF" d="M318,111.5h-19.2c-1.1,0-2.1-0.6-2.1-1.5s0.9-1.5,2.1-1.5H318"/>
		<path fill="#FFFFFF" d="M308.5,143c0,0.9-0.9,1.5-2.1,1.5h-7.7c-1.1,0-2.1-0.6-2.1-1.5s0.9-1.5,2.1-1.5h7.7
			C307.6,141.5,308.5,142.1,308.5,143z"/>
		<path fill="#FFFFFF" d="M318,144.5h-3.7c-1.1,0-2.1-0.6-2.1-1.5s0.9-1.5,2.1-1.5h3.7"/>
		<path fill="#FFFFFF" d="M318,119.5h-19.2c-1.1,0-2.1-0.6-2.1-1.5s0.9-1.5,2.1-1.5H318"/>
		<path fill="#FFFFFF" d="M318,127.5h-19.2c-1.1,0-2.1-0.6-2.1-1.5s0.9-1.5,2.1-1.5H318"/>
		<path fill="#FFFFFF" d="M318,136.5h-19.2c-1.1,0-2.1-1.1-2.1-2s0.9-2,2.1-2H318"/>
	</g>
</g>
<rect x="318.1" y="84.6" fill="#5B386D" width="6.9" height="75.3"/>
<rect x="178" y="84.6" fill="#5B386D" width="6" height="75.3"/>
<g>
	<rect x="80" y="29.5" opacity="0.5" fill="#A7DAEA" width="345" height="133"/>
	<g opacity="0.3">
		<line fill="#775486" stroke="#775486" stroke-miterlimit="10" x1="95.9" y1="39.9" x2="87.8" y2="48"/>
		<line fill="#775486" stroke="#775486" stroke-miterlimit="10" x1="113.1" y1="33.3" x2="82" y2="64.4"/>
	</g>
</g>
<g>
	<g>
		<path fill="#939393" stroke="#939393" stroke-miterlimit="10" d="M280.5,153.9c0,1.1-0.9,2.1-2.1,2.1h-50.9
			c-1.1,0-2.1-0.9-2.1-2.1V92.1c0-1.1,0.9-2.1,2.1-2.1h50.9c1.1,0,2.1,0.9,2.1,2.1V153.9z"/>
	</g>
	<circle fill="#FFFFFF" cx="234" cy="97.3" r="3.3"/>
	<path fill="#FFFFFF" d="M274.9,97c0,0.9-0.9,1.5-2.1,1.5h-28c-1.1,0-2.1-0.6-2.1-1.5s0.9-1.5,2.1-1.5h28
		C273.9,95.5,274.9,96.1,274.9,97z"/>
	<path fill="#FFFFFF" d="M262.8,110c0,0.9-0.9,1.5-2.1,1.5h-28c-1.1,0-2.1-0.6-2.1-1.5s0.9-1.5,2.1-1.5h28
		C261.9,108.5,262.8,109.1,262.8,110z"/>
	<path fill="#FFFFFF" d="M277.7,110c0,0.9-0.9,1.5-2.1,1.5H268c-1.1,0-2.1-0.6-2.1-1.5s0.9-1.5,2.1-1.5h7.7
		C276.8,108.5,277.7,109.1,277.7,110z"/>
	<path fill="#FFFFFF" d="M242.5,143c0,0.9-0.9,1.5-2.1,1.5h-7.7c-1.1,0-2.1-0.6-2.1-1.5s0.9-1.5,2.1-1.5h7.7
		C241.6,141.5,242.5,142.1,242.5,143z"/>
	<path fill="#FFFFFF" d="M258,143c0,0.9-0.9,1.5-2.1,1.5h-7.7c-1.1,0-2.1-0.6-2.1-1.5s0.9-1.5,2.1-1.5h7.7
		C257.1,141.5,258,142.1,258,143z"/>
	<path fill="#FFFFFF" d="M276.7,118c0,0.9-0.9,1.5-2.1,1.5h-41.9c-1.1,0-2.1-0.6-2.1-1.5s0.9-1.5,2.1-1.5h41.9
		C275.8,116.5,276.7,117.1,276.7,118z"/>
	<path fill="#FFFFFF" d="M276.7,126c0,0.9-0.9,1.5-2.1,1.5h-41.9c-1.1,0-2.1-0.6-2.1-1.5s0.9-1.5,2.1-1.5h41.9
		C275.8,124.5,276.7,125.1,276.7,126z"/>
	<path fill="#FFFFFF" d="M276.7,134.5c0,0.9-0.9,2-2.1,2h-41.9c-1.1,0-2.1-1.1-2.1-2s0.9-2,2.1-2h41.9
		C275.8,132.5,276.7,133.6,276.7,134.5z"/>
</g>
<g>
	<rect x="183.8" y="79.8" opacity="0.5" fill="#94829E" width="134.3" height="82.6"/>
	<g opacity="0.3">
		<line fill="#775486" x1="195.6" y1="87.2" x2="190.8" y2="92"/>
		<line fill="#775486" x1="205.9" y1="83.3" x2="187.3" y2="101.7"/>
	</g>
</g>
<g>
	<g>
		<rect x="28" y="150.5" fill="#775486" width="6" height="17"/>
		<rect x="17" y="150.5" fill="#775486" width="6" height="17"/>
		<rect x="41" y="150.5" fill="#775486" width="6" height="17"/>
		<rect x="52" y="150.5" fill="#775486" width="6" height="17"/>
		<rect x="63" y="150.5" fill="#775486" width="7" height="17"/>
		<rect x="87" y="150.5" fill="#775486" width="6" height="17"/>
		<rect x="76" y="150.5" fill="#775486" width="6" height="17"/>
		<rect x="99" y="150.5" fill="#775486" width="6" height="17"/>
		<rect x="111" y="150.5" fill="#775486" width="6" height="17"/>
		<rect x="122" y="150.5" fill="#775486" width="7" height="17"/>
		<rect x="146" y="150.5" fill="#775486" width="6" height="17"/>
		<rect x="134" y="150.5" fill="#775486" width="6" height="17"/>
		<rect x="158" y="150.5" fill="#775486" width="6" height="17"/>
		<rect x="169" y="150.5" fill="#775486" width="6" height="17"/>
		<rect x="181" y="150.5" fill="#775486" width="7" height="17"/>
		<rect x="204" y="150.5" fill="#775486" width="6" height="17"/>
		<rect x="193" y="150.5" fill="#775486" width="6" height="17"/>
		<rect x="217" y="150.5" fill="#775486" width="6" height="17"/>
		<rect x="228" y="150.5" fill="#775486" width="6" height="17"/>
		<rect x="239" y="150.5" fill="#775486" width="7" height="17"/>
		<rect x="263" y="150.5" fill="#775486" width="6" height="17"/>
		<rect x="252" y="150.5" fill="#775486" width="6" height="17"/>
		<rect x="275" y="150.5" fill="#775486" width="6" height="17"/>
		<rect x="287" y="150.5" fill="#775486" width="6" height="17"/>
		<rect x="298" y="150.5" fill="#775486" width="7" height="17"/>
		<rect x="322" y="150.5" fill="#775486" width="7" height="17"/>
		<rect x="310" y="150.5" fill="#775486" width="6" height="17"/>
		<rect x="334" y="150.5" fill="#775486" width="6" height="17"/>
		<rect x="345" y="150.5" fill="#775486" width="6" height="17"/>
		<rect x="358" y="150.5" fill="#775486" width="6" height="17"/>
		<rect x="380" y="150.5" fill="#775486" width="7" height="17"/>
		<rect x="369" y="150.5" fill="#775486" width="6" height="17"/>
		<rect x="393" y="150.5" fill="#775486" width="6" height="17"/>
		<rect x="404" y="150.5" fill="#775486" width="6" height="17"/>
		<rect x="416" y="150.5" fill="#775486" width="6" height="17"/>
		<rect x="439" y="150.5" fill="#775486" width="7" height="17"/>
		<rect x="428" y="150.5" fill="#775486" width="6" height="17"/>
		<rect x="451" y="150.5" fill="#775486" width="6" height="17"/>
		<rect x="463" y="150.5" fill="#775486" width="6" height="17"/>
		<rect x="475" y="150.5" fill="#775486" width="6" height="17"/>
	</g>
	<g>
		<path fill="#775486" d="M487.6,158.5c0,3.4-3.6,6-8,6H18.3c-4.4,0-8-2.6-8-6s3.6-6,8-6h461.3C484,152.5,487.6,155.1,487.6,158.5z"
			/>
	</g>
</g>
</svg>
