<?xml version="1.0" encoding="utf-8"?>
<!-- Generator: Adobe Illustrator 16.2.1, SVG Export Plug-In . SVG Version: 6.00 Build 0)  -->
<!DOCTYPE svg PUBLIC "-//W3C//DTD SVG 1.1//EN" "http://www.w3.org/Graphics/SVG/1.1/DTD/svg11.dtd">
<svg version="1.1" id="Layer_1" xmlns="http://www.w3.org/2000/svg" xmlns:xlink="http://www.w3.org/1999/xlink" x="0px" y="0px"
	 width="110px" height="140px" viewBox="0 0 110 140" enable-background="new 0 0 110 140" xml:space="preserve">
<g>
	<g>
		<path fill="#AFAFAF" d="M59.758,116.524c-3.953-6.83-10.27-11.893-17.787-14.258c-0.592-0.188-1.24-0.029-1.68,0.412
			c-0.133,0.135-0.273,0.262-0.41,0.393c-0.039,0.029-0.072,0.066-0.107,0.102c-2.678,2.559-5.744,4.629-7.21,5.557
			c-1.568-1.043-4.924-3.361-7.271-5.57c-0.029-0.029-0.057-0.059-0.09-0.084c-0.139-0.133-0.287-0.266-0.418-0.396
			c-0.439-0.439-1.088-0.598-1.68-0.412c-7.52,2.365-13.836,7.43-17.785,14.258c-0.299,0.518-0.299,1.154,0,1.67
			c5.609,9.693,16.039,15.717,27.219,15.717c11.181,0,21.608-6.023,27.22-15.717C60.057,117.679,60.057,117.042,59.758,116.524z
			 M10.024,119.261c-0.459-0.615-0.904-1.244-1.316-1.902c1.936-3.094,4.441-5.732,7.346-7.838c-1.764,2.07-3.381,4.459-4.795,7.168
			C10.825,117.517,10.419,118.38,10.024,119.261z M33.538,130.542v-11.035c0-0.553-0.447-1.002-1-1.002s-1.002,0.449-1.002,1.002
			v11.035c-7.754-0.279-15.018-3.785-20.084-9.529c0.494-1.172,1.016-2.316,1.58-3.398c2.752-5.271,6.246-9.312,10.184-11.82
			c3.141,2.893,7.559,5.762,8.32,6.248v3.008c0,0.553,0.449,1,1.002,1s1-0.447,1-1v-3c0.835-0.498,4.788-2.924,8.327-6.252
			c3.998,2.545,7.533,6.668,10.303,12.057c0.52,1.01,1,2.072,1.457,3.156C48.559,126.757,41.293,130.263,33.538,130.542z
			 M55.053,119.257c-0.354-0.791-0.719-1.568-1.105-2.316c-1.445-2.812-3.105-5.283-4.924-7.418
			c2.902,2.105,5.408,4.744,7.344,7.836C55.957,118.015,55.512,118.642,55.053,119.257z"/>
		<path fill="#AFAFAF" d="M32.538,102.86c7.272,0,13.19-5.918,13.19-13.191v-6.57c0-7.271-5.918-13.188-13.19-13.188
			c-7.273,0-13.189,5.917-13.189,13.188v6.57C19.349,96.942,25.265,102.86,32.538,102.86z M22.683,83.099
			c0-5.433,4.422-9.854,9.855-9.854c5.435,0,9.854,4.421,9.854,9.854v6.57c0,5.434-4.42,9.854-9.854,9.854
			c-5.434,0-9.855-4.42-9.855-9.854V83.099z"/>
	</g>
</g>
<g>
	<g>
		<path fill="#AFAFAF" d="M102.511,52.484c-3.953-6.83-10.27-11.893-17.787-14.258c-0.592-0.188-1.24-0.029-1.68,0.412
			c-0.133,0.135-0.273,0.262-0.41,0.393c-0.039,0.029-0.072,0.066-0.107,0.102c-2.678,2.559-5.744,4.629-7.21,5.557
			c-1.568-1.043-4.924-3.361-7.271-5.57c-0.029-0.029-0.057-0.059-0.09-0.084c-0.139-0.133-0.287-0.266-0.418-0.396
			c-0.439-0.439-1.088-0.598-1.68-0.412c-7.52,2.365-13.836,7.43-17.785,14.258c-0.299,0.518-0.299,1.154,0,1.67
			c5.609,9.693,16.039,15.717,27.219,15.717c11.181,0,21.608-6.023,27.22-15.717C102.81,53.639,102.81,53.002,102.511,52.484z
			 M52.777,55.221c-0.459-0.615-0.904-1.244-1.316-1.902c1.936-3.094,4.441-5.732,7.346-7.838c-1.764,2.07-3.381,4.459-4.795,7.168
			C53.578,53.477,53.172,54.34,52.777,55.221z M76.291,66.502V55.467c0-0.553-0.447-1.002-1-1.002s-1.002,0.449-1.002,1.002v11.035
			c-7.754-0.279-15.018-3.785-20.084-9.529c0.494-1.172,1.016-2.316,1.58-3.398c2.752-5.271,6.246-9.312,10.184-11.82
			c3.141,2.893,7.559,5.762,8.32,6.248v3.008c0,0.553,0.449,1,1.002,1s1-0.447,1-1v-3c0.835-0.498,4.788-2.924,8.327-6.252
			c3.998,2.545,7.533,6.668,10.303,12.057c0.52,1.01,1,2.072,1.457,3.156C91.312,62.717,84.046,66.223,76.291,66.502z
			 M97.806,55.217c-0.354-0.791-0.719-1.568-1.105-2.316c-1.445-2.812-3.105-5.283-4.924-7.418c2.902,2.105,5.408,4.744,7.344,7.836
			C98.71,53.975,98.265,54.602,97.806,55.217z"/>
		<path fill="#AFAFAF" d="M75.291,38.82c7.272,0,13.19-5.918,13.19-13.191v-6.57c0-7.271-5.918-13.188-13.19-13.188
			c-7.273,0-13.189,5.917-13.189,13.188v6.57C62.102,32.902,68.018,38.82,75.291,38.82z M65.436,19.059
			c0-5.433,4.422-9.854,9.855-9.854c5.435,0,9.854,4.421,9.854,9.854v6.57c0,5.434-4.42,9.854-9.854,9.854
			c-5.434,0-9.855-4.42-9.855-9.854V19.059z"/>
	</g>
</g>
<g>
	<path fill="none" stroke="#49B78D" stroke-width="2" stroke-linecap="round" stroke-linejoin="round" stroke-miterlimit="10" d="
		M71.343,92.229c4.861,0,8.802-3.939,8.802-8.801s-3.94-8.803-8.802-8.803l-11.891,0.082c-4.861,0-8.803,3.941-8.803,8.803
		s3.941,8.802,8.803,8.802l-0.041,5.896l5.986-5.979H71.343z"/>
	
		<circle fill="none" stroke="#49B78D" stroke-width="2" stroke-linecap="round" stroke-linejoin="round" stroke-miterlimit="10" cx="58.83" cy="83.42" r="1.804"/>
	
		<circle fill="none" stroke="#49B78D" stroke-width="2" stroke-linecap="round" stroke-linejoin="round" stroke-miterlimit="10" cx="65.761" cy="83.415" r="1.803"/>
	
		<circle fill="none" stroke="#49B78D" stroke-width="2" stroke-linecap="round" stroke-linejoin="round" stroke-miterlimit="10" cx="72.657" cy="83.279" r="1.803"/>
</g>
<g>
	<path fill="none" stroke="#49B78D" stroke-width="2" stroke-linecap="round" stroke-linejoin="round" stroke-miterlimit="10" d="
		M36.45,28.22c-4.861,0-8.802-3.939-8.802-8.801s3.94-8.803,8.802-8.803l11.891,0.082c4.861,0,8.803,3.941,8.803,8.803
		s-3.941,8.802-8.803,8.802l0.041,5.896l-5.986-5.979H36.45z"/>
	
		<circle fill="none" stroke="#49B78D" stroke-width="2" stroke-linecap="round" stroke-linejoin="round" stroke-miterlimit="10" cx="48.963" cy="19.41" r="1.804"/>
	
		<circle fill="none" stroke="#49B78D" stroke-width="2" stroke-linecap="round" stroke-linejoin="round" stroke-miterlimit="10" cx="42.032" cy="19.405" r="1.803"/>
	
		<circle fill="none" stroke="#49B78D" stroke-width="2" stroke-linecap="round" stroke-linejoin="round" stroke-miterlimit="10" cx="35.136" cy="19.27" r="1.803"/>
</g>
</svg>
