<?xml version="1.0" encoding="utf-8"?>
<!-- Generator: Adobe Illustrator 18.1.1, SVG Export Plug-In . SVG Version: 6.00 Build 0)  -->
<svg version="1.1" id="Layer_1" xmlns="http://www.w3.org/2000/svg" xmlns:xlink="http://www.w3.org/1999/xlink" x="0px" y="0px"
	 viewBox="0 0 400 250" enable-background="new 0 0 400 250" xml:space="preserve">
<g>
	<g>
		<g>
			<path fill="#404041" d="M201,217.5h145.7c0.6-1.4,1-2.8,1-4.4V34.8c0-6-5.1-11-11.4-11h-274c-6.3,0-11.4,4.9-11.4,11v178.3
				c0,1.6,0.4,3.1,1,4.4h147.3H201z"/>
			<rect x="65.9" y="37.9" fill="#58595B" width="268.1" height="161.3"/>
			<path fill="#929497" d="M202.2,32.3c0-1.2-1-2.1-2.2-2.1c-1.2,0-2.2,0.9-2.2,2.1c0,1.2,1,2.1,2.2,2.1
				C201.2,34.4,202.2,33.5,202.2,32.3z"/>
			<path fill="#D0D2D3" d="M346.7,217.5H201h-1.8H51.9H18.1v2.1h35.1h130.7c8.9,0,13.3,0,15.3,0c1.5,0,1.8,0,1.8,0
				c2.1,0,6.4,0,15.3,0h129.1h36.7v-2.1H346.7z"/>
			<path fill="#BBBDBF" d="M229.1,217.5c0,0-0.2,2.1-7.1,2.1h-46.8c-6.9,0-7.1-2.1-7.1-2.1"/>
			<path fill="#E6E7E8" d="M382.1,219.6c0,0-14.9,5.6-59.3,5.6c-44.4,0-122.6,0-122.6,0h0.8c0,0-79.2,0-123.6,0
				c-44.4,0-59.3-5.6-59.3-5.6"/>
		</g>
		<rect x="66" y="37.6" fill="#49B78D" width="268.1" height="22.1"/>
		<rect x="66" y="59.1" fill="#FFFFFF" width="268.1" height="140.2"/>
		<circle fill="#FFFFFF" cx="82.4" cy="48.5" r="6.7"/>
		<g>
			<path fill="#FFFFFF" d="M286.7,48.7c0,1.8-2,3.3-4.4,3.3h-7.8c-2.4,0-4.4-1.5-4.4-3.3s2-3.3,4.4-3.3h7.8
				C284.7,45.3,286.7,46.8,286.7,48.7z"/>
			<path fill="#FFFFFF" d="M266.4,48.7c0,1.8-2,3.3-4.4,3.3h-7.8c-2.4,0-4.4-1.5-4.4-3.3s2-3.3,4.4-3.3h7.8
				C264.4,45.3,266.4,46.8,266.4,48.7z"/>
			<path fill="#FFFFFF" d="M307.1,48.7c0,1.8-2,3.3-4.4,3.3h-7.8c-2.4,0-4.4-1.5-4.4-3.3s2-3.3,4.4-3.3h7.8
				C305.1,45.3,307.1,46.8,307.1,48.7z"/>
			<path fill="#FFFFFF" d="M327.4,48.7c0,1.8-2,3.3-4.4,3.3h-7.8c-2.4,0-4.4-1.5-4.4-3.3s2-3.3,4.4-3.3h7.8
				C325.4,45.3,327.4,46.8,327.4,48.7z"/>
		</g>
		<g>
			<defs>
				<rect id="SVGID_1_" x="66" y="60.2" width="268.1" height="139.1"/>
			</defs>
			<clipPath id="SVGID_2_">
				<use xlink:href="#SVGID_1_"  overflow="visible"/>
			</clipPath>
			<g clip-path="url(#SVGID_2_)">
				<g>
					<rect x="75.7" y="65.7" fill="#3FACCF" width="29.4" height="19"/>
				</g>
				<g>
					<g>
						<path fill="#DCDCDC" d="M146,69h-34.8c-0.8,0-1.5-0.2-1.5-1s0.7-1,1.5-1H146c0.8,0,1.5,0.2,1.5,1S146.8,69,146,69z"/>
					</g>
					<g>
						<path fill="#DCDCDC" d="M140.8,76h-29.6c-0.8,0-1.5-0.7-1.5-1.5s0.7-1.5,1.5-1.5h29.6c0.8,0,1.5,0.7,1.5,1.5
							S141.7,76,140.8,76z"/>
					</g>
					<g>
						<path fill="#DCDCDC" d="M131.2,83h-20c-0.8,0-1.5-0.7-1.5-1.5s0.7-1.5,1.5-1.5h20c0.8,0,1.5,0.7,1.5,1.5S132,83,131.2,83z"/>
					</g>
				</g>
				<g>
					<rect x="75.7" y="95.5" fill="#6E5F8C" width="29.4" height="19"/>
				</g>
				<g>
					<g>
						<path fill="#DCDCDC" d="M146,99h-34.8c-0.8,0-1.5-0.7-1.5-1.5s0.7-1.5,1.5-1.5H146c0.8,0,1.5,0.7,1.5,1.5S146.8,99,146,99z"/>
					</g>
					<g>
						<path fill="#DCDCDC" d="M140.8,106h-29.6c-0.8,0-1.5-0.7-1.5-1.5s0.7-1.5,1.5-1.5h29.6c0.8,0,1.5,0.7,1.5,1.5
							S141.7,106,140.8,106z"/>
					</g>
					<g>
						<path fill="#DCDCDC" d="M131.2,112h-20c-0.8,0-1.5-0.7-1.5-1.5s0.7-1.5,1.5-1.5h20c0.8,0,1.5,0.7,1.5,1.5S132,112,131.2,112z"
							/>
					</g>
				</g>
				<g>
					<rect x="75.7" y="125.3" fill="#E0AA2E" width="29.4" height="19"/>
				</g>
				<g>
					<g>
						<path fill="#DCDCDC" d="M146,129h-34.8c-0.8,0-1.5-0.7-1.5-1.5s0.7-1.5,1.5-1.5H146c0.8,0,1.5,0.7,1.5,1.5S146.8,129,146,129z
							"/>
					</g>
					<g>
						<path fill="#DCDCDC" d="M140.8,136h-29.6c-0.8,0-1.5-0.7-1.5-1.5s0.7-1.5,1.5-1.5h29.6c0.8,0,1.5,0.7,1.5,1.5
							S141.7,136,140.8,136z"/>
					</g>
					<g>
						<path fill="#DCDCDC" d="M131.2,143h-20c-0.8,0-1.5-0.7-1.5-1.5s0.7-1.5,1.5-1.5h20c0.8,0,1.5,0.7,1.5,1.5S132,143,131.2,143z"
							/>
					</g>
				</g>
				<g>
					<rect x="75.7" y="155.1" fill="#E0545C" width="29.4" height="19"/>
				</g>
				<g>
					<g>
						<path fill="#DCDCDC" d="M146,159h-34.8c-0.8,0-1.5-0.7-1.5-1.5s0.7-1.5,1.5-1.5H146c0.8,0,1.5,0.7,1.5,1.5S146.8,159,146,159z
							"/>
					</g>
					<g>
						<path fill="#DCDCDC" d="M140.8,166h-29.6c-0.8,0-1.5-0.7-1.5-1.5s0.7-1.5,1.5-1.5h29.6c0.8,0,1.5,0.7,1.5,1.5
							S141.7,166,140.8,166z"/>
					</g>
					<g>
						<path fill="#DCDCDC" d="M131.2,172h-20c-0.8,0-1.5-0.7-1.5-1.5s0.7-1.5,1.5-1.5h20c0.8,0,1.5,0.7,1.5,1.5S132,172,131.2,172z"
							/>
					</g>
				</g>
				<g>
					<rect x="75.7" y="184.9" fill="#2E6F97" width="29.4" height="19"/>
				</g>
				<g>
					<g>
						<path fill="#DCDCDC" d="M146,189h-34.8c-0.8,0-1.5-0.7-1.5-1.5s0.7-1.5,1.5-1.5H146c0.8,0,1.5,0.7,1.5,1.5S146.8,189,146,189z
							"/>
					</g>
					<g>
						<path fill="#DCDCDC" d="M140.8,195h-29.6c-0.8,0-1.5-0.7-1.5-1.5s0.7-1.5,1.5-1.5h29.6c0.8,0,1.5,0.7,1.5,1.5
							S141.7,195,140.8,195z"/>
					</g>
					<g>
						<path fill="#DCDCDC" d="M131.2,202h-20c-0.8,0-1.5-0.7-1.5-1.5s0.7-1.5,1.5-1.5h20c0.8,0,1.5,0.7,1.5,1.5S132,202,131.2,202z"
							/>
					</g>
				</g>
				<g>
					<rect x="166.4" y="65.7" fill="#8F3E51" width="29.4" height="19"/>
				</g>
				<g>
					<g>
						<path fill="#DCDCDC" d="M237.1,69h-34.8c-0.8,0-1.5-0.2-1.5-1s0.7-1,1.5-1h34.8c0.8,0,1.5,0.2,1.5,1S237.9,69,237.1,69z"/>
					</g>
					<g>
						<path fill="#DCDCDC" d="M231.9,76h-29.6c-0.8,0-1.5-0.7-1.5-1.5s0.7-1.5,1.5-1.5h29.6c0.8,0,1.5,0.7,1.5,1.5
							S232.7,76,231.9,76z"/>
					</g>
					<g>
						<path fill="#DCDCDC" d="M222.3,83h-20c-0.8,0-1.5-0.7-1.5-1.5s0.7-1.5,1.5-1.5h20c0.8,0,1.5,0.7,1.5,1.5S223.1,83,222.3,83z"
							/>
					</g>
				</g>
				<g>
					<rect x="166.4" y="95.5" fill="#2E6F97" width="29.4" height="19"/>
				</g>
				<g>
					<g>
						<path fill="#DCDCDC" d="M237.1,99h-34.8c-0.8,0-1.5-0.7-1.5-1.5s0.7-1.5,1.5-1.5h34.8c0.8,0,1.5,0.7,1.5,1.5
							S237.9,99,237.1,99z"/>
					</g>
					<g>
						<path fill="#DCDCDC" d="M231.9,106h-29.6c-0.8,0-1.5-0.7-1.5-1.5s0.7-1.5,1.5-1.5h29.6c0.8,0,1.5,0.7,1.5,1.5
							S232.7,106,231.9,106z"/>
					</g>
					<g>
						<path fill="#DCDCDC" d="M222.3,112h-20c-0.8,0-1.5-0.7-1.5-1.5s0.7-1.5,1.5-1.5h20c0.8,0,1.5,0.7,1.5,1.5S223.1,112,222.3,112
							z"/>
					</g>
				</g>
				<g>
					<rect x="166.4" y="125.3" fill="#57BBB4" width="29.4" height="19"/>
				</g>
				<g>
					<g>
						<path fill="#DCDCDC" d="M237.1,129h-34.8c-0.8,0-1.5-0.7-1.5-1.5s0.7-1.5,1.5-1.5h34.8c0.8,0,1.5,0.7,1.5,1.5
							S237.9,129,237.1,129z"/>
					</g>
					<g>
						<path fill="#DCDCDC" d="M231.9,136h-29.6c-0.8,0-1.5-0.7-1.5-1.5s0.7-1.5,1.5-1.5h29.6c0.8,0,1.5,0.7,1.5,1.5
							S232.7,136,231.9,136z"/>
					</g>
					<g>
						<path fill="#DCDCDC" d="M222.3,143h-20c-0.8,0-1.5-0.7-1.5-1.5s0.7-1.5,1.5-1.5h20c0.8,0,1.5,0.7,1.5,1.5S223.1,143,222.3,143
							z"/>
					</g>
				</g>
				<g>
					<rect x="166.4" y="155.1" fill="#3FACCF" width="29.4" height="19"/>
				</g>
				<g>
					<g>
						<path fill="#DCDCDC" d="M237.1,159h-34.8c-0.8,0-1.5-0.7-1.5-1.5s0.7-1.5,1.5-1.5h34.8c0.8,0,1.5,0.7,1.5,1.5
							S237.9,159,237.1,159z"/>
					</g>
					<g>
						<path fill="#DCDCDC" d="M231.9,166h-29.6c-0.8,0-1.5-0.7-1.5-1.5s0.7-1.5,1.5-1.5h29.6c0.8,0,1.5,0.7,1.5,1.5
							S232.7,166,231.9,166z"/>
					</g>
					<g>
						<path fill="#DCDCDC" d="M222.3,172h-20c-0.8,0-1.5-0.7-1.5-1.5s0.7-1.5,1.5-1.5h20c0.8,0,1.5,0.7,1.5,1.5S223.1,172,222.3,172
							z"/>
					</g>
				</g>
				<g>
					<rect x="166.4" y="184.9" fill="#F88461" width="29.4" height="19"/>
				</g>
				<g>
					<g>
						<path fill="#DCDCDC" d="M237.1,189h-34.8c-0.8,0-1.5-0.7-1.5-1.5s0.7-1.5,1.5-1.5h34.8c0.8,0,1.5,0.7,1.5,1.5
							S237.9,189,237.1,189z"/>
					</g>
					<g>
						<path fill="#DCDCDC" d="M231.9,195h-29.6c-0.8,0-1.5-0.7-1.5-1.5s0.7-1.5,1.5-1.5h29.6c0.8,0,1.5,0.7,1.5,1.5
							S232.7,195,231.9,195z"/>
					</g>
					<g>
						<path fill="#DCDCDC" d="M222.3,202h-20c-0.8,0-1.5-0.7-1.5-1.5s0.7-1.5,1.5-1.5h20c0.8,0,1.5,0.7,1.5,1.5S223.1,202,222.3,202
							z"/>
					</g>
				</g>
				<g>
					<rect x="257.1" y="65.7" fill="#F88461" width="29.4" height="19"/>
				</g>
				<g>
					<g>
						<path fill="#DCDCDC" d="M327.4,69h-34.8c-0.8,0-1.5-0.2-1.5-1s0.7-1,1.5-1h34.8c0.8,0,1.5,0.2,1.5,1S328.2,69,327.4,69z"/>
					</g>
					<g>
						<path fill="#DCDCDC" d="M322.2,76h-29.6c-0.8,0-1.5-0.7-1.5-1.5s0.7-1.5,1.5-1.5h29.6c0.8,0,1.5,0.7,1.5,1.5S323,76,322.2,76z
							"/>
					</g>
					<g>
						<path fill="#DCDCDC" d="M312.6,83h-20c-0.8,0-1.5-0.7-1.5-1.5s0.7-1.5,1.5-1.5h20c0.8,0,1.5,0.7,1.5,1.5S313.4,83,312.6,83z"
							/>
					</g>
				</g>
				<g>
					<rect x="257.1" y="95.5" fill="#E0545C" width="29.4" height="19"/>
				</g>
				<g>
					<g>
						<path fill="#DCDCDC" d="M327.4,99h-34.8c-0.8,0-1.5-0.7-1.5-1.5s0.7-1.5,1.5-1.5h34.8c0.8,0,1.5,0.7,1.5,1.5
							S328.2,99,327.4,99z"/>
					</g>
					<g>
						<path fill="#DCDCDC" d="M322.2,106h-29.6c-0.8,0-1.5-0.7-1.5-1.5s0.7-1.5,1.5-1.5h29.6c0.8,0,1.5,0.7,1.5,1.5
							S323,106,322.2,106z"/>
					</g>
					<g>
						<path fill="#DCDCDC" d="M312.6,112h-20c-0.8,0-1.5-0.7-1.5-1.5s0.7-1.5,1.5-1.5h20c0.8,0,1.5,0.7,1.5,1.5S313.4,112,312.6,112
							z"/>
					</g>
				</g>
				<g>
					<rect x="257.1" y="125.3" fill="#6F5E90" width="29.4" height="19"/>
				</g>
				<g>
					<g>
						<path fill="#DCDCDC" d="M327.4,129h-34.8c-0.8,0-1.5-0.7-1.5-1.5s0.7-1.5,1.5-1.5h34.8c0.8,0,1.5,0.7,1.5,1.5
							S328.2,129,327.4,129z"/>
					</g>
					<g>
						<path fill="#DCDCDC" d="M322.2,136h-29.6c-0.8,0-1.5-0.7-1.5-1.5s0.7-1.5,1.5-1.5h29.6c0.8,0,1.5,0.7,1.5,1.5
							S323,136,322.2,136z"/>
					</g>
					<g>
						<path fill="#DCDCDC" d="M312.6,143h-20c-0.8,0-1.5-0.7-1.5-1.5s0.7-1.5,1.5-1.5h20c0.8,0,1.5,0.7,1.5,1.5S313.4,143,312.6,143
							z"/>
					</g>
				</g>
				<g>
					<rect x="257.1" y="155.1" fill="#8F3E51" width="29.4" height="19"/>
				</g>
				<g>
					<g>
						<path fill="#DCDCDC" d="M327.4,159h-34.8c-0.8,0-1.5-0.7-1.5-1.5s0.7-1.5,1.5-1.5h34.8c0.8,0,1.5,0.7,1.5,1.5
							S328.2,159,327.4,159z"/>
					</g>
					<g>
						<path fill="#DCDCDC" d="M322.2,166h-29.6c-0.8,0-1.5-0.7-1.5-1.5s0.7-1.5,1.5-1.5h29.6c0.8,0,1.5,0.7,1.5,1.5
							S323,166,322.2,166z"/>
					</g>
					<g>
						<path fill="#DCDCDC" d="M312.6,172h-20c-0.8,0-1.5-0.7-1.5-1.5s0.7-1.5,1.5-1.5h20c0.8,0,1.5,0.7,1.5,1.5S313.4,172,312.6,172
							z"/>
					</g>
				</g>
				<g>
					<rect x="257.1" y="184.9" fill="#E0AA2E" width="29.4" height="19"/>
				</g>
				<g>
					<g>
						<path fill="#DCDCDC" d="M327.4,189h-34.8c-0.8,0-1.5-0.7-1.5-1.5s0.7-1.5,1.5-1.5h34.8c0.8,0,1.5,0.7,1.5,1.5
							S328.2,189,327.4,189z"/>
					</g>
					<g>
						<path fill="#DCDCDC" d="M322.2,195h-29.6c-0.8,0-1.5-0.7-1.5-1.5s0.7-1.5,1.5-1.5h29.6c0.8,0,1.5,0.7,1.5,1.5
							S323,195,322.2,195z"/>
					</g>
					<g>
						<path fill="#DCDCDC" d="M312.6,202h-20c-0.8,0-1.5-0.7-1.5-1.5s0.7-1.5,1.5-1.5h20c0.8,0,1.5,0.7,1.5,1.5S313.4,202,312.6,202
							z"/>
					</g>
				</g>
			</g>
		</g>
	</g>
	<g>
		<g>
			<defs>
				<circle id="SVGID_3_" cx="315.2" cy="116.2" r="63.3"/>
			</defs>
			<clipPath id="SVGID_4_">
				<use xlink:href="#SVGID_3_"  overflow="visible"/>
			</clipPath>
			<g clip-path="url(#SVGID_4_)">
				<g>
					<g>
						<path fill="#404041" d="M163.4,323.9H425c1.1-2.4,1.7-5.1,1.7-7.9V-4.2c0-10.8-9.2-19.7-20.4-19.7h-492
							c-11.2,0-20.4,8.9-20.4,19.7v320.1c0,2.8,0.6,5.5,1.8,7.9h264.5H163.4z"/>
					</g>
					<g>
						<rect x="-79.2" y="1.3" fill="#58595B" width="481.5" height="289.6"/>
					</g>
					<g>
						<path fill="#929497" d="M165.5-8.7c0-2.1-1.8-3.8-3.9-3.8c-2.1,0-3.9,1.7-3.9,3.8c0,2.1,1.8,3.8,3.9,3.8
							C163.7-4.8,165.5-6.6,165.5-8.7z"/>
					</g>
					<g>
						<path fill="#D0D2D3" d="M425,323.9H163.4h-3.3h-264.5h-60.7v3.8h63h234.6c16,0,23.8,0,27.5,0c2.7,0,3.3,0,3.3,0
							c3.7,0,11.6,0,27.5,0h231.7h65.9v-3.8H425z"/>
					</g>
					<g>
						<path fill="#BBBDBF" d="M213.9,323.9c0,0-0.4,3.8-12.8,3.8H117c-12.4,0-12.8-3.8-12.8-3.8"/>
					</g>
					<g>
						<path fill="#E6E7E8" d="M488.6,327.7c0,0-26.8,10.1-106.5,10.1c-79.7,0-220.1,0-220.1,0h1.4c0,0-142.2,0-221.9,0
							c-79.7,0-106.5-10.1-106.5-10.1"/>
					</g>
				</g>
				<g>
					<rect x="-79" y="0.9" fill="#49B78D" width="481.5" height="39.7"/>
				</g>
				<g>
					<rect x="-79" y="39.5" fill="#FFFFFF" width="481.5" height="251.7"/>
				</g>
				<g>
					<circle fill="#FFFFFF" cx="-49.6" cy="20.4" r="12"/>
				</g>
				<g>
					<g>
						<path fill="#FFFFFF" d="M317.3,20.7c0,3.3-3.6,6-8,6h-14c-4.4,0-8-2.7-8-6s3.6-6,8-6h14C313.7,14.7,317.3,17.4,317.3,20.7z"/>
					</g>
					<g>
						<path fill="#FFFFFF" d="M280.8,20.7c0,3.3-3.6,6-8,6h-14c-4.4,0-8-2.7-8-6s3.6-6,8-6h14C277.2,14.7,280.8,17.4,280.8,20.7z"/>
					</g>
					<g>
						<path fill="#FFFFFF" d="M353.8,20.7c0,3.3-3.6,6-8,6h-14c-4.4,0-8-2.7-8-6s3.6-6,8-6h14C350.3,14.7,353.8,17.4,353.8,20.7z"/>
					</g>
					<g>
						<path fill="#FFFFFF" d="M390.4,20.7c0,3.3-3.6,6-8,6h-14c-4.4,0-8-2.7-8-6s3.6-6,8-6h14C386.8,14.7,390.4,17.4,390.4,20.7z"/>
					</g>
				</g>
				<g>
					<defs>
						<rect id="SVGID_5_" x="-79" y="41.5" width="481.5" height="249.7"/>
					</defs>
					<clipPath id="SVGID_6_">
						<use xlink:href="#SVGID_5_"  overflow="visible"/>
					</clipPath>
					<g clip-path="url(#SVGID_6_)">
						<g>
							<g>
								<rect x="-61.6" y="51.4" fill="#3FACCF" width="52.8" height="34.1"/>
							</g>
						</g>
						<g>
							<g>
								<g>
									<path fill="#DCDCDC" d="M64.7,59H2.2c-1.5,0-2.7-2-2.7-3.5S0.7,52,2.2,52h62.5c1.5,0,2.7,2,2.7,3.5S66.1,59,64.7,59z"/>
								</g>
							</g>
							<g>
								<g>
									<path fill="#DCDCDC" d="M55.4,71H2.2c-1.5,0-2.7-1.5-2.7-3s1.2-3,2.7-3h53.2c1.5,0,2.7,1.5,2.7,3S56.8,71,55.4,71z"/>
								</g>
							</g>
							<g>
								<g>
									<path fill="#DCDCDC" d="M38.1,81H2.2c-1.5,0-2.7-0.5-2.7-2s1.2-2,2.7-2h35.9c1.5,0,2.7,0.5,2.7,2S39.6,81,38.1,81z"/>
								</g>
							</g>
						</g>
						<g>
							<g>
								<rect x="-61.6" y="104.9" fill="#6E5F8C" width="52.8" height="34.1"/>
							</g>
						</g>
						<g>
							<g>
								<g>
									<path fill="#DCDCDC" d="M64.7,112H2.2c-1.5,0-2.7-1.5-2.7-3s1.2-3,2.7-3h62.5c1.5,0,2.7,1.5,2.7,3S66.1,112,64.7,112z"/>
								</g>
							</g>
							<g>
								<g>
									<path fill="#DCDCDC" d="M55.4,124H2.2c-1.5,0-2.7-1.5-2.7-3s1.2-3,2.7-3h53.2c1.5,0,2.7,1.5,2.7,3S56.8,124,55.4,124z"/>
								</g>
							</g>
							<g>
								<g>
									<path fill="#DCDCDC" d="M38.1,135H2.2c-1.5,0-2.7-0.5-2.7-2s1.2-2,2.7-2h35.9c1.5,0,2.7,0.5,2.7,2S39.6,135,38.1,135z"/>
								</g>
							</g>
						</g>
						<g>
							<g>
								<rect x="-61.6" y="158.4" fill="#E0AA2E" width="52.8" height="34.1"/>
							</g>
						</g>
						<g>
							<g>
								<g>
									<path fill="#DCDCDC" d="M64.7,166H2.2c-1.5,0-2.7-1-2.7-2.5s1.2-2.5,2.7-2.5h62.5c1.5,0,2.7,1,2.7,2.5S66.1,166,64.7,166z"
										/>
								</g>
							</g>
							<g>
								<g>
									<path fill="#DCDCDC" d="M55.4,178H2.2c-1.5,0-2.7-1.5-2.7-3s1.2-3,2.7-3h53.2c1.5,0,2.7,1.5,2.7,3S56.8,178,55.4,178z"/>
								</g>
							</g>
							<g>
								<g>
									<path fill="#DCDCDC" d="M38.1,190H2.2c-1.5,0-2.7-0.5-2.7-2s1.2-2,2.7-2h35.9c1.5,0,2.7,0.5,2.7,2S39.6,190,38.1,190z"/>
								</g>
							</g>
						</g>
						<g>
							<g>
								<rect x="-61.6" y="211.9" fill="#E0545C" width="52.8" height="34.1"/>
							</g>
						</g>
						<g>
							<g>
								<g>
									<path fill="#DCDCDC" d="M64.7,219H2.2c-1.5,0-2.7-0.5-2.7-2s1.2-2,2.7-2h62.5c1.5,0,2.7,0.5,2.7,2S66.1,219,64.7,219z"/>
								</g>
							</g>
							<g>
								<g>
									<path fill="#DCDCDC" d="M55.4,232H2.2c-1.5,0-2.7-1.5-2.7-3s1.2-3,2.7-3h53.2c1.5,0,2.7,1.5,2.7,3S56.8,232,55.4,232z"/>
								</g>
							</g>
							<g>
								<g>
									<path fill="#DCDCDC" d="M38.1,243H2.2c-1.5,0-2.7-1-2.7-2.5s1.2-2.5,2.7-2.5h35.9c1.5,0,2.7,1,2.7,2.5S39.6,243,38.1,243z"
										/>
								</g>
							</g>
						</g>
						<g>
							<g>
								<rect x="-61.6" y="265.4" fill="#2E6F97" width="52.8" height="34.1"/>
							</g>
						</g>
						<g>
							<g>
								<g>
									<path fill="#DCDCDC" d="M64.7,273H2.2c-1.5,0-2.7-1.5-2.7-3s1.2-3,2.7-3h62.5c1.5,0,2.7,1.5,2.7,3S66.1,273,64.7,273z"/>
								</g>
							</g>
							<g>
								<g>
									<path fill="#DCDCDC" d="M55.4,283H2.2c-1.5,0-2.7-0.5-2.7-2s1.2-2,2.7-2h53.2c1.5,0,2.7,0.5,2.7,2S56.8,283,55.4,283z"/>
								</g>
							</g>
							<g>
								<g>
									<path fill="#DCDCDC" d="M38.1,297H2.2c-1.5,0-2.7-1.5-2.7-3s1.2-3,2.7-3h35.9c1.5,0,2.7,1.5,2.7,3S39.6,297,38.1,297z"/>
								</g>
							</g>
						</g>
						<g>
							<g>
								<rect x="101.2" y="51.4" fill="#8F3E51" width="52.8" height="34.1"/>
							</g>
						</g>
						<g>
							<g>
								<g>
									<path fill="#DCDCDC" d="M228.2,59h-62.5c-1.5,0-2.7-2-2.7-3.5s1.2-3.5,2.7-3.5h62.5c1.5,0,2.7,2,2.7,3.5S229.6,59,228.2,59
										z"/>
								</g>
							</g>
							<g>
								<g>
									<path fill="#DCDCDC" d="M218.9,71h-53.2c-1.5,0-2.7-1.5-2.7-3s1.2-3,2.7-3h53.2c1.5,0,2.7,1.5,2.7,3S220.3,71,218.9,71z"/>
								</g>
							</g>
							<g>
								<g>
									<path fill="#DCDCDC" d="M201.6,81h-35.9c-1.5,0-2.7-0.5-2.7-2s1.2-2,2.7-2h35.9c1.5,0,2.7,0.5,2.7,2S203,81,201.6,81z"/>
								</g>
							</g>
						</g>
						<g>
							<g>
								<rect x="101.2" y="104.9" fill="#2E6F97" width="52.8" height="34.1"/>
							</g>
						</g>
						<g>
							<g>
								<g>
									<path fill="#DCDCDC" d="M228.2,112h-62.5c-1.5,0-2.7-1.5-2.7-3s1.2-3,2.7-3h62.5c1.5,0,2.7,1.5,2.7,3S229.6,112,228.2,112z
										"/>
								</g>
							</g>
							<g>
								<g>
									<path fill="#DCDCDC" d="M218.9,124h-53.2c-1.5,0-2.7-1.5-2.7-3s1.2-3,2.7-3h53.2c1.5,0,2.7,1.5,2.7,3S220.3,124,218.9,124z
										"/>
								</g>
							</g>
							<g>
								<g>
									<path fill="#DCDCDC" d="M201.6,135h-35.9c-1.5,0-2.7-0.5-2.7-2s1.2-2,2.7-2h35.9c1.5,0,2.7,0.5,2.7,2S203,135,201.6,135z"
										/>
								</g>
							</g>
						</g>
						<g>
							<g>
								<rect x="101.2" y="158.4" fill="#57BBB4" width="52.8" height="34.1"/>
							</g>
						</g>
						<g>
							<g>
								<g>
									<path fill="#DCDCDC" d="M228.2,166h-62.5c-1.5,0-2.7-1-2.7-2.5s1.2-2.5,2.7-2.5h62.5c1.5,0,2.7,1,2.7,2.5
										S229.6,166,228.2,166z"/>
								</g>
							</g>
							<g>
								<g>
									<path fill="#DCDCDC" d="M218.9,178h-53.2c-1.5,0-2.7-1.5-2.7-3s1.2-3,2.7-3h53.2c1.5,0,2.7,1.5,2.7,3S220.3,178,218.9,178z
										"/>
								</g>
							</g>
							<g>
								<g>
									<path fill="#DCDCDC" d="M201.6,190h-35.9c-1.5,0-2.7-0.5-2.7-2s1.2-2,2.7-2h35.9c1.5,0,2.7,0.5,2.7,2S203,190,201.6,190z"
										/>
								</g>
							</g>
						</g>
						<g>
							<g>
								<rect x="101.2" y="211.9" fill="#3FACCF" width="52.8" height="34.1"/>
							</g>
						</g>
						<g>
							<g>
								<g>
									<path fill="#DCDCDC" d="M228.2,219h-62.5c-1.5,0-2.7-0.5-2.7-2s1.2-2,2.7-2h62.5c1.5,0,2.7,0.5,2.7,2S229.6,219,228.2,219z
										"/>
								</g>
							</g>
							<g>
								<g>
									<path fill="#DCDCDC" d="M218.9,232h-53.2c-1.5,0-2.7-1.5-2.7-3s1.2-3,2.7-3h53.2c1.5,0,2.7,1.5,2.7,3S220.3,232,218.9,232z
										"/>
								</g>
							</g>
							<g>
								<g>
									<path fill="#DCDCDC" d="M201.6,243h-35.9c-1.5,0-2.7-1-2.7-2.5s1.2-2.5,2.7-2.5h35.9c1.5,0,2.7,1,2.7,2.5
										S203,243,201.6,243z"/>
								</g>
							</g>
						</g>
						<g>
							<g>
								<rect x="101.2" y="265.4" fill="#F88461" width="52.8" height="34.1"/>
							</g>
						</g>
						<g>
							<g>
								<g>
									<path fill="#DCDCDC" d="M228.2,273h-62.5c-1.5,0-2.7-1.5-2.7-3s1.2-3,2.7-3h62.5c1.5,0,2.7,1.5,2.7,3S229.6,273,228.2,273z
										"/>
								</g>
							</g>
							<g>
								<g>
									<path fill="#DCDCDC" d="M218.9,283h-53.2c-1.5,0-2.7-0.5-2.7-2s1.2-2,2.7-2h53.2c1.5,0,2.7,0.5,2.7,2S220.3,283,218.9,283z
										"/>
								</g>
							</g>
							<g>
								<g>
									<path fill="#DCDCDC" d="M201.6,297h-35.9c-1.5,0-2.7-1.5-2.7-3s1.2-3,2.7-3h35.9c1.5,0,2.7,1.5,2.7,3S203,297,201.6,297z"
										/>
								</g>
							</g>
						</g>
						<g>
							<g>
								<rect x="264.1" y="51.4" fill="#F88461" width="52.8" height="34.1"/>
							</g>
						</g>
						<g>
							<g>
								<g>
									<path fill="#DCDCDC" d="M390.3,59h-62.5c-1.5,0-2.7-2-2.7-3.5s1.2-3.5,2.7-3.5h62.5c1.5,0,2.7,2,2.7,3.5S391.8,59,390.3,59
										z"/>
								</g>
							</g>
							<g>
								<g>
									<path fill="#DCDCDC" d="M381,71h-53.2c-1.5,0-2.7-1.5-2.7-3s1.2-3,2.7-3H381c1.5,0,2.7,1.5,2.7,3S382.5,71,381,71z"/>
								</g>
							</g>
							<g>
								<g>
									<path fill="#DCDCDC" d="M363.7,81h-35.9c-1.5,0-2.7-0.5-2.7-2s1.2-2,2.7-2h35.9c1.5,0,2.7,0.5,2.7,2S365.2,81,363.7,81z"/>
								</g>
							</g>
						</g>
						<g>
							<g>
								<rect x="264.1" y="104.9" fill="#E0545C" width="52.8" height="34.1"/>
							</g>
						</g>
						<g>
							<g>
								<g>
									<path fill="#DCDCDC" d="M390.3,112h-62.5c-1.5,0-2.7-1.5-2.7-3s1.2-3,2.7-3h62.5c1.5,0,2.7,1.5,2.7,3S391.8,112,390.3,112z
										"/>
								</g>
							</g>
							<g>
								<g>
									<path fill="#DCDCDC" d="M381,124h-53.2c-1.5,0-2.7-1.5-2.7-3s1.2-3,2.7-3H381c1.5,0,2.7,1.5,2.7,3S382.5,124,381,124z"/>
								</g>
							</g>
							<g>
								<g>
									<path fill="#DCDCDC" d="M363.7,135h-35.9c-1.5,0-2.7-0.5-2.7-2s1.2-2,2.7-2h35.9c1.5,0,2.7,0.5,2.7,2S365.2,135,363.7,135z
										"/>
								</g>
							</g>
						</g>
						<g>
							<g>
								<rect x="264.1" y="158.4" fill="#6F5E90" width="52.8" height="34.1"/>
							</g>
						</g>
						<g>
							<g>
								<g>
									<path fill="#DCDCDC" d="M390.3,166h-62.5c-1.5,0-2.7-1-2.7-2.5s1.2-2.5,2.7-2.5h62.5c1.5,0,2.7,1,2.7,2.5
										S391.8,166,390.3,166z"/>
								</g>
							</g>
							<g>
								<g>
									<path fill="#DCDCDC" d="M381,178h-53.2c-1.5,0-2.7-1.5-2.7-3s1.2-3,2.7-3H381c1.5,0,2.7,1.5,2.7,3S382.5,178,381,178z"/>
								</g>
							</g>
							<g>
								<g>
									<path fill="#DCDCDC" d="M363.7,190h-35.9c-1.5,0-2.7-0.5-2.7-2s1.2-2,2.7-2h35.9c1.5,0,2.7,0.5,2.7,2S365.2,190,363.7,190z
										"/>
								</g>
							</g>
						</g>
						<g>
							<g>
								<rect x="264.1" y="211.9" fill="#8F3E51" width="52.8" height="34.1"/>
							</g>
						</g>
						<g>
							<g>
								<g>
									<path fill="#DCDCDC" d="M390.3,219h-62.5c-1.5,0-2.7-0.5-2.7-2s1.2-2,2.7-2h62.5c1.5,0,2.7,0.5,2.7,2S391.8,219,390.3,219z
										"/>
								</g>
							</g>
							<g>
								<g>
									<path fill="#DCDCDC" d="M381,232h-53.2c-1.5,0-2.7-1.5-2.7-3s1.2-3,2.7-3H381c1.5,0,2.7,1.5,2.7,3S382.5,232,381,232z"/>
								</g>
							</g>
							<g>
								<g>
									<path fill="#DCDCDC" d="M363.7,243h-35.9c-1.5,0-2.7-1-2.7-2.5s1.2-2.5,2.7-2.5h35.9c1.5,0,2.7,1,2.7,2.5
										S365.2,243,363.7,243z"/>
								</g>
							</g>
						</g>
						<g>
							<g>
								<rect x="264.1" y="265.4" fill="#E0AA2E" width="52.8" height="34.1"/>
							</g>
						</g>
						<g>
							<g>
								<g>
									<path fill="#DCDCDC" d="M390.3,273h-62.5c-1.5,0-2.7-1.5-2.7-3s1.2-3,2.7-3h62.5c1.5,0,2.7,1.5,2.7,3S391.8,273,390.3,273z
										"/>
								</g>
							</g>
							<g>
								<g>
									<path fill="#DCDCDC" d="M381,283h-53.2c-1.5,0-2.7-0.5-2.7-2s1.2-2,2.7-2H381c1.5,0,2.7,0.5,2.7,2S382.5,283,381,283z"/>
								</g>
							</g>
							<g>
								<g>
									<path fill="#DCDCDC" d="M363.7,297h-35.9c-1.5,0-2.7-1.5-2.7-3s1.2-3,2.7-3h35.9c1.5,0,2.7,1.5,2.7,3S365.2,297,363.7,297z
										"/>
								</g>
							</g>
						</g>
					</g>
				</g>
			</g>
		</g>
		<g>
			<path fill="#EAEAEA" d="M315.2,181c-35.7,0-64.8-29.1-64.8-64.8s29.1-64.8,64.8-64.8s64.8,29.1,64.8,64.8S350.9,181,315.2,181z
				 M315.2,54.4c-34.1,0-61.8,27.7-61.8,61.8s27.7,61.8,61.8,61.8s61.8-27.7,61.8-61.8S349.2,54.4,315.2,54.4z"/>
		</g>
	</g>
</g>
</svg>
