<?xml version="1.0" encoding="utf-8"?>
<!-- Generator: Adobe Illustrator 18.1.1, SVG Export Plug-In . SVG Version: 6.00 Build 0)  -->
<svg version="1.1" id="Layer_1" xmlns="http://www.w3.org/2000/svg" xmlns:xlink="http://www.w3.org/1999/xlink" x="0px" y="0px"
	 viewBox="0 0 400 250" enable-background="new 0 0 400 250" xml:space="preserve">
<g>
	<g>
		<g>
			<g>
				<path fill="#E7E8EA" d="M197,243c0,1.7-1.3,3-3,3H16c-1.7,0-3-1.3-3-3V7c0-1.7,1.3-3,3-3h178c1.7,0,3,1.3,3,3V243z"/>
			</g>
			<g>
				<path fill="#E7E8EA" d="M194.5,241.1c0,1.6-1.4,3-3,3H18c-1.6,0-3-1.4-3-3V10c0-1.6,1.4-3,3-3h173.5c1.6,0,3,1.3,3,3V241.1z"/>
			</g>
			<g>
				<path fill="#F7F7F7" d="M194.5,241.1c0,1.6-1.4,3-3,3H18c-1.6,0-3-1.4-3-3V10c0-1.6,1.4-3,3-3h173.5c1.6,0,3,1.3,3,3V241.1z"/>
			</g>
		</g>
		<g opacity="0.5">
			<rect x="103.7" y="89.4" fill="#2E6F97" width="82.9" height="33.3"/>
		</g>
		<g>
			<path fill="#DCDCDC" d="M116,46H27c-1.4,0-2.5-1.1-2.5-2.5S25.6,41,27,41h89c1.4,0,2.5,1.1,2.5,2.5S117.4,46,116,46z"/>
		</g>
		<g>
			<path fill="#DCDCDC" d="M148,65H91c-1.4,0-2.5-1.1-2.5-2.5S89.6,60,91,60h57c1.4,0,2.5,1.1,2.5,2.5S149.4,65,148,65z"/>
		</g>
		<g>
			<path fill="#DCDCDC" d="M187,75h-37c-1.4,0-2.5-1.1-2.5-2.5s1.1-2.5,2.5-2.5h37c1.4,0,2.5,1.1,2.5,2.5S188.4,75,187,75z"/>
		</g>
		<g>
			<path fill="#DCDCDC" d="M96,113H27c-1.4,0-2.5-1.1-2.5-2.5s1.1-2.5,2.5-2.5h69c1.4,0,2.5,1.1,2.5,2.5S97.4,113,96,113z"/>
		</g>
		<g>
			<path fill="#DCDCDC" d="M187,141H27c-1.4,0-2.5-1.1-2.5-2.5s1.1-2.5,2.5-2.5h160c1.4,0,2.5,1.1,2.5,2.5S188.4,141,187,141z"/>
		</g>
		<g>
			<g>
				<path fill="#DCDCDC" d="M102,180H27c-1.4,0-2.5-1.1-2.5-2.5s1.1-2.5,2.5-2.5h75c1.4,0,2.5,1.1,2.5,2.5S103.4,180,102,180z"/>
			</g>
			<g>
				<path fill="#DCDCDC" d="M187,180h-75c-1.4,0-2.5-1.1-2.5-2.5s1.1-2.5,2.5-2.5h75c1.4,0,2.5,1.1,2.5,2.5S188.4,180,187,180z"/>
			</g>
		</g>
		<g>
			<path fill="#DCDCDC" d="M180,218H27c-1.4,0-2.5-1.1-2.5-2.5s1.1-2.5,2.5-2.5h153c1.4,0,2.5,1.1,2.5,2.5S181.4,218,180,218z"/>
		</g>
		<g opacity="0.5">
			<g>
				<path fill="#3FACCF" d="M187,17H27c-1.4,0-2.5-1.1-2.5-2.5S25.6,12,27,12h160c1.4,0,2.5,1.1,2.5,2.5S188.4,17,187,17z"/>
			</g>
			<g>
				<path fill="#3FACCF" d="M180,27H27c-1.4,0-2.5-1.1-2.5-2.5S25.6,22,27,22h153c1.4,0,2.5,1.1,2.5,2.5S181.4,27,180,27z"/>
			</g>
			<g>
				<path fill="#3FACCF" d="M166,37H27c-1.4,0-2.5-1.1-2.5-2.5S25.6,32,27,32h139c1.4,0,2.5,1.1,2.5,2.5S167.4,37,166,37z"/>
			</g>
			<g>
				<path fill="#3FACCF" d="M84,65H27c-1.4,0-2.5-1.1-2.5-2.5S25.6,60,27,60h57c1.4,0,2.5,1.1,2.5,2.5S85.4,65,84,65z"/>
			</g>
			<g>
				<path fill="#3FACCF" d="M187,65h-32c-1.4,0-2.5-1.1-2.5-2.5s1.1-2.5,2.5-2.5h32c1.4,0,2.5,1.1,2.5,2.5S188.4,65,187,65z"/>
			</g>
			<g>
				<path fill="#3FACCF" d="M143,75H27c-1.4,0-2.5-1.1-2.5-2.5S25.6,70,27,70h116c1.4,0,2.5,1.1,2.5,2.5S144.4,75,143,75z"/>
			</g>
			<g>
				<path fill="#3FACCF" d="M187,84H27c-1.4,0-2.5-1.1-2.5-2.5S25.6,79,27,79h160c1.4,0,2.5,1.1,2.5,2.5S188.4,84,187,84z"/>
			</g>
			<g>
				<path fill="#3FACCF" d="M96,93H27c-1.4,0-2.5-1.1-2.5-2.5S25.6,88,27,88h69c1.4,0,2.5,1.1,2.5,2.5S97.4,93,96,93z"/>
			</g>
			<g>
				<path fill="#3FACCF" d="M96,103H27c-1.4,0-2.5-1.1-2.5-2.5S25.6,98,27,98h69c1.4,0,2.5,1.1,2.5,2.5S97.4,103,96,103z"/>
			</g>
			<g>
				<path fill="#3FACCF" d="M96,123H27c-1.4,0-2.5-1.1-2.5-2.5s1.1-2.5,2.5-2.5h69c1.4,0,2.5,1.1,2.5,2.5S97.4,123,96,123z"/>
			</g>
			<g>
				<path fill="#3FACCF" d="M187,132H27c-1.4,0-2.5-1.1-2.5-2.5s1.1-2.5,2.5-2.5h160c1.4,0,2.5,1.1,2.5,2.5S188.4,132,187,132z"/>
			</g>
			<g>
				<g>
					<path fill="#3FACCF" d="M102,161H27c-1.4,0-2.5-1.1-2.5-2.5s1.1-2.5,2.5-2.5h75c1.4,0,2.5,1.1,2.5,2.5S103.4,161,102,161z"/>
				</g>
				<g>
					<path fill="#3FACCF" d="M187,161h-75c-1.4,0-2.5-1.1-2.5-2.5s1.1-2.5,2.5-2.5h75c1.4,0,2.5,1.1,2.5,2.5S188.4,161,187,161z"/>
				</g>
			</g>
			<g>
				<g>
					<path fill="#3FACCF" d="M102,171H27c-1.4,0-2.5-1.1-2.5-2.5s1.1-2.5,2.5-2.5h75c1.4,0,2.5,1.1,2.5,2.5S103.4,171,102,171z"/>
				</g>
				<g>
					<path fill="#3FACCF" d="M187,171h-75c-1.4,0-2.5-1.1-2.5-2.5s1.1-2.5,2.5-2.5h75c1.4,0,2.5,1.1,2.5,2.5S188.4,171,187,171z"/>
				</g>
			</g>
			<g>
				<g>
					<path fill="#3FACCF" d="M102,189H27c-1.4,0-2.5-1.1-2.5-2.5s1.1-2.5,2.5-2.5h75c1.4,0,2.5,1.1,2.5,2.5S103.4,189,102,189z"/>
				</g>
				<g>
					<path fill="#3FACCF" d="M187,189h-75c-1.4,0-2.5-1.1-2.5-2.5s1.1-2.5,2.5-2.5h75c1.4,0,2.5,1.1,2.5,2.5S188.4,189,187,189z"/>
				</g>
			</g>
			<g>
				<path fill="#3FACCF" d="M187,209H27c-1.4,0-2.5-1.1-2.5-2.5s1.1-2.5,2.5-2.5h160c1.4,0,2.5,1.1,2.5,2.5S188.4,209,187,209z"/>
			</g>
			<g>
				<path fill="#3FACCF" d="M184,227H27c-1.4,0-2.5-1.1-2.5-2.5s1.1-2.5,2.5-2.5h157c1.4,0,2.5,1.1,2.5,2.5S185.4,227,184,227z"/>
			</g>
			<g>
				<path fill="#3FACCF" d="M125,237H27c-1.4,0-2.5-1.1-2.5-2.5s1.1-2.5,2.5-2.5h98c1.4,0,2.5,1.1,2.5,2.5S126.4,237,125,237z"/>
			</g>
		</g>
	</g>
	<g>
		<g>
			<circle fill="#BADDCE" cx="105.1" cy="124.6" r="51.2"/>
			<path fill="#49B78D" d="M105.1,177.3c-29.1,0-52.7-23.7-52.7-52.7s23.7-52.7,52.7-52.7s52.7,23.7,52.7,52.7
				S134.2,177.3,105.1,177.3z M105.1,74.8c-27.4,0-49.7,22.3-49.7,49.7s22.3,49.7,49.7,49.7s49.7-22.3,49.7-49.7
				S132.5,74.8,105.1,74.8z"/>
		</g>
		<g>
			<g>
				<g>
					<path fill="#49B78D" d="M97.1,145.3l-15.3-15c-0.7-0.7-0.7-1.9,0-2.6c0.7-0.7,1.9-0.8,2.6,0l12.4,12.1l28.9-35.1
						c0.7-0.8,1.8-0.9,2.6-0.3c0.8,0.7,0.9,1.8,0.3,2.6L97.1,145.3z"/>
				</g>
			</g>
		</g>
	</g>
</g>
<g>
	<g>
		<g>
			<g>
				<path fill="#E7E8EA" d="M293,118.6c0,0.8-0.6,1.4-1.4,1.4h-85.1c-0.8,0-1.4-0.6-1.4-1.4V5.4c0-0.8,0.6-1.4,1.4-1.4h85.1
					c0.8,0,1.4,0.6,1.4,1.4V118.6z"/>
			</g>
			<g>
				<path fill="#E7E8EA" d="M292.1,117.6c0,0.8-0.6,1.4-1.4,1.4h-83.2c-0.8,0-1.4-0.6-1.4-1.4V6.8c0-0.8,0.6-1.4,1.4-1.4h83.2
					c0.8,0,1.4,0.6,1.4,1.4V117.6z"/>
			</g>
			<g>
				<path fill="#F7F7F7" d="M292.1,117.6c0,0.8-0.6,1.4-1.4,1.4h-83.2c-0.8,0-1.4-0.6-1.4-1.4V6.8c0-0.8,0.6-1.4,1.4-1.4h83.2
					c0.8,0,1.4,0.6,1.4,1.4V117.6z"/>
			</g>
		</g>
		<g opacity="0.5">
			<rect x="248.5" y="44.8" fill="#F88461" width="39.7" height="16"/>
		</g>
		<g>
			<path fill="#DCDCDC" d="M254.4,24h-42.7c-0.7,0-1.2-0.8-1.2-1.5s0.5-1.5,1.2-1.5h42.7c0.7,0,1.2,0.8,1.2,1.5S255.1,24,254.4,24z"
				/>
		</g>
		<g>
			<path fill="#DCDCDC" d="M269.8,33h-27.3c-0.7,0-1.2-0.3-1.2-1s0.5-1,1.2-1h27.3c0.7,0,1.2,0.3,1.2,1S270.4,33,269.8,33z"/>
		</g>
		<g>
			<path fill="#DCDCDC" d="M288.5,38h-17.7c-0.7,0-1.2-0.8-1.2-1.5s0.5-1.5,1.2-1.5h17.7c0.7,0,1.2,0.8,1.2,1.5S289.1,38,288.5,38z"
				/>
		</g>
		<g>
			<path fill="#DCDCDC" d="M244.8,57h-33.1c-0.7,0-1.2-0.8-1.2-1.5s0.5-1.5,1.2-1.5h33.1c0.7,0,1.2,0.8,1.2,1.5S245.5,57,244.8,57z"
				/>
		</g>
		<g>
			<path fill="#DCDCDC" d="M288.5,69h-76.8c-0.7,0-1.2-0.3-1.2-1s0.5-1,1.2-1h76.8c0.7,0,1.2,0.3,1.2,1S289.1,69,288.5,69z"/>
		</g>
		<g>
			<g>
				<path fill="#DCDCDC" d="M247.7,89h-36c-0.7,0-1.2-0.8-1.2-1.5s0.5-1.5,1.2-1.5h36c0.7,0,1.2,0.8,1.2,1.5S248.4,89,247.7,89z"/>
			</g>
			<g>
				<path fill="#DCDCDC" d="M288.5,89h-36c-0.7,0-1.2-0.8-1.2-1.5s0.5-1.5,1.2-1.5h36c0.7,0,1.2,0.8,1.2,1.5S289.1,89,288.5,89z"/>
			</g>
		</g>
		<g>
			<path fill="#DCDCDC" d="M285.1,106h-73.4c-0.7,0-1.2-0.3-1.2-1s0.5-1,1.2-1h73.4c0.7,0,1.2,0.3,1.2,1S285.8,106,285.1,106z"/>
		</g>
		<g opacity="0.5">
			<g>
				<path fill="#E0545C" d="M288.5,10h-76.8c-0.7,0-1.2-0.3-1.2-1s0.5-1,1.2-1h76.8c0.7,0,1.2,0.3,1.2,1S289.1,10,288.5,10z"/>
			</g>
			<g>
				<path fill="#E0545C" d="M285.1,15h-73.4c-0.7,0-1.2-0.3-1.2-1s0.5-1,1.2-1h73.4c0.7,0,1.2,0.3,1.2,1S285.8,15,285.1,15z"/>
			</g>
			<g>
				<path fill="#E0545C" d="M278.4,19h-66.7c-0.7,0-1.2,0.2-1.2-0.5s0.5-0.5,1.2-0.5h66.7c0.7,0,1.2-0.2,1.2,0.5S279.1,19,278.4,19z
					"/>
			</g>
			<g>
				<path fill="#E0545C" d="M239.1,33h-27.3c-0.7,0-1.2-0.3-1.2-1s0.5-1,1.2-1h27.3c0.7,0,1.2,0.3,1.2,1S239.7,33,239.1,33z"/>
			</g>
			<g>
				<path fill="#E0545C" d="M288.5,33h-15.4c-0.7,0-1.2-0.3-1.2-1s0.5-1,1.2-1h15.4c0.7,0,1.2,0.3,1.2,1S289.1,33,288.5,33z"/>
			</g>
			<g>
				<path fill="#E0545C" d="M267.4,38h-55.6c-0.7,0-1.2-0.8-1.2-1.5s0.5-1.5,1.2-1.5h55.6c0.7,0,1.2,0.8,1.2,1.5S268,38,267.4,38z"
					/>
			</g>
			<g>
				<path fill="#E0545C" d="M288.5,42h-76.8c-0.7,0-1.2-0.3-1.2-1s0.5-1,1.2-1h76.8c0.7,0,1.2,0.3,1.2,1S289.1,42,288.5,42z"/>
			</g>
			<g>
				<path fill="#E0545C" d="M244.8,47h-33.1c-0.7,0-1.2-0.8-1.2-1.5s0.5-1.5,1.2-1.5h33.1c0.7,0,1.2,0.8,1.2,1.5S245.5,47,244.8,47z
					"/>
			</g>
			<g>
				<path fill="#E0545C" d="M244.8,52h-33.1c-0.7,0-1.2-0.8-1.2-1.5s0.5-1.5,1.2-1.5h33.1c0.7,0,1.2,0.8,1.2,1.5S245.5,52,244.8,52z
					"/>
			</g>
			<g>
				<path fill="#E0545C" d="M244.8,61h-33.1c-0.7,0-1.2-0.3-1.2-1s0.5-1,1.2-1h33.1c0.7,0,1.2,0.3,1.2,1S245.5,61,244.8,61z"/>
			</g>
			<g>
				<path fill="#E0545C" d="M288.5,65h-76.8c-0.7,0-1.2-0.8-1.2-1.5s0.5-1.5,1.2-1.5h76.8c0.7,0,1.2,0.8,1.2,1.5S289.1,65,288.5,65z
					"/>
			</g>
			<g>
				<g>
					<path fill="#E0545C" d="M247.7,79h-36c-0.7,0-1.2-0.3-1.2-1s0.5-1,1.2-1h36c0.7,0,1.2,0.3,1.2,1S248.4,79,247.7,79z"/>
				</g>
				<g>
					<path fill="#E0545C" d="M288.5,79h-36c-0.7,0-1.2-0.3-1.2-1s0.5-1,1.2-1h36c0.7,0,1.2,0.3,1.2,1S289.1,79,288.5,79z"/>
				</g>
			</g>
			<g>
				<g>
					<path fill="#E0545C" d="M247.7,84h-36c-0.7,0-1.2-0.3-1.2-1s0.5-1,1.2-1h36c0.7,0,1.2,0.3,1.2,1S248.4,84,247.7,84z"/>
				</g>
				<g>
					<path fill="#E0545C" d="M288.5,84h-36c-0.7,0-1.2-0.3-1.2-1s0.5-1,1.2-1h36c0.7,0,1.2,0.3,1.2,1S289.1,84,288.5,84z"/>
				</g>
			</g>
			<g>
				<g>
					<path fill="#E0545C" d="M247.7,93h-36c-0.7,0-1.2-0.3-1.2-1s0.5-1,1.2-1h36c0.7,0,1.2,0.3,1.2,1S248.4,93,247.7,93z"/>
				</g>
				<g>
					<path fill="#E0545C" d="M288.5,93h-36c-0.7,0-1.2-0.3-1.2-1s0.5-1,1.2-1h36c0.7,0,1.2,0.3,1.2,1S289.1,93,288.5,93z"/>
				</g>
			</g>
			<g>
				<path fill="#E0545C" d="M288.5,102h-76.8c-0.7,0-1.2-0.8-1.2-1.5s0.5-1.5,1.2-1.5h76.8c0.7,0,1.2,0.8,1.2,1.5
					S289.1,102,288.5,102z"/>
			</g>
			<g>
				<path fill="#E0545C" d="M287,111h-75.3c-0.7,0-1.2-0.8-1.2-1.5s0.5-1.5,1.2-1.5H287c0.7,0,1.2,0.8,1.2,1.5S287.7,111,287,111z"
					/>
			</g>
			<g>
				<path fill="#E0545C" d="M258.7,116h-47c-0.7,0-1.2-0.8-1.2-1.5s0.5-1.5,1.2-1.5h47c0.7,0,1.2,0.8,1.2,1.5S259.4,116,258.7,116z"
					/>
			</g>
		</g>
	</g>
	<g>
		<g>
			<circle fill="#BADDCE" cx="249.2" cy="61.7" r="24.6"/>
			<path fill="#49B78D" d="M249.2,87c-13.9,0-25.3-11.3-25.3-25.3s11.3-25.3,25.3-25.3s25.3,11.3,25.3,25.3S263.1,87,249.2,87z
				 M249.2,37.9c-13.2,0-23.9,10.7-23.9,23.9s10.7,23.9,23.9,23.9S273,74.9,273,61.7S262.3,37.9,249.2,37.9z"/>
		</g>
		<g>
			<g>
				<g>
					<path fill="#49B78D" d="M245.3,71.6l-7.3-7.2c-0.4-0.3-0.4-0.9,0-1.3c0.3-0.4,0.9-0.4,1.3,0l5.9,5.8l13.9-16.8
						c0.3-0.4,0.9-0.4,1.3-0.1s0.4,0.9,0.1,1.3L245.3,71.6z"/>
				</g>
			</g>
		</g>
	</g>
</g>
<g>
	<g>
		<g>
			<g>
				<path fill="#E7E8EA" d="M387,118.6c0,0.8-0.6,1.4-1.4,1.4h-85.1c-0.8,0-1.4-0.6-1.4-1.4V5.4c0-0.8,0.6-1.4,1.4-1.4h85.1
					c0.8,0,1.4,0.6,1.4,1.4V118.6z"/>
			</g>
			<g>
				<path fill="#E7E8EA" d="M386.2,117.7c0,0.8-0.6,1.4-1.4,1.4h-83.2c-0.8,0-1.4-0.6-1.4-1.4V6.9c0-0.8,0.6-1.4,1.4-1.4h83.2
					c0.8,0,1.4,0.6,1.4,1.4V117.7z"/>
			</g>
			<g>
				<path fill="#F7F7F7" d="M386.2,117.7c0,0.8-0.6,1.4-1.4,1.4h-83.2c-0.8,0-1.4-0.6-1.4-1.4V6.9c0-0.8,0.6-1.4,1.4-1.4h83.2
					c0.8,0,1.4,0.6,1.4,1.4V117.7z"/>
			</g>
		</g>
		<g opacity="0.5">
			<rect x="342.6" y="45" fill="#E0545C" width="39.7" height="16"/>
		</g>
		<g>
			<path fill="#DCDCDC" d="M348.5,24h-42.7c-0.7,0-1.2-0.3-1.2-1s0.5-1,1.2-1h42.7c0.7,0,1.2,0.3,1.2,1S349.2,24,348.5,24z"/>
		</g>
		<g>
			<path fill="#DCDCDC" d="M363.9,33h-27.3c-0.7,0-1.2-0.3-1.2-1s0.5-1,1.2-1h27.3c0.7,0,1.2,0.3,1.2,1S364.5,33,363.9,33z"/>
		</g>
		<g>
			<path fill="#DCDCDC" d="M382.6,38h-17.7c-0.7,0-1.2-0.8-1.2-1.5s0.5-1.5,1.2-1.5h17.7c0.7,0,1.2,0.8,1.2,1.5S383.2,38,382.6,38z"
				/>
		</g>
		<g>
			<path fill="#DCDCDC" d="M338.9,57h-33.1c-0.7,0-1.2-0.8-1.2-1.5s0.5-1.5,1.2-1.5h33.1c0.7,0,1.2,0.8,1.2,1.5S339.6,57,338.9,57z"
				/>
		</g>
		<g>
			<path fill="#DCDCDC" d="M382.6,69h-76.8c-0.7,0-1.2-0.3-1.2-1s0.5-1,1.2-1h76.8c0.7,0,1.2,0.3,1.2,1S383.2,69,382.6,69z"/>
		</g>
		<g>
			<g>
				<path fill="#DCDCDC" d="M341.8,89h-36c-0.7,0-1.2-0.8-1.2-1.5s0.5-1.5,1.2-1.5h36c0.7,0,1.2,0.8,1.2,1.5S342.5,89,341.8,89z"/>
			</g>
			<g>
				<path fill="#DCDCDC" d="M382.6,89h-36c-0.7,0-1.2-0.8-1.2-1.5s0.5-1.5,1.2-1.5h36c0.7,0,1.2,0.8,1.2,1.5S383.2,89,382.6,89z"/>
			</g>
		</g>
		<g>
			<path fill="#DCDCDC" d="M379.2,106h-73.4c-0.7,0-1.2-0.3-1.2-1s0.5-1,1.2-1h73.4c0.7,0,1.2,0.3,1.2,1S379.9,106,379.2,106z"/>
		</g>
		<g opacity="0.5">
			<g>
				<path fill="#E0AA2E" d="M382.6,10h-76.8c-0.7,0-1.2-0.3-1.2-1s0.5-1,1.2-1h76.8c0.7,0,1.2,0.3,1.2,1S383.2,10,382.6,10z"/>
			</g>
			<g>
				<path fill="#E0AA2E" d="M379.2,15h-73.4c-0.7,0-1.2-0.3-1.2-1s0.5-1,1.2-1h73.4c0.7,0,1.2,0.3,1.2,1S379.9,15,379.2,15z"/>
			</g>
			<g>
				<path fill="#E0AA2E" d="M372.5,20h-66.7c-0.7,0-1.2-0.3-1.2-1s0.5-1,1.2-1h66.7c0.7,0,1.2,0.3,1.2,1S373.2,20,372.5,20z"/>
			</g>
			<g>
				<path fill="#E0AA2E" d="M333.2,33h-27.3c-0.7,0-1.2-0.3-1.2-1s0.5-1,1.2-1h27.3c0.7,0,1.2,0.3,1.2,1S333.8,33,333.2,33z"/>
			</g>
			<g>
				<path fill="#E0AA2E" d="M382.6,33h-15.4c-0.7,0-1.2-0.3-1.2-1s0.5-1,1.2-1h15.4c0.7,0,1.2,0.3,1.2,1S383.2,33,382.6,33z"/>
			</g>
			<g>
				<path fill="#E0AA2E" d="M361.5,38h-55.6c-0.7,0-1.2-0.8-1.2-1.5s0.5-1.5,1.2-1.5h55.6c0.7,0,1.2,0.8,1.2,1.5S362.1,38,361.5,38z
					"/>
			</g>
			<g>
				<path fill="#E0AA2E" d="M382.6,42h-76.8c-0.7,0-1.2-0.3-1.2-1s0.5-1,1.2-1h76.8c0.7,0,1.2,0.3,1.2,1S383.2,42,382.6,42z"/>
			</g>
			<g>
				<path fill="#E0AA2E" d="M338.9,47h-33.1c-0.7,0-1.2-0.8-1.2-1.5s0.5-1.5,1.2-1.5h33.1c0.7,0,1.2,0.8,1.2,1.5S339.6,47,338.9,47z
					"/>
			</g>
			<g>
				<path fill="#E0AA2E" d="M338.9,52h-33.1c-0.7,0-1.2-0.8-1.2-1.5s0.5-1.5,1.2-1.5h33.1c0.7,0,1.2,0.8,1.2,1.5S339.6,52,338.9,52z
					"/>
			</g>
			<g>
				<path fill="#E0AA2E" d="M338.9,62h-33.1c-0.7,0-1.2-0.8-1.2-1.5s0.5-1.5,1.2-1.5h33.1c0.7,0,1.2,0.8,1.2,1.5S339.6,62,338.9,62z
					"/>
			</g>
			<g>
				<path fill="#E0AA2E" d="M382.6,65h-76.8c-0.7,0-1.2-0.3-1.2-1s0.5-1,1.2-1h76.8c0.7,0,1.2,0.3,1.2,1S383.2,65,382.6,65z"/>
			</g>
			<g>
				<g>
					<path fill="#E0AA2E" d="M341.8,79h-36c-0.7,0-1.2-0.3-1.2-1s0.5-1,1.2-1h36c0.7,0,1.2,0.3,1.2,1S342.5,79,341.8,79z"/>
				</g>
				<g>
					<path fill="#E0AA2E" d="M382.6,79h-36c-0.7,0-1.2-0.3-1.2-1s0.5-1,1.2-1h36c0.7,0,1.2,0.3,1.2,1S383.2,79,382.6,79z"/>
				</g>
			</g>
			<g>
				<g>
					<path fill="#E0AA2E" d="M341.8,84h-36c-0.7,0-1.2-0.3-1.2-1s0.5-1,1.2-1h36c0.7,0,1.2,0.3,1.2,1S342.5,84,341.8,84z"/>
				</g>
				<g>
					<path fill="#E0AA2E" d="M382.6,84h-36c-0.7,0-1.2-0.3-1.2-1s0.5-1,1.2-1h36c0.7,0,1.2,0.3,1.2,1S383.2,84,382.6,84z"/>
				</g>
			</g>
			<g>
				<g>
					<path fill="#E0AA2E" d="M341.8,93h-36c-0.7,0-1.2-0.3-1.2-1s0.5-1,1.2-1h36c0.7,0,1.2,0.3,1.2,1S342.5,93,341.8,93z"/>
				</g>
				<g>
					<path fill="#E0AA2E" d="M382.6,93h-36c-0.7,0-1.2-0.3-1.2-1s0.5-1,1.2-1h36c0.7,0,1.2,0.3,1.2,1S383.2,93,382.6,93z"/>
				</g>
			</g>
			<g>
				<path fill="#E0AA2E" d="M382.6,103h-76.8c-0.7,0-1.2-0.8-1.2-1.5s0.5-1.5,1.2-1.5h76.8c0.7,0,1.2,0.8,1.2,1.5
					S383.2,103,382.6,103z"/>
			</g>
			<g>
				<path fill="#E0AA2E" d="M381.1,111h-75.3c-0.7,0-1.2-0.8-1.2-1.5s0.5-1.5,1.2-1.5h75.3c0.7,0,1.2,0.8,1.2,1.5
					S381.8,111,381.1,111z"/>
			</g>
			<g>
				<path fill="#E0AA2E" d="M352.8,116h-47c-0.7,0-1.2-0.8-1.2-1.5s0.5-1.5,1.2-1.5h47c0.7,0,1.2,0.8,1.2,1.5S353.5,116,352.8,116z"
					/>
			</g>
		</g>
	</g>
	<g>
		<g>
			<circle fill="#BADDCE" cx="343.3" cy="61.8" r="24.6"/>
			<path fill="#49B78D" d="M343.3,87.1c-13.9,0-25.3-11.3-25.3-25.3s11.3-25.3,25.3-25.3s25.3,11.3,25.3,25.3S357.2,87.1,343.3,87.1
				z M343.3,38c-13.2,0-23.9,10.7-23.9,23.9s10.7,23.9,23.9,23.9s23.9-10.7,23.9-23.9S356.4,38,343.3,38z"/>
		</g>
		<g>
			<g>
				<g>
					<path fill="#49B78D" d="M339.4,71.8l-7.3-7.2c-0.4-0.3-0.4-0.9,0-1.3c0.3-0.4,0.9-0.4,1.3,0l5.9,5.8l13.9-16.8
						c0.3-0.4,0.9-0.4,1.3-0.1c0.4,0.3,0.4,0.9,0.1,1.3L339.4,71.8z"/>
				</g>
			</g>
		</g>
	</g>
</g>
<g>
	<g>
		<g>
			<g>
				<path fill="#E7E8EA" d="M293,244.6c0,0.8-0.6,1.4-1.4,1.4h-85.1c-0.8,0-1.4-0.6-1.4-1.4V131.4c0-0.8,0.6-1.4,1.4-1.4h85.1
					c0.8,0,1.4,0.6,1.4,1.4V244.6z"/>
			</g>
			<g>
				<path fill="#E7E8EA" d="M292.5,243.6c0,0.8-0.6,1.4-1.4,1.4h-83.2c-0.8,0-1.4-0.6-1.4-1.4V132.8c0-0.8,0.6-1.4,1.4-1.4H291
					c0.8,0,1.4,0.6,1.4,1.4V243.6z"/>
			</g>
			<g>
				<path fill="#F7F7F7" d="M292.5,243.6c0,0.8-0.6,1.4-1.4,1.4h-83.2c-0.8,0-1.4-0.6-1.4-1.4V132.8c0-0.8,0.6-1.4,1.4-1.4H291
					c0.8,0,1.4,0.6,1.4,1.4V243.6z"/>
			</g>
		</g>
		<g opacity="0.5">
			<rect x="248.9" y="170.8" fill="#8F3E51" width="39.7" height="16"/>
		</g>
		<g>
			<path fill="#DCDCDC" d="M254.8,150h-42.7c-0.7,0-1.2-0.8-1.2-1.5s0.5-1.5,1.2-1.5h42.7c0.7,0,1.2,0.8,1.2,1.5
				S255.5,150,254.8,150z"/>
		</g>
		<g>
			<path fill="#DCDCDC" d="M270.2,159h-27.3c-0.7,0-1.2-0.3-1.2-1s0.5-1,1.2-1h27.3c0.7,0,1.2,0.3,1.2,1S270.8,159,270.2,159z"/>
		</g>
		<g>
			<path fill="#DCDCDC" d="M288.9,164h-17.7c-0.7,0-1.2-0.8-1.2-1.5s0.5-1.5,1.2-1.5h17.7c0.7,0,1.2,0.8,1.2,1.5
				S289.5,164,288.9,164z"/>
		</g>
		<g>
			<path fill="#DCDCDC" d="M245.2,183h-33.1c-0.7,0-1.2-0.8-1.2-1.5s0.5-1.5,1.2-1.5h33.1c0.7,0,1.2,0.8,1.2,1.5
				S245.9,183,245.2,183z"/>
		</g>
		<g>
			<path fill="#DCDCDC" d="M288.9,195h-76.8c-0.7,0-1.2-0.3-1.2-1s0.5-1,1.2-1h76.8c0.7,0,1.2,0.3,1.2,1S289.5,195,288.9,195z"/>
		</g>
		<g>
			<g>
				<path fill="#DCDCDC" d="M248.1,215h-36c-0.7,0-1.2-0.8-1.2-1.5s0.5-1.5,1.2-1.5h36c0.7,0,1.2,0.8,1.2,1.5S248.8,215,248.1,215z"
					/>
			</g>
			<g>
				<path fill="#DCDCDC" d="M288.9,215h-36c-0.7,0-1.2-0.8-1.2-1.5s0.5-1.5,1.2-1.5h36c0.7,0,1.2,0.8,1.2,1.5S289.5,215,288.9,215z"
					/>
			</g>
		</g>
		<g>
			<path fill="#DCDCDC" d="M285.5,232h-73.4c-0.7,0-1.2-0.3-1.2-1s0.5-1,1.2-1h73.4c0.7,0,1.2,0.3,1.2,1S286.2,232,285.5,232z"/>
		</g>
		<g opacity="0.5">
			<g>
				<path fill="#6E5F8C" d="M288.9,136h-76.8c-0.7,0-1.2-0.3-1.2-1s0.5-1,1.2-1h76.8c0.7,0,1.2,0.3,1.2,1S289.5,136,288.9,136z"/>
			</g>
			<g>
				<path fill="#6E5F8C" d="M285.5,141h-73.4c-0.7,0-1.2-0.3-1.2-1s0.5-1,1.2-1h73.4c0.7,0,1.2,0.3,1.2,1S286.2,141,285.5,141z"/>
			</g>
			<g>
				<path fill="#6E5F8C" d="M278.8,145h-66.7c-0.7,0-1.2,0.2-1.2-0.5s0.5-0.5,1.2-0.5h66.7c0.7,0,1.2-0.2,1.2,0.5
					S279.5,145,278.8,145z"/>
			</g>
			<g>
				<path fill="#6E5F8C" d="M239.5,159h-27.3c-0.7,0-1.2-0.3-1.2-1s0.5-1,1.2-1h27.3c0.7,0,1.2,0.3,1.2,1S240.1,159,239.5,159z"/>
			</g>
			<g>
				<path fill="#6E5F8C" d="M288.9,159h-15.4c-0.7,0-1.2-0.3-1.2-1s0.5-1,1.2-1h15.4c0.7,0,1.2,0.3,1.2,1S289.5,159,288.9,159z"/>
			</g>
			<g>
				<path fill="#6E5F8C" d="M267.8,164h-55.6c-0.7,0-1.2-0.8-1.2-1.5s0.5-1.5,1.2-1.5h55.6c0.7,0,1.2,0.8,1.2,1.5
					S268.4,164,267.8,164z"/>
			</g>
			<g>
				<path fill="#6E5F8C" d="M288.9,168h-76.8c-0.7,0-1.2-0.3-1.2-1s0.5-1,1.2-1h76.8c0.7,0,1.2,0.3,1.2,1S289.5,168,288.9,168z"/>
			</g>
			<g>
				<path fill="#6E5F8C" d="M245.2,173h-33.1c-0.7,0-1.2-0.8-1.2-1.5s0.5-1.5,1.2-1.5h33.1c0.7,0,1.2,0.8,1.2,1.5
					S245.9,173,245.2,173z"/>
			</g>
			<g>
				<path fill="#6E5F8C" d="M245.2,178h-33.1c-0.7,0-1.2-0.8-1.2-1.5s0.5-1.5,1.2-1.5h33.1c0.7,0,1.2,0.8,1.2,1.5
					S245.9,178,245.2,178z"/>
			</g>
			<g>
				<path fill="#6E5F8C" d="M245.2,187h-33.1c-0.7,0-1.2-0.8-1.2-1.5s0.5-1.5,1.2-1.5h33.1c0.7,0,1.2,0.8,1.2,1.5
					S245.9,187,245.2,187z"/>
			</g>
			<g>
				<path fill="#6E5F8C" d="M288.9,191h-76.8c-0.7,0-1.2-0.8-1.2-1.5s0.5-1.5,1.2-1.5h76.8c0.7,0,1.2,0.8,1.2,1.5
					S289.5,191,288.9,191z"/>
			</g>
			<g>
				<g>
					<path fill="#6E5F8C" d="M248.1,205h-36c-0.7,0-1.2-0.3-1.2-1s0.5-1,1.2-1h36c0.7,0,1.2,0.3,1.2,1S248.8,205,248.1,205z"/>
				</g>
				<g>
					<path fill="#6E5F8C" d="M288.9,205h-36c-0.7,0-1.2-0.3-1.2-1s0.5-1,1.2-1h36c0.7,0,1.2,0.3,1.2,1S289.5,205,288.9,205z"/>
				</g>
			</g>
			<g>
				<g>
					<path fill="#6E5F8C" d="M248.1,210h-36c-0.7,0-1.2-0.3-1.2-1s0.5-1,1.2-1h36c0.7,0,1.2,0.3,1.2,1S248.8,210,248.1,210z"/>
				</g>
				<g>
					<path fill="#6E5F8C" d="M288.9,210h-36c-0.7,0-1.2-0.3-1.2-1s0.5-1,1.2-1h36c0.7,0,1.2,0.3,1.2,1S289.5,210,288.9,210z"/>
				</g>
			</g>
			<g>
				<g>
					<path fill="#6E5F8C" d="M248.1,219h-36c-0.7,0-1.2-0.3-1.2-1s0.5-1,1.2-1h36c0.7,0,1.2,0.3,1.2,1S248.8,219,248.1,219z"/>
				</g>
				<g>
					<path fill="#6E5F8C" d="M288.9,219h-36c-0.7,0-1.2-0.3-1.2-1s0.5-1,1.2-1h36c0.7,0,1.2,0.3,1.2,1S289.5,219,288.9,219z"/>
				</g>
			</g>
			<g>
				<path fill="#6E5F8C" d="M288.9,228h-76.8c-0.7,0-1.2-0.8-1.2-1.5s0.5-1.5,1.2-1.5h76.8c0.7,0,1.2,0.8,1.2,1.5
					S289.5,228,288.9,228z"/>
			</g>
			<g>
				<path fill="#6E5F8C" d="M287.4,237h-75.3c-0.7,0-1.2-0.8-1.2-1.5s0.5-1.5,1.2-1.5h75.3c0.7,0,1.2,0.8,1.2,1.5
					S288.1,237,287.4,237z"/>
			</g>
			<g>
				<path fill="#6E5F8C" d="M259.1,242h-47c-0.7,0-1.2-0.8-1.2-1.5s0.5-1.5,1.2-1.5h47c0.7,0,1.2,0.8,1.2,1.5S259.8,242,259.1,242z"
					/>
			</g>
		</g>
	</g>
	<g>
		<g>
			<circle fill="#BADDCE" cx="249.6" cy="187.7" r="24.6"/>
			<path fill="#49B78D" d="M249.6,213c-13.9,0-25.3-11.3-25.3-25.3c0-13.9,11.3-25.3,25.3-25.3c13.9,0,25.3,11.3,25.3,25.3
				C274.9,201.6,263.5,213,249.6,213z M249.6,163.8c-13.2,0-23.9,10.7-23.9,23.9c0,13.2,10.7,23.9,23.9,23.9
				c13.2,0,23.9-10.7,23.9-23.9C273.4,174.5,262.7,163.8,249.6,163.8z"/>
		</g>
		<g>
			<g>
				<g>
					<path fill="#49B78D" d="M245.7,197.6l-7.3-7.2c-0.4-0.3-0.4-0.9,0-1.3c0.3-0.4,0.9-0.4,1.3,0l5.9,5.8l13.9-16.8
						c0.3-0.4,0.9-0.4,1.3-0.1s0.4,0.9,0.1,1.3L245.7,197.6z"/>
				</g>
			</g>
		</g>
	</g>
</g>
<g>
	<g>
		<g>
			<g>
				<path fill="#E7E8EA" d="M387,244.6c0,0.8-0.6,1.4-1.4,1.4h-85.1c-0.8,0-1.4-0.6-1.4-1.4V131.4c0-0.8,0.6-1.4,1.4-1.4h85.1
					c0.8,0,1.4,0.6,1.4,1.4V244.6z"/>
			</g>
			<g>
				<path fill="#E7E8EA" d="M386.2,243.6c0,0.8-0.6,1.4-1.4,1.4h-83.2c-0.8,0-1.4-0.6-1.4-1.4V132.8c0-0.8,0.6-1.4,1.4-1.4h83.2
					c0.8,0,1.4,0.6,1.4,1.4V243.6z"/>
			</g>
			<g>
				<path fill="#F7F7F7" d="M386.2,243.6c0,0.8-0.6,1.4-1.4,1.4h-83.2c-0.8,0-1.4-0.6-1.4-1.4V132.8c0-0.8,0.6-1.4,1.4-1.4h83.2
					c0.8,0,1.4,0.6,1.4,1.4V243.6z"/>
			</g>
		</g>
		<g opacity="0.5">
			<rect x="342.6" y="170.8" fill="#3FACCF" width="39.7" height="16"/>
		</g>
		<g>
			<path fill="#DCDCDC" d="M348.5,150h-42.7c-0.7,0-1.2-0.8-1.2-1.5s0.5-1.5,1.2-1.5h42.7c0.7,0,1.2,0.8,1.2,1.5
				S349.2,150,348.5,150z"/>
		</g>
		<g>
			<path fill="#DCDCDC" d="M363.9,159h-27.3c-0.7,0-1.2-0.3-1.2-1s0.5-1,1.2-1h27.3c0.7,0,1.2,0.3,1.2,1S364.5,159,363.9,159z"/>
		</g>
		<g>
			<path fill="#DCDCDC" d="M382.6,164h-17.7c-0.7,0-1.2-0.8-1.2-1.5s0.5-1.5,1.2-1.5h17.7c0.7,0,1.2,0.8,1.2,1.5
				S383.2,164,382.6,164z"/>
		</g>
		<g>
			<path fill="#DCDCDC" d="M338.9,183h-33.1c-0.7,0-1.2-0.8-1.2-1.5s0.5-1.5,1.2-1.5h33.1c0.7,0,1.2,0.8,1.2,1.5
				S339.6,183,338.9,183z"/>
		</g>
		<g>
			<path fill="#DCDCDC" d="M382.6,195h-76.8c-0.7,0-1.2-0.3-1.2-1s0.5-1,1.2-1h76.8c0.7,0,1.2,0.3,1.2,1S383.2,195,382.6,195z"/>
		</g>
		<g>
			<g>
				<path fill="#DCDCDC" d="M341.8,215h-36c-0.7,0-1.2-0.8-1.2-1.5s0.5-1.5,1.2-1.5h36c0.7,0,1.2,0.8,1.2,1.5S342.5,215,341.8,215z"
					/>
			</g>
			<g>
				<path fill="#DCDCDC" d="M382.6,215h-36c-0.7,0-1.2-0.8-1.2-1.5s0.5-1.5,1.2-1.5h36c0.7,0,1.2,0.8,1.2,1.5S383.2,215,382.6,215z"
					/>
			</g>
		</g>
		<g>
			<path fill="#DCDCDC" d="M379.2,232h-73.4c-0.7,0-1.2-0.3-1.2-1s0.5-1,1.2-1h73.4c0.7,0,1.2,0.3,1.2,1S379.9,232,379.2,232z"/>
		</g>
		<g opacity="0.5">
			<g>
				<path fill="#57BBB4" d="M382.6,136h-76.8c-0.7,0-1.2-0.3-1.2-1s0.5-1,1.2-1h76.8c0.7,0,1.2,0.3,1.2,1S383.2,136,382.6,136z"/>
			</g>
			<g>
				<path fill="#57BBB4" d="M379.2,141h-73.4c-0.7,0-1.2-0.3-1.2-1s0.5-1,1.2-1h73.4c0.7,0,1.2,0.3,1.2,1S379.9,141,379.2,141z"/>
			</g>
			<g>
				<path fill="#57BBB4" d="M372.5,145h-66.7c-0.7,0-1.2,0.2-1.2-0.5s0.5-0.5,1.2-0.5h66.7c0.7,0,1.2-0.2,1.2,0.5
					S373.2,145,372.5,145z"/>
			</g>
			<g>
				<path fill="#57BBB4" d="M333.2,159h-27.3c-0.7,0-1.2-0.3-1.2-1s0.5-1,1.2-1h27.3c0.7,0,1.2,0.3,1.2,1S333.8,159,333.2,159z"/>
			</g>
			<g>
				<path fill="#57BBB4" d="M382.6,159h-15.4c-0.7,0-1.2-0.3-1.2-1s0.5-1,1.2-1h15.4c0.7,0,1.2,0.3,1.2,1S383.2,159,382.6,159z"/>
			</g>
			<g>
				<path fill="#57BBB4" d="M361.5,164h-55.6c-0.7,0-1.2-0.8-1.2-1.5s0.5-1.5,1.2-1.5h55.6c0.7,0,1.2,0.8,1.2,1.5
					S362.1,164,361.5,164z"/>
			</g>
			<g>
				<path fill="#57BBB4" d="M382.6,168h-76.8c-0.7,0-1.2-0.3-1.2-1s0.5-1,1.2-1h76.8c0.7,0,1.2,0.3,1.2,1S383.2,168,382.6,168z"/>
			</g>
			<g>
				<path fill="#57BBB4" d="M338.9,173h-33.1c-0.7,0-1.2-0.8-1.2-1.5s0.5-1.5,1.2-1.5h33.1c0.7,0,1.2,0.8,1.2,1.5
					S339.6,173,338.9,173z"/>
			</g>
			<g>
				<path fill="#57BBB4" d="M338.9,178h-33.1c-0.7,0-1.2-0.8-1.2-1.5s0.5-1.5,1.2-1.5h33.1c0.7,0,1.2,0.8,1.2,1.5
					S339.6,178,338.9,178z"/>
			</g>
			<g>
				<path fill="#57BBB4" d="M338.9,187h-33.1c-0.7,0-1.2-0.8-1.2-1.5s0.5-1.5,1.2-1.5h33.1c0.7,0,1.2,0.8,1.2,1.5
					S339.6,187,338.9,187z"/>
			</g>
			<g>
				<path fill="#57BBB4" d="M382.6,191h-76.8c-0.7,0-1.2-0.8-1.2-1.5s0.5-1.5,1.2-1.5h76.8c0.7,0,1.2,0.8,1.2,1.5
					S383.2,191,382.6,191z"/>
			</g>
			<g>
				<g>
					<path fill="#57BBB4" d="M341.8,205h-36c-0.7,0-1.2-0.3-1.2-1s0.5-1,1.2-1h36c0.7,0,1.2,0.3,1.2,1S342.5,205,341.8,205z"/>
				</g>
				<g>
					<path fill="#57BBB4" d="M382.6,205h-36c-0.7,0-1.2-0.3-1.2-1s0.5-1,1.2-1h36c0.7,0,1.2,0.3,1.2,1S383.2,205,382.6,205z"/>
				</g>
			</g>
			<g>
				<g>
					<path fill="#57BBB4" d="M341.8,210h-36c-0.7,0-1.2-0.3-1.2-1s0.5-1,1.2-1h36c0.7,0,1.2,0.3,1.2,1S342.5,210,341.8,210z"/>
				</g>
				<g>
					<path fill="#57BBB4" d="M382.6,210h-36c-0.7,0-1.2-0.3-1.2-1s0.5-1,1.2-1h36c0.7,0,1.2,0.3,1.2,1S383.2,210,382.6,210z"/>
				</g>
			</g>
			<g>
				<g>
					<path fill="#57BBB4" d="M341.8,219h-36c-0.7,0-1.2-0.3-1.2-1s0.5-1,1.2-1h36c0.7,0,1.2,0.3,1.2,1S342.5,219,341.8,219z"/>
				</g>
				<g>
					<path fill="#57BBB4" d="M382.6,219h-36c-0.7,0-1.2-0.3-1.2-1s0.5-1,1.2-1h36c0.7,0,1.2,0.3,1.2,1S383.2,219,382.6,219z"/>
				</g>
			</g>
			<g>
				<path fill="#57BBB4" d="M382.6,228h-76.8c-0.7,0-1.2-0.8-1.2-1.5s0.5-1.5,1.2-1.5h76.8c0.7,0,1.2,0.8,1.2,1.5
					S383.2,228,382.6,228z"/>
			</g>
			<g>
				<path fill="#57BBB4" d="M381.1,237h-75.3c-0.7,0-1.2-0.8-1.2-1.5s0.5-1.5,1.2-1.5h75.3c0.7,0,1.2,0.8,1.2,1.5
					S381.8,237,381.1,237z"/>
			</g>
			<g>
				<path fill="#57BBB4" d="M352.8,242h-47c-0.7,0-1.2-0.8-1.2-1.5s0.5-1.5,1.2-1.5h47c0.7,0,1.2,0.8,1.2,1.5S353.5,242,352.8,242z"
					/>
			</g>
		</g>
	</g>
	<g>
		<g>
			<circle fill="#BADDCE" cx="343.3" cy="187.7" r="24.6"/>
			<path fill="#49B78D" d="M343.3,213c-13.9,0-25.3-11.3-25.3-25.3c0-13.9,11.3-25.3,25.3-25.3s25.3,11.3,25.3,25.3
				C368.6,201.6,357.2,213,343.3,213z M343.3,163.8c-13.2,0-23.9,10.7-23.9,23.9c0,13.2,10.7,23.9,23.9,23.9s23.9-10.7,23.9-23.9
				C367.1,174.5,356.4,163.8,343.3,163.8z"/>
		</g>
		<g>
			<g>
				<g>
					<path fill="#49B78D" d="M339.4,197.6l-7.3-7.2c-0.4-0.3-0.4-0.9,0-1.3c0.3-0.4,0.9-0.4,1.3,0l5.9,5.8l13.9-16.8
						c0.3-0.4,0.9-0.4,1.3-0.1s0.4,0.9,0.1,1.3L339.4,197.6z"/>
				</g>
			</g>
		</g>
	</g>
</g>
</svg>
